<?xml version="1.0" encoding="UTF-8"?>
<svg version="1.1" xmlns="http://www.w3.org/2000/svg" width="512" height="512">
<path d="M0 0 C1.0498094 -0.00694553 2.09961881 -0.01389106 3.18124062 -0.02104706 C6.69266399 -0.03931703 10.20341176 -0.02905227 13.71485901 -0.01878357 C16.23490403 -0.025842 18.7549448 -0.03458669 21.27497864 -0.04489136 C27.4056115 -0.0650659 33.53599543 -0.06641072 39.66664868 -0.05826581 C44.65069927 -0.05195982 49.63469577 -0.05310833 54.6187458 -0.05953789 C55.32875543 -0.06043954 56.03876506 -0.0613412 56.77029013 -0.06227018 C58.21278255 -0.06412142 59.65527496 -0.06598398 61.09776736 -0.06785773 C74.61751737 -0.08442788 88.13716295 -0.07572379 101.65690667 -0.05887216 C114.01838044 -0.04417666 126.37961111 -0.05880276 138.74105357 -0.08764232 C151.44267972 -0.11705421 164.14419373 -0.12800335 176.84585243 -0.11846012 C178.28327276 -0.1174376 179.72069311 -0.11644299 181.15811348 -0.11547661 C181.86529921 -0.11500022 182.57248494 -0.11452383 183.30110053 -0.114033 C188.27681095 -0.11187119 193.25241492 -0.12166053 198.22810173 -0.13624763 C204.93002669 -0.1556219 211.6314284 -0.148661 218.33335876 -0.12404823 C220.79237708 -0.11903647 223.25142976 -0.12253945 225.71042061 -0.13519669 C229.06869791 -0.15111479 232.42548446 -0.13618576 235.78369141 -0.11352539 C236.75558755 -0.12536112 237.72748369 -0.13719685 238.72883123 -0.14939123 C245.12731461 -0.0617442 249.55009924 1.29627989 254.45533752 5.5146637 C258.56690399 10.46761458 259.05501033 15.23228187 259.06471252 21.51075745 C259.08124878 22.34430252 259.09778503 23.1778476 259.11482239 24.03665161 C259.16305466 26.67523243 259.18461739 29.31323802 259.20533752 31.9521637 C259.23351805 33.75102038 259.26344837 35.54985055 259.29518127 37.34864807 C259.36880647 41.73727253 259.41853181 46.12558229 259.45533752 50.5146637 C260.17898499 50.49895325 260.90263245 50.4832428 261.64820862 50.46705627 C289.02558682 49.95283543 320.75097667 51.98267433 343.31471252 69.76856995 C354.52221782 78.4218786 368.92208164 76.70839954 382.45533752 76.5146637 C382.42802551 77.29889709 382.4007135 78.08313049 382.37257385 78.89112854 C381.94101817 95.77991816 382.791473 107.67141647 393.08229065 121.53224182 C410.49044995 146.66635518 412.28794538 183.71785313 407.06471252 212.68067932 C403.8766537 229.0194808 397.54184631 244.34482339 389.17018127 258.72169495 C388.93428284 259.31337463 388.6983844 259.90505432 388.45533752 260.5146637 C389.73021288 263.56456997 389.73021288 263.56456997 391.45533752 266.5146637 C394.06544145 274.69298934 392.96893344 282.84094621 389.13502502 290.3584137 C388.21639205 292.51846758 388.21639205 292.51846758 389.20924377 294.64356995 C391.08544074 297.46080614 392.42856101 298.90467619 395.45533752 300.5146637 C397.74633977 299.9894537 399.80614004 299.13749481 401.99049377 298.2724762 C407.55971655 296.56022704 412.67202308 297.59323915 417.7507782 300.21739197 C421.39354956 302.34479 424.33818252 304.98540659 427.28297424 307.9858551 C427.81883652 308.519673 428.35469879 309.05349091 428.90679932 309.60348511 C430.65687476 311.35057876 432.39603455 313.10810449 434.13502502 314.8662262 C435.35515326 316.08941546 436.57587613 317.31201184 437.79716492 318.53404236 C440.34505687 321.08652028 442.88797908 323.64380856 445.42701721 326.20509338 C448.68529028 329.49176767 451.95228951 332.7695912 455.22256279 336.04432106 C457.73829264 338.56420013 460.25117877 341.08689766 462.76301956 343.61065292 C463.96746789 344.82080419 465.17238958 346.03048451 466.37778854 347.23968887 C468.05585971 348.92461217 469.73049484 350.61287177 471.40406799 352.30226135 C471.90376602 352.80307724 472.40346405 353.30389313 472.91830444 353.81988525 C476.03442853 356.97519892 477.29032689 358.59060416 478.08033752 363.0146637 C477.9753728 369.48748815 472.78568619 373.26519798 468.45533752 377.5146637 C467.48393884 378.51600726 466.51523876 379.51997491 465.54908752 380.52638245 C456.34273523 390.01492179 456.34273523 390.01492179 450.20533752 391.0771637 C440.94542196 389.68817636 433.31310466 378.55249662 426.84205627 372.10450745 C426.30150919 371.56678774 425.7609621 371.02906803 425.20403481 370.47505379 C422.35144442 367.63734052 419.50165211 364.79685384 416.65431213 361.95387268 C413.72466533 359.02973868 410.78582971 356.11502276 407.84480572 353.20233822 C405.57062328 350.94680565 403.30320199 348.68456742 401.03756142 346.42045784 C399.9568254 345.34273619 398.87360333 344.26750127 397.78780174 343.19488335 C396.27092826 341.69514327 394.76388875 340.1861344 393.25880432 338.67457581 C392.40135117 337.82076828 391.54389801 336.96696075 390.66046143 336.08728027 C385.8642915 330.49180953 384.23339545 324.76477145 384.45533752 317.5146637 C385.19191664 314.07103902 386.21502095 310.80815969 387.45533752 307.5146637 C385.47533752 305.5346637 383.49533752 303.5546637 381.45533752 301.5146637 C380.53301331 301.8221051 380.53301331 301.8221051 379.59205627 302.13575745 C368.9000462 305.6997608 360.0888577 307.34808196 349.45533752 302.5146637 C348.46533752 302.1846637 347.47533752 301.8546637 346.45533752 301.5146637 C344.00444163 302.71993646 344.00444163 302.71993646 341.33033752 304.5146637 C316.67503636 319.35514473 286.88776893 324.80952743 258.45533752 321.5146637 C258.49014221 322.81661682 258.5249469 324.11856995 258.56080627 325.4599762 C258.58895654 327.18652574 258.61625537 328.9130893 258.64283752 330.6396637 C258.6805426 331.92356995 258.6805426 331.92356995 258.7190094 333.2334137 C258.78782647 339.19756003 258.16963186 343.60698452 253.92018127 348.15919495 C250.06710663 351.10566379 248.01610195 352.63782865 243.19951344 352.64888477 C241.85194154 352.65557154 241.85194154 352.65557154 240.47714597 352.66239339 C239.48388183 352.66220903 238.49061769 352.66202467 237.46725464 352.66183472 C235.89176504 352.66734975 235.89176504 352.66734975 234.28444737 352.6729762 C230.74155239 352.68404773 227.1986867 352.68786275 223.65577698 352.69166565 C221.12499904 352.69792769 218.59422203 352.70457425 216.06344604 352.71157837 C208.45127858 352.73083226 200.83911626 352.74141086 193.22693065 352.75030616 C189.64301786 352.75468791 186.05910655 352.76005506 182.47519493 352.76529503 C170.56236357 352.78230931 158.64953313 352.79680327 146.73669147 352.80404377 C143.64429028 352.8059537 140.55188909 352.80787402 137.45948792 352.80982971 C136.30657076 352.81055532 136.30657076 352.81055532 135.13036235 352.81129559 C122.68064248 352.81959505 110.23101872 352.84492961 97.78134082 352.87741039 C85.00193152 352.91047977 72.22257106 352.92849247 59.44311875 352.93168801 C52.26697374 352.93385337 45.09096882 352.94260548 37.91486549 352.96814919 C31.16385368 352.99212402 24.41313764 352.99568263 17.66207695 352.9853878 C15.18328132 352.98489115 12.70447349 352.99124959 10.22571564 353.00494385 C6.84295235 353.0225876 3.46110193 353.01559271 0.07833862 353.00241089 C-1.39482717 353.01886476 -1.39482717 353.01886476 -2.89775389 353.03565103 C-8.67540056 352.98125529 -13.12522635 352.46101461 -17.54466248 348.5146637 C-23.51634653 342.30257424 -23.25295123 335.36041377 -23.17958069 327.15431213 C-23.18534791 325.80016407 -23.19329306 324.44602385 -23.20321691 323.09189987 C-23.22403173 319.38548864 -23.21380008 315.67972359 -23.19828582 311.97331047 C-23.18695401 307.97049015 -23.20444406 303.96777948 -23.21818542 299.96498108 C-23.24040292 292.12932062 -23.23562333 284.29389982 -23.22112222 276.45823002 C-23.2098241 270.08928526 -23.20830156 263.7204076 -23.2137413 257.35145569 C-23.21450747 256.4445309 -23.21527363 255.53760612 -23.21606302 254.60319877 C-23.21766166 252.76072087 -23.21928273 250.91824299 -23.22092597 249.07576513 C-23.23517911 231.80427884 -23.21879758 214.5329253 -23.19192414 197.26146078 C-23.16958575 182.44605569 -23.173466 167.6308465 -23.19651794 152.81544495 C-23.22328364 135.60520325 -23.23380585 118.39507787 -23.21845663 101.18481827 C-23.2168639 99.34916943 -23.21529205 97.51352058 -23.2137413 95.6778717 C-23.21296992 94.77472914 -23.21219855 93.87158657 -23.21140379 92.94107604 C-23.2070891 86.58077051 -23.21436837 80.22053884 -23.22613907 73.86024475 C-23.24017116 66.10769503 -23.23634929 58.35539839 -23.20973535 50.60287762 C-23.19660658 46.64836895 -23.19142839 42.69428203 -23.20798111 38.73977661 C-23.22291378 35.11748783 -23.21463916 31.4960105 -23.18809335 27.87379503 C-23.17988923 25.94746207 -23.19615674 24.02107249 -23.2133795 22.09479904 C-23.13372952 15.04809439 -22.57351217 9.74455656 -17.54466248 4.5146637 C-12.34164042 -0.11971593 -6.68219162 -0.05652897 0 0 Z " fill="#EFEAEA" transform="translate(28.544662475585938,60.48533630371094)"/>
<path d="M0 0 C11.2075053 8.65330865 25.60736911 6.93982959 39.140625 6.74609375 C39.11331299 7.53032715 39.08600098 8.31456055 39.05786133 9.12255859 C38.62630564 26.01134821 39.47676047 37.90284652 49.76757812 51.76367188 C67.17573743 76.89778523 68.97323286 113.94928318 63.75 142.91210938 C60.56194117 159.25091086 54.22713378 174.57625344 45.85546875 188.953125 C45.61957031 189.54480469 45.38367188 190.13648438 45.140625 190.74609375 C46.41550035 193.79600002 46.41550035 193.79600002 48.140625 196.74609375 C50.75072893 204.9244194 49.65422092 213.07237626 45.8203125 220.58984375 C44.90167953 222.74989764 44.90167953 222.74989764 45.89453125 224.875 C47.77072821 227.69223619 49.11384849 229.13610624 52.140625 230.74609375 C54.43162725 230.22088375 56.49142751 229.36892487 58.67578125 228.50390625 C64.24500402 226.79165709 69.35731055 227.8246692 74.43606567 230.44882202 C78.07883703 232.57622005 81.02346999 235.21683664 83.96826172 238.21728516 C84.50412399 238.75110306 85.03998627 239.28492096 85.59208679 239.83491516 C87.34216223 241.58200881 89.08132203 243.33953455 90.8203125 245.09765625 C92.04044073 246.32084552 93.26116361 247.54344189 94.48245239 248.76547241 C97.03034435 251.31795033 99.57326655 253.87523861 102.11230469 256.43652344 C105.37057776 259.72319772 108.63757699 263.00102125 111.90785027 266.27575111 C114.42358011 268.79563018 116.93646625 271.31832771 119.44830704 273.84208298 C120.65275537 275.05223424 121.85767706 276.26191456 123.06307602 277.47111893 C124.74114718 279.15604223 126.41578231 280.84430183 128.08935547 282.53369141 C128.5890535 283.03450729 129.08875153 283.53532318 129.60359192 284.05131531 C132.71971601 287.20662897 133.97561437 288.82203421 134.765625 293.24609375 C134.66066028 299.7189182 129.47097366 303.49662804 125.140625 307.74609375 C124.16922632 308.74743731 123.20052623 309.75140497 122.234375 310.7578125 C113.0280227 320.24635184 113.0280227 320.24635184 106.890625 321.30859375 C97.63070944 319.91960642 89.99839213 308.78392667 83.52734375 302.3359375 C82.98679667 301.79821779 82.44624958 301.26049809 81.88932228 300.70648384 C79.03673189 297.86877057 76.18693958 295.02828389 73.33959961 292.18530273 C70.40995281 289.26116873 67.47111718 286.34645282 64.53009319 283.43376827 C62.25591076 281.1782357 59.98848947 278.91599747 57.72284889 276.65188789 C56.64211287 275.57416624 55.55889081 274.49893132 54.47308922 273.4263134 C52.95621574 271.92657332 51.44917622 270.41756445 49.9440918 268.90600586 C49.08663864 268.05219833 48.22918549 267.19839081 47.3457489 266.31871033 C42.54957897 260.72323959 40.91868293 254.9962015 41.140625 247.74609375 C41.87720412 244.30246908 42.90030842 241.03958974 44.140625 237.74609375 C42.160625 235.76609375 40.180625 233.78609375 38.140625 231.74609375 C37.52574219 231.95105469 36.91085937 232.15601563 36.27734375 232.3671875 C25.58533368 235.93119086 16.77414518 237.57951201 6.140625 232.74609375 C5.150625 232.41609375 4.160625 232.08609375 3.140625 231.74609375 C0.68972911 232.95136651 0.68972911 232.95136651 -1.984375 234.74609375 C-26.34115032 249.40688657 -56.84514736 255.70187208 -84.984375 251.49609375 C-85.89525879 251.36114502 -86.80614258 251.22619629 -87.74462891 251.0871582 C-113.2195329 247.14785511 -137.15137228 237.58356929 -156.859375 220.74609375 C-157.36807129 220.31570801 -157.87676758 219.88532227 -158.40087891 219.44189453 C-187.1959793 194.82687527 -202.35920993 161.1585007 -205.859375 123.74609375 C-208.55723468 89.21501404 -195.13974715 53.82298147 -172.859375 27.74609375 C-163.85037741 17.66660425 -154.20678486 9.07609764 -142.859375 1.74609375 C-141.65861328 0.92625 -141.65861328 0.92625 -140.43359375 0.08984375 C-128.7821251 -7.47656767 -115.10559936 -12.51164336 -101.578125 -15.4453125 C-99.27048072 -15.94707969 -96.97372088 -16.50710687 -94.703125 -17.15625 C-66.08943982 -24.84086595 -23.7890321 -18.75173705 0 0 Z " fill="#C4D6E4" transform="translate(371.859375,130.25390625)"/>
<path d="M0 0 C26.39974066 0 49.74297071 6.66857457 70 24 C70.79792969 24.66515625 71.59585938 25.3303125 72.41796875 26.015625 C92.95551582 43.71930899 106.11849745 68.98591362 109 96 C109.58575827 109.10922394 110.1651287 122.4257289 106 135 C105.59144773 136.40167475 105.18539033 137.80407806 104.78125 139.20703125 C100.16144532 154.66771235 92.96121052 168.07110637 82 180 C81.55285645 180.48952148 81.10571289 180.97904297 80.64501953 181.48339844 C63.27527495 200.29018677 39.55793296 213.04066039 14 216 C9.38 216 4.76 216 0 216 C0 144.72 0 73.44 0 0 Z " fill="#E3ECFB" transform="translate(301,139)"/>
<path d="M0 0 C0 71.28 0 142.56 0 216 C-16.37133891 216 -16.37133891 216 -24.375 213.9375 C-25.26783691 213.71344482 -26.16067383 213.48938965 -27.08056641 213.25854492 C-40.92998809 209.61115925 -60.92445988 202.68180488 -69 190 C-67.9275 189.896875 -66.855 189.79375 -65.75 189.6875 C-61.22792701 188.92518114 -61.22792701 188.92518114 -58 186 C-57.93702799 183.66751657 -57.93266854 181.33236166 -58 179 C-58.66942627 179.07855225 -59.33885254 179.15710449 -60.02856445 179.23803711 C-78.54926119 181.12822965 -78.54926119 181.12822965 -84.15185547 177.67285156 C-88.15973954 173.78906098 -90.71399294 169.04043941 -93 164 C-93.37833984 163.17097168 -93.75667969 162.34194336 -94.14648438 161.48779297 C-95.11470637 159.332105 -96.06552443 157.17048615 -97 155 C-95.9330188 154.97812622 -95.9330188 154.97812622 -94.84448242 154.95581055 C-91.62493668 154.88138994 -88.40643482 154.78471 -85.1875 154.6875 C-84.06794922 154.66494141 -82.94839844 154.64238281 -81.79492188 154.61914062 C-80.72177734 154.58369141 -79.64863281 154.54824219 -78.54296875 154.51171875 C-77.55321045 154.48553467 -76.56345215 154.45935059 -75.54370117 154.43237305 C-72.96645826 154.19090755 -72.96645826 154.19090755 -71.1418457 152.62817383 C-69.72993489 150.97995866 -69.72993489 150.97995866 -70.1875 148.4375 C-70.84627033 145.85558728 -70.84627033 145.85558728 -73 144 C-76.00972657 143.62703444 -76.00972657 143.62703444 -79.5390625 143.5859375 C-80.84101563 143.54726563 -82.14296875 143.50859375 -83.484375 143.46875 C-84.86457862 143.43729237 -86.24478704 143.40604509 -87.625 143.375 C-89.01304541 143.33682066 -90.40106711 143.29776895 -91.7890625 143.2578125 C-95.19257185 143.16327057 -98.59607165 143.07772103 -102 143 C-103.70889569 138.59900836 -105.30973928 134.40138161 -106.1875 129.75 C-106.34605469 128.94046875 -106.50460938 128.1309375 -106.66796875 127.296875 C-107 125 -107 125 -107 121 C-106.01604248 120.98018066 -105.03208496 120.96036133 -104.01831055 120.93994141 C-100.36717161 120.86386013 -96.71642991 120.775147 -93.06567383 120.68261719 C-91.48567549 120.64433779 -89.90559031 120.60948303 -88.32543945 120.578125 C-86.05388355 120.53245124 -83.78292491 120.47446216 -81.51171875 120.4140625 C-80.80536789 120.40251129 -80.09901703 120.39096008 -79.3712616 120.37905884 C-75.72258607 120.26928952 -74.11786454 120.07857636 -71 118 C-70.58333333 115 -70.58333333 115 -71 112 C-73.90497155 109.09502845 -76.95399306 109.6455483 -80.8515625 109.5859375 C-81.62559418 109.56657135 -82.39962585 109.5472052 -83.19711304 109.5272522 C-85.67296275 109.4674017 -88.14885883 109.42104989 -90.625 109.375 C-92.30210377 109.33682518 -93.97918784 109.29777375 -95.65625 109.2578125 C-99.77067353 109.16169591 -103.88518886 109.07768561 -108 109 C-108.23576736 101.37685526 -107.83717315 94.41430591 -106 87 C-105.22809326 86.98541748 -104.45618652 86.97083496 -103.66088867 86.95581055 C-100.16924907 86.88141967 -96.6785751 86.7847291 -93.1875 86.6875 C-91.97255859 86.66494141 -90.75761719 86.64238281 -89.50585938 86.61914062 C-88.34248047 86.58369141 -87.17910156 86.54824219 -85.98046875 86.51171875 C-84.37014771 86.47244263 -84.37014771 86.47244263 -82.72729492 86.43237305 C-79.990297 86.21352815 -79.990297 86.21352815 -78.14575195 84.62817383 C-76.52621933 82.32673273 -76.6478764 80.74656405 -77 78 C-79.60088622 75.39911378 -80.82137113 75.70037775 -84.4453125 75.5859375 C-85.52167969 75.54726562 -86.59804687 75.50859375 -87.70703125 75.46875 C-88.83496094 75.4378125 -89.96289062 75.406875 -91.125 75.375 C-92.26066406 75.33632812 -93.39632812 75.29765625 -94.56640625 75.2578125 C-97.37743956 75.16332399 -100.18846233 75.07776459 -103 75 C-102.28148698 72.85057595 -101.5495573 70.70563585 -100.8125 68.5625 C-100.20341797 66.77005859 -100.20341797 66.77005859 -99.58203125 64.94140625 C-99.33122803 64.3177417 -99.0804248 63.69407715 -98.82202148 63.05151367 C-97.95004174 60.95543287 -97.95004174 60.95543287 -97.24243164 58.55200195 C-96.13367695 55.73025059 -95.24557501 54.05697907 -93 52 C-87.94168217 50.76850745 -82.97448469 50.91806272 -77.8125 51.0625 C-75.72663548 51.08340912 -73.64130841 51.09179994 -71.55534363 51.09165955 C-69.67056509 51.0973872 -67.78597142 51.13590071 -65.90161133 51.17602539 C-62.87204736 51.3140417 -62.87204736 51.3140417 -61 49 C-60.83322718 45.41656024 -60.83322718 45.41656024 -61 42 C-63.7902667 41.0699111 -65.76529542 40.81301231 -68.66796875 40.68359375 C-70.00698242 40.62075195 -70.00698242 40.62075195 -71.37304688 40.55664062 C-72.30181641 40.51732422 -73.23058594 40.47800781 -74.1875 40.4375 C-75.12787109 40.39431641 -76.06824219 40.35113281 -77.03710938 40.30664062 C-79.35792854 40.20061335 -81.67885325 40.09854971 -84 40 C-83.07161713 38.68103535 -82.13194268 37.37001311 -81.1875 36.0625 C-80.66542969 35.33160156 -80.14335937 34.60070312 -79.60546875 33.84765625 C-78 32 -78 32 -75 31 C-74.505 29.515 -74.505 29.515 -74 28 C-71.78734337 26.05089278 -69.58096452 24.2329089 -67.25 22.4375 C-66.62867188 21.94314453 -66.00734375 21.44878906 -65.3671875 20.93945312 C-62.0445758 18.34935814 -59.06188815 16.31003645 -55 15 C-55 15.99 -55 16.98 -55 18 C-49.72 18 -44.44 18 -39 18 C-39 14.37 -39 10.74 -39 7 C-26.87865012 0.12031493 -13.71907905 0 0 0 Z " fill="#D5DBEB" transform="translate(301,139)"/>
<path d="M0 0 C2.04189278 1.78518258 3.93614437 3.54394971 5.82763672 5.47119141 C6.36349899 6.00500931 6.89936127 6.53882721 7.45146179 7.08882141 C9.20153723 8.83591506 10.94069703 10.5934408 12.6796875 12.3515625 C13.89981573 13.57475177 15.12053861 14.79734814 16.34182739 16.01937866 C18.88971935 18.57185658 21.43264155 21.12914486 23.97167969 23.69042969 C27.22995276 26.97710397 30.49695199 30.2549275 33.76722527 33.52965736 C36.28295511 36.04953643 38.79584125 38.57223396 41.30768204 41.09598923 C42.51213037 42.30614049 43.71705206 43.51582081 44.92245102 44.72502518 C46.60052218 46.40994848 48.27515731 48.09820808 49.94873047 49.78759766 C50.4484285 50.28841354 50.94812653 50.78922943 51.46296692 51.30522156 C54.57909101 54.46053522 55.83498937 56.07594046 56.625 60.5 C56.52003528 66.97282445 51.33034866 70.75053429 47 75 C46.02860132 76.00134356 45.05990123 77.00531122 44.09375 78.01171875 C34.8873977 87.50025809 34.8873977 87.50025809 28.75 88.5625 C19.49008444 87.17351267 11.85776713 76.03783292 5.38671875 69.58984375 C4.84617167 69.05212404 4.30562458 68.51440434 3.74869728 67.96039009 C0.89610689 65.12267682 -1.95368542 62.28219014 -4.80102539 59.43920898 C-7.73067219 56.51507498 -10.66950782 53.60035907 -13.61053181 50.68767452 C-15.88471424 48.43214195 -18.15213553 46.16990372 -20.41777611 43.90579414 C-21.49851213 42.82807249 -22.58173419 41.75283757 -23.66753578 40.68021965 C-25.18440926 39.18047957 -26.69144878 37.6714707 -28.1965332 36.15991211 C-29.05398636 35.30610458 -29.91143951 34.45229706 -30.7948761 33.57261658 C-35.62297586 27.93989478 -37.14311053 22.27662019 -37 15 C-36.08063413 8.4562782 -33.06144109 4.08103465 -28.234375 -0.33203125 C-19.1654647 -7.1020045 -9.12484743 -5.99642945 0 0 Z " fill="#C87528" transform="translate(450,363)"/>
<path d="M0 0 C2.44676071 2.12713579 4.69670198 4.40886774 6.9375 6.75 C7.52595703 7.35199219 8.11441406 7.95398438 8.72070312 8.57421875 C10.15416829 10.04264648 11.578101 11.52036977 13 13 C11.71977125 15.80969467 10.39285871 17.8539238 8.20263672 20.02441406 C7.64220673 20.58469299 7.08177673 21.14497192 6.50436401 21.722229 C5.90222076 22.31404968 5.30007751 22.90587036 4.6796875 23.515625 C4.06102814 24.13145447 3.44236877 24.74728394 2.80496216 25.3817749 C0.83296186 27.34260336 -1.14588737 29.29635301 -3.125 31.25 C-4.46530164 32.58026799 -5.80515083 33.910992 -7.14453125 35.2421875 C-10.42446589 38.5001015 -13.71055942 41.75168533 -17 45 C-21.07784455 43.12288826 -23.92807003 40.4036596 -27.0625 37.25 C-27.59166016 36.73695313 -28.12082031 36.22390625 -28.66601562 35.6953125 C-34.01000318 30.35803008 -36.54053294 25.14504505 -37.05078125 17.58203125 C-36.92198026 11.03299648 -34.77292087 6.43550027 -30.375 1.625 C-21.31005206 -6.66247978 -10.01616648 -7.03624971 0 0 Z " fill="#B06328" transform="translate(450,363)"/>
<path d="M0 0 C42.24 0 84.48 0 128 0 C128 3.63 128 7.26 128 11 C85.76 11 43.52 11 0 11 C0 7.37 0 3.74 0 0 Z " fill="#515050" transform="translate(43,340)"/>
<path d="M0 0 C4.47785384 3.75327668 8.74892056 7.61249097 12.875 11.75 C13.3596875 12.23082031 13.844375 12.71164062 14.34375 13.20703125 C17.52104998 16.39320637 18.82526413 18.0214791 19.625 22.5 C19.52003528 28.97282445 14.33034866 32.75053429 10 37 C9.02860132 38.00134356 8.05990123 39.00531122 7.09375 40.01171875 C-2.1126023 49.50025809 -2.1126023 49.50025809 -8.25 50.5625 C-13.73999071 49.73900139 -16.18262723 46.85686283 -20 43 C-20.98358807 42.027849 -21.96801289 41.05654411 -22.953125 40.0859375 C-25.65629325 37.41083729 -28.3329935 34.71112977 -31 32 C-25.19316781 24.88094773 -18.63714556 18.52625188 -12.125 12.0625 C-10.94768362 10.89020796 -9.77059826 9.71768386 -8.59375 8.54492188 C-5.73182511 5.69393018 -2.86678543 2.84610385 0 0 Z " fill="#B06327" transform="translate(487,401)"/>
<path d="M0 0 C38.94 0 77.88 0 118 0 C118 3.63 118 7.26 118 11 C79.06 11 40.12 11 0 11 C0 7.37 0 3.74 0 0 Z " fill="#4D4D4D" transform="translate(132,92)"/>
<path d="M0 0 C35.64 0 71.28 0 108 0 C108 3.63 108 7.26 108 11 C72.36 11 36.72 11 0 11 C0 7.37 0 3.74 0 0 Z " fill="#4F4F4F" transform="translate(43,278)"/>
<path d="M0 0 C35.64 0 71.28 0 108 0 C108 3.63 108 7.26 108 11 C72.36 11 36.72 11 0 11 C0 7.37 0 3.74 0 0 Z " fill="#4D4D4D" transform="translate(43,185)"/>
<path d="M0 0 C32.01 0 64.02 0 97 0 C97 3.63 97 7.26 97 11 C64.99 11 32.98 11 0 11 C0 7.37 0 3.74 0 0 Z " fill="#515151" transform="translate(116,371)"/>
<path d="M0 0 C5.37265304 5.0668923 6.09918567 9.65052117 6.375 16.8125 C6.32122485 22.16984967 5.10092523 26.09622504 2.6796875 30.84375 C1.76175564 33.00493542 1.76175564 33.00493542 2.75 35.140625 C4.26042147 37.38737694 6.02478219 39.15646338 8 41 C6.70700306 43.88437779 5.34058637 45.87219421 3 48 C-0.36591866 46.55746343 -2.51047079 44.66735273 -5 42 C-5.61488281 42.20496094 -6.22976563 42.40992188 -6.86328125 42.62109375 C-17.3626507 46.12088357 -26.60657428 48.10222717 -37 43 C-38.71484375 41.39453125 -38.71484375 41.39453125 -40 40 C-39.07058594 39.35933594 -38.14117187 38.71867187 -37.18359375 38.05859375 C-30.55101402 33.43442079 -24.60749473 28.86238085 -19 23 C-18.34 23 -17.68 23 -17 23 C-16.61908203 22.13761719 -16.61908203 22.13761719 -16.23046875 21.2578125 C-14.86076551 18.74451577 -13.27056572 16.96001301 -11.3125 14.875 C-7.07058692 10.21432402 -3.496674 5.2340839 0 0 Z " fill="#9AB5CD" transform="translate(415,320)"/>
<path d="M0 0 C28.71 0 57.42 0 87 0 C87 3.63 87 7.26 87 11 C58.29 11 29.58 11 0 11 C0 7.37 0 3.74 0 0 Z " fill="#4D4D4D" transform="translate(43,123)"/>
<path d="M0 0 C21.78 0 43.56 0 66 0 C66 3.63 66 7.26 66 11 C44.22 11 22.44 11 0 11 C0 7.37 0 3.74 0 0 Z " fill="#4E4E4E" transform="translate(98,154)"/>
<path d="M0 0 C18.81 0 37.62 0 57 0 C57 3.63 57 7.26 57 11 C38.19 11 19.38 11 0 11 C0 7.37 0 3.74 0 0 Z " fill="#515151" transform="translate(98,309)"/>
<path d="M0 0 C15.18 0 30.36 0 46 0 C46 3.63 46 7.26 46 11 C30.82 11 15.64 11 0 11 C0 7.37 0 3.74 0 0 Z " fill="#4F4F4F" transform="translate(43,92)"/>
<path d="M0 0 C12.54 0 25.08 0 38 0 C38 3.63 38 7.26 38 11 C25.46 11 12.92 11 0 11 C0 7.37 0 3.74 0 0 Z " fill="#535353" transform="translate(43,371)"/>
<path d="M0 0 C12.54 0 25.08 0 38 0 C38 3.63 38 7.26 38 11 C25.46 11 12.92 11 0 11 C0 7.37 0 3.74 0 0 Z " fill="#504F4F" transform="translate(104,216)"/>
<path d="M0 0 C9.9 0.33 19.8 0.66 30 1 C30 10.57 30 20.14 30 30 C26.49731818 26.49731818 23.21079985 23.01039078 19.9375 19.3125 C14.28462996 13.0342561 7.61494784 5.80747392 0 2 C0 1.34 0 0.68 0 0 Z " fill="#FEFEFE" transform="translate(381,136)"/>
<path d="M0 0 C4.78715623 -0.07415168 9.57397827 -0.12860204 14.36157227 -0.16479492 C15.99021223 -0.17988243 17.61881156 -0.20035506 19.24731445 -0.22631836 C21.58815535 -0.26270449 23.92845919 -0.2797262 26.26953125 -0.29296875 C26.99775589 -0.30845261 27.72598053 -0.32393646 28.47627258 -0.33988953 C33.49454064 -0.34156056 33.49454064 -0.34156056 35.96362305 1.3269043 C37.56820695 3.91729617 37.31555472 6.03378559 37 9 C35 11 35 11 31.56005859 11.22705078 C30.08948021 11.22673369 28.61887858 11.21540987 27.1484375 11.1953125 C26.37440582 11.1924826 25.60037415 11.18965271 24.80288696 11.18673706 C22.32676843 11.17552754 19.8510095 11.15042203 17.375 11.125 C15.69792188 11.11497118 14.02083811 11.10584516 12.34375 11.09765625 C8.22902777 11.07558574 4.11457489 11.04105102 0 11 C0 7.37 0 3.74 0 0 Z " fill="#515A69" transform="translate(194,248)"/>
<path d="M0 0 C11.88 0 23.76 0 36 0 C36 3.63 36 7.26 36 11 C24.12 11 12.24 11 0 11 C0 7.37 0 3.74 0 0 Z " fill="#4E4E4E" transform="translate(104,247)"/>
<path d="M0 0 C1.93262695 -0.0299707 1.93262695 -0.0299707 3.90429688 -0.06054688 C5.14115234 -0.05990234 6.37800781 -0.05925781 7.65234375 -0.05859375 C8.78534912 -0.06044678 9.91835449 -0.0622998 11.08569336 -0.06420898 C14.68656616 0.54267969 15.90047254 1.53987246 18.0625 4.4375 C17.90099795 7.82904295 17.47953243 9.02046757 15.0625 11.4375 C10.94482482 11.83550538 6.82161338 11.76654717 2.6862793 11.75317383 C0.63601386 11.75001696 -1.41280405 11.7734576 -3.46289062 11.79882812 C-4.75259766 11.79947266 -6.04230469 11.80011719 -7.37109375 11.80078125 C-8.55759521 11.80376221 -9.74409668 11.80674316 -10.96655273 11.80981445 C-13.9375 11.4375 -13.9375 11.4375 -15.82446289 10.07104492 C-17.42322146 7.72463265 -17.35378158 6.21271054 -16.9375 3.4375 C-13.29821433 -1.80423393 -5.66845126 -0.03109874 0 0 Z " fill="#525B6A" transform="translate(248.9375,213.5625)"/>
<path d="M0 0 C4.07502794 -0.07420211 8.14979392 -0.1286257 12.2253418 -0.16479492 C13.61147919 -0.17987397 14.99756894 -0.2003405 16.38354492 -0.22631836 C18.37658146 -0.26273716 20.36996723 -0.27813018 22.36328125 -0.29296875 C23.56251221 -0.3086792 24.76174316 -0.32438965 25.99731445 -0.34057617 C29 0 29 0 30.92260742 1.36206055 C32 3 32 3 31.875 5.5 C30.91498907 8.24288838 30.29391915 9.25619635 28 11 C25.45629883 11.34057617 25.45629883 11.34057617 22.45703125 11.29296875 C20.84731445 11.2784668 20.84731445 11.2784668 19.20507812 11.26367188 C18.08552734 11.23853516 16.96597656 11.21339844 15.8125 11.1875 C14.68134766 11.17396484 13.55019531 11.16042969 12.38476562 11.14648438 C9.58936683 11.11109958 6.79492108 11.06172948 4 11 C3.32880451 9.5437455 2.66318193 8.08492133 2 6.625 C1.62875 5.81289063 1.2575 5.00078125 0.875 4.1640625 C0 2 0 2 0 0 Z " fill="#555E6D" transform="translate(200,283)"/>
<path d="M0 0 C1.01900391 0.00322266 2.03800781 0.00644531 3.08789062 0.00976562 C4.10302734 -0.00634766 5.11816406 -0.02246094 6.1640625 -0.0390625 C7.62489258 -0.0400293 7.62489258 -0.0400293 9.11523438 -0.04101562 C10.45509399 -0.04548706 10.45509399 -0.04548706 11.82202148 -0.05004883 C14.60664843 0.39522286 15.48998686 1.07832266 17.15039062 3.32226562 C17.56660115 6.09700243 17.63254957 7.60991056 16.04174805 9.96020508 C13.22401159 11.98939724 10.95125088 11.66026816 7.51367188 11.61523438 C6.21494141 11.60556641 4.91621094 11.59589844 3.578125 11.5859375 C2.20637424 11.56087147 0.83462945 11.53547663 -0.53710938 11.50976562 C-1.92055861 11.49471582 -3.30402339 11.48102793 -4.6875 11.46875 C-8.07526145 11.43333786 -11.46224077 11.38394616 -14.84960938 11.32226562 C-14.06219078 9.86163419 -13.26951887 8.40383389 -12.47460938 6.94726562 C-12.03375 6.13515625 -11.59289062 5.32304687 -11.13867188 4.48632812 C-8.14125687 -0.54569586 -5.43773804 0.03963891 0 0 Z " fill="#515A69" transform="translate(223.849609375,179.677734375)"/>
<path d="M0 0 C3.93736123 -0.08696177 7.87447628 -0.14037835 11.8125 -0.1875 C13.49182617 -0.22520508 13.49182617 -0.22520508 15.20507812 -0.26367188 C16.27822266 -0.27333984 17.35136719 -0.28300781 18.45703125 -0.29296875 C19.9416687 -0.31653442 19.9416687 -0.31653442 21.45629883 -0.34057617 C24 0 24 0 25.82299805 1.36206055 C27.50377432 3.70106241 27.42180283 5.18798115 27 8 C25.8503418 9.63793945 25.8503418 9.63793945 24 11 C21.27270508 11.34057617 21.27270508 11.34057617 18.01953125 11.29296875 C16.85615234 11.28330078 15.69277344 11.27363281 14.49414062 11.26367188 C13.27919922 11.23853516 12.06425781 11.21339844 10.8125 11.1875 C9.58595703 11.17396484 8.35941406 11.16042969 7.09570312 11.14648438 C4.06336336 11.11108741 1.03190004 11.0617076 -2 11 C-1.85892253 9.54119891 -1.71197585 8.08296449 -1.5625 6.625 C-1.48128906 5.81289062 -1.40007812 5.00078125 -1.31640625 4.1640625 C-1 2 -1 2 0 0 Z " fill="#525B6A" transform="translate(198,214)"/>
<path d="M0 0 C1.61358398 -0.01836914 1.61358398 -0.01836914 3.25976562 -0.03710938 C4.28650391 -0.03904297 5.31324219 -0.04097656 6.37109375 -0.04296875 C7.79119751 -0.04913208 7.79119751 -0.04913208 9.23999023 -0.05541992 C11.5625 0.1875 11.5625 0.1875 13.5625 2.1875 C14.12085232 7.4360118 14.12085232 7.4360118 12.32592773 9.85180664 C8.95216067 12.40723785 4.69942543 11.65671881 0.625 11.625 C-0.28185547 11.64498047 -1.18871094 11.66496094 -2.12304688 11.68554688 C-8.72511612 11.68068884 -8.72511612 11.68068884 -12.078125 9.359375 C-13.4375 7.1875 -13.4375 7.1875 -13.25 4 C-11.50311398 -2.04691313 -5.44181362 0.00324884 0 0 Z " fill="#555D6D" transform="translate(252.4375,282.8125)"/>
<path d="M0 0 C7.59 0 15.18 0 23 0 C23 3.63 23 7.26 23 11 C15.41 11 7.82 11 0 11 C0 7.37 0 3.74 0 0 Z " fill="#515151" transform="translate(43,309)"/>
<path d="M0 0 C7.59 0 15.18 0 23 0 C23 3.63 23 7.26 23 11 C15.41 11 7.82 11 0 11 C0 7.37 0 3.74 0 0 Z " fill="#4E4E4E" transform="translate(43,154)"/>
<path d="M0 0 C1.15822266 -0.01740234 1.15822266 -0.01740234 2.33984375 -0.03515625 C8.01134354 -0.00566838 8.01134354 -0.00566838 10.21679688 1.71240234 C11.5 3.375 11.5 3.375 11.9375 6.375 C11.5 9.375 11.5 9.375 9.94140625 11.0390625 C6.54810447 12.89587723 3.84751427 12.77272154 0 12.75 C-1.3096875 12.75773437 -2.619375 12.76546875 -3.96875 12.7734375 C-7.57161849 12.36691915 -9.04686845 11.99413293 -11.5 9.375 C-11.9375 6.375 -11.9375 6.375 -11.5 3.375 C-8.41976217 -0.61594742 -4.67949422 -0.0703096 0 0 Z " fill="#555E6D" transform="translate(254.5,247.625)"/>
<path d="M0 0 C6.27 0 12.54 0 19 0 C19 3.63 19 7.26 19 11 C12.73 11 6.46 11 0 11 C0 7.37 0 3.74 0 0 Z " fill="#505050" transform="translate(43,247)"/>
<path d="M0 0 C6.27 0 12.54 0 19 0 C19 3.63 19 7.26 19 11 C12.73 11 6.46 11 0 11 C0 7.37 0 3.74 0 0 Z " fill="#4F4F4F" transform="translate(43,216)"/>
<path d="M0 0 C3.27066566 -0.08706892 6.54103365 -0.14041241 9.8125 -0.1875 C10.74126953 -0.21263672 11.67003906 -0.23777344 12.62695312 -0.26367188 C13.9659668 -0.27817383 13.9659668 -0.27817383 15.33203125 -0.29296875 C16.56530151 -0.31653442 16.56530151 -0.31653442 17.82348633 -0.34057617 C20.5182342 0.08109217 21.3752191 0.846146 23 3 C23.4375 5.5 23.4375 5.5 23 8 C19.2286773 11.58058914 15.86385916 11.73289832 10.83984375 11.625 C5.87585966 10.53251382 2.76354229 7.1413542 0 3 C0 2.01 0 1.02 0 0 Z " fill="#535C6B" transform="translate(221,317)"/>
<path d="M0 0 C1.03447266 0.01160156 1.03447266 0.01160156 2.08984375 0.0234375 C2.77949219 0.01570312 3.46914063 0.00796875 4.1796875 0 C9.33651082 0.02010457 9.33651082 0.02010457 11.58984375 2.2734375 C11.90234375 5.7734375 11.90234375 5.7734375 11.58984375 9.2734375 C8.03208163 11.64527892 6.30963768 11.57168144 2.08984375 11.5859375 C0.3728125 11.61107422 0.3728125 11.61107422 -1.37890625 11.63671875 C-4.41015625 11.2734375 -4.41015625 11.2734375 -6.296875 9.9453125 C-8.01063281 7.37166919 -7.72970291 5.27717612 -7.41015625 2.2734375 C-4.91805186 -0.21866689 -3.40654837 0.01328089 0 0 Z " fill="#525B6A" transform="translate(254.41015625,179.7265625)"/>
<path d="M0 0 C4.62 0 9.24 0 14 0 C14 3.63 14 7.26 14 11 C9.38 11 4.76 11 0 11 C0 7.37 0 3.74 0 0 Z " fill="#515151" transform="translate(157,123)"/>
<path d="M0 0 C1.3303125 0.00773437 1.3303125 0.00773437 2.6875 0.015625 C3.574375 0.01046875 4.46125 0.0053125 5.375 0 C7.6875 0.265625 7.6875 0.265625 9.6875 2.265625 C10 5.765625 10 5.765625 9.6875 9.265625 C5.87727687 11.80577375 3.15279184 11.85169455 -1.3125 11.265625 C-3.3125 10.140625 -3.3125 10.140625 -4.3125 8.265625 C-4.625 5.203125 -4.625 5.203125 -4.3125 2.265625 C-2.3125 0.265625 -2.3125 0.265625 0 0 Z " fill="#535C6B" transform="translate(256.3125,316.734375)"/>
<path d="M0 0 C0 3.63 0 7.26 0 11 C-4.95 11 -9.9 11 -15 11 C-15 9.68 -15 8.36 -15 7 C-12.68868934 5.83092416 -10.37604377 4.66464108 -8.0625 3.5 C-7.40314453 3.16613281 -6.74378906 2.83226562 -6.06445312 2.48828125 C-1.11328125 0 -1.11328125 0 0 0 Z " fill="#586170" transform="translate(261,146)"/>
</svg>
