<?xml version="1.0" encoding="UTF-8"?>
<svg version="1.1" xmlns="http://www.w3.org/2000/svg" width="64" height="64">
<path d="M0 0 C0.763125 0.20625 1.52625 0.4125 2.3125 0.625 C2.34137236 4.43748426 2.35925492 8.2499407 2.375 12.0625 C2.38337891 13.15111328 2.39175781 14.23972656 2.40039062 15.36132812 C2.40522461 16.91303711 2.40522461 16.91303711 2.41015625 18.49609375 C2.41801147 19.93359985 2.41801147 19.93359985 2.42602539 21.40014648 C2.3125 23.625 2.3125 23.625 1.3125 24.625 C1.9725 24.955 2.6325 25.285 3.3125 25.625 C3.9725 24.305 4.6325 22.985 5.3125 21.625 C7.2925 22.285 9.2725 22.945 11.3125 23.625 C11.3125 18.015 11.3125 12.405 11.3125 6.625 C13.2925 6.625 15.2725 6.625 17.3125 6.625 C17.3125 7.945 17.3125 9.265 17.3125 10.625 C18.5190625 10.3465625 18.5190625 10.3465625 19.75 10.0625 C21.0184375 9.8459375 21.0184375 9.8459375 22.3125 9.625 C23.3125 10.625 23.3125 10.625 23.42602539 12.39086914 C23.42078857 13.13973389 23.41555176 13.88859863 23.41015625 14.66015625 C23.40693359 15.46904297 23.40371094 16.27792969 23.40039062 17.11132812 C23.38782227 18.3865332 23.38782227 18.3865332 23.375 19.6875 C23.37048828 20.54150391 23.36597656 21.39550781 23.36132812 22.27539062 C23.34950373 24.39195663 23.33156769 26.50848685 23.3125 28.625 C20.3125 29.625 20.3125 29.625 17.3125 28.625 C16.8175 27.14 16.8175 27.14 16.3125 25.625 C14.53490124 30.59420684 14.53490124 30.59420684 15.3125 35.625 C16.95705275 36.34449183 18.63173769 36.99471413 20.3125 37.625 C23.34690958 39.23115314 26.33091316 40.92309204 29.3125 42.625 C29.3125 43.945 29.3125 45.265 29.3125 46.625 C25.95344855 48.67327851 22.57309884 50.68345836 19.1875 52.6875 C18.23617187 53.26822266 17.28484375 53.84894531 16.3046875 54.44726562 C15.3765625 54.99189453 14.4484375 55.53652344 13.4921875 56.09765625 C12.21964111 56.85961304 12.21964111 56.85961304 10.92138672 57.63696289 C7.62552875 58.88516963 5.68693841 58.50850615 2.3125 57.625 C-0.4609375 56.21484375 -0.4609375 56.21484375 -3.0625 54.5625 C-4.37347656 53.74072266 -4.37347656 53.74072266 -5.7109375 52.90234375 C-6.36320312 52.48082031 -7.01546875 52.05929688 -7.6875 51.625 C-7.48125 52.553125 -7.275 53.48125 -7.0625 54.4375 C-6.6875 57.625 -6.6875 57.625 -8.6875 60.625 C-13.56653584 61.83396463 -18.84665241 62.07725428 -23.6875 60.625 C-23.6875 59.635 -23.6875 58.645 -23.6875 57.625 C-24.3475 57.625 -25.0075 57.625 -25.6875 57.625 C-25.6875 56.305 -25.6875 54.985 -25.6875 53.625 C-25.0275 53.625 -24.3675 53.625 -23.6875 53.625 C-23.3575 52.305 -23.0275 50.985 -22.6875 49.625 C-21.3675 49.955 -20.0475 50.285 -18.6875 50.625 C-18.6875 49.965 -18.6875 49.305 -18.6875 48.625 C-17.0375 48.625 -15.3875 48.625 -13.6875 48.625 C-13.6875 49.285 -13.6875 49.945 -13.6875 50.625 C-13.0275 50.625 -12.3675 50.625 -11.6875 50.625 C-13.32162443 48.91659719 -14.55656094 47.69046953 -16.6875 46.625 C-16.6875 45.305 -16.6875 43.985 -16.6875 42.625 C-12.0675 39.985 -7.4475 37.345 -2.6875 34.625 C-3.0175 32.315 -3.3475 30.005 -3.6875 27.625 C-3.584375 28.3675 -3.48125 29.11 -3.375 29.875 C-3.6875 32.625 -3.6875 32.625 -5.625 34.875 C-10.43202721 37.62187269 -15.24417762 37.625 -20.6875 37.625 C-23.02314933 37.94169821 -25.3568782 38.27320803 -27.6875 38.625 C-29.06345155 30.75513447 -30.35830074 22.31543574 -27.6875 14.625 C-22.51215565 8.78882057 -15.12767607 5.64516839 -8.04760742 2.66455078 C-1.51750962 -0.21174553 -1.51750962 -0.21174553 0 0 Z M5.3125 23.625 C4.9825 24.615 4.6525 25.605 4.3125 26.625 C5.6325 26.295 6.9525 25.965 8.3125 25.625 C7.9825 24.965 7.6525 24.305 7.3125 23.625 C6.6525 23.625 5.9925 23.625 5.3125 23.625 Z M-0.6875 27.625 C-0.3575 28.615 -0.0275 29.605 0.3125 30.625 C0.9725 30.295 1.6325 29.965 2.3125 29.625 C2.3125 28.965 2.3125 28.305 2.3125 27.625 C1.3225 27.625 0.3325 27.625 -0.6875 27.625 Z M10.3125 27.625 C10.6425 28.615 10.9725 29.605 11.3125 30.625 C11.9725 30.295 12.6325 29.965 13.3125 29.625 C13.3125 28.965 13.3125 28.305 13.3125 27.625 C12.3225 27.625 11.3325 27.625 10.3125 27.625 Z M4.3125 29.625 C8.3125 30.625 8.3125 30.625 8.3125 30.625 Z M-17.6875 54.625 C-17.6875 55.285 -17.6875 55.945 -17.6875 56.625 C-16.6975 56.625 -15.7075 56.625 -14.6875 56.625 C-14.6875 55.965 -14.6875 55.305 -14.6875 54.625 C-15.6775 54.625 -16.6675 54.625 -17.6875 54.625 Z " fill="#CECBDD" transform="translate(27.6875,1.375)"/>
<path d="M0 0 C0 0.66 0 1.32 0 2 C1.65 2 3.3 2 5 2 C4.319375 2.5775 3.63875 3.155 2.9375 3.75 C2.298125 4.4925 1.65875 5.235 1 6 C1.19015254 8.21844626 1.41522155 9.41522155 3 11 C4.64340867 11.09854655 6.2911461 11.12972411 7.9375 11.125 C8.83339844 11.12757812 9.72929688 11.13015625 10.65234375 11.1328125 C13.02155555 11.15421413 13.02155555 11.15421413 15 10 C15.33425735 7.62625139 15.33425735 7.62625139 15 5 C13.0995533 3.15684329 13.0995533 3.15684329 11 2 C14.06210716 0.64560645 15.70924272 -0.004986 19 0 C23.39305105 1.7625778 27.38679488 3.92877565 31 7 C31 8.32 31 9.64 31 11 C27.64094855 13.04827851 24.26059884 15.05845836 20.875 17.0625 C19.92367187 17.64322266 18.97234375 18.22394531 17.9921875 18.82226562 C16.6 19.63920898 16.6 19.63920898 15.1796875 20.47265625 C14.33132324 20.98062744 13.48295898 21.48859863 12.60888672 22.01196289 C9.31302875 23.26016963 7.37443841 22.88350615 4 22 C1.2265625 20.58984375 1.2265625 20.58984375 -1.375 18.9375 C-2.68597656 18.11572266 -2.68597656 18.11572266 -4.0234375 17.27734375 C-4.67570312 16.85582031 -5.32796875 16.43429688 -6 16 C-5.79375 16.928125 -5.5875 17.85625 -5.375 18.8125 C-5 22 -5 22 -7 25 C-11.87903584 26.20896463 -17.15915241 26.45225428 -22 25 C-22 24.01 -22 23.02 -22 22 C-22.66 22 -23.32 22 -24 22 C-24 20.68 -24 19.36 -24 18 C-23.34 18 -22.68 18 -22 18 C-21.67 16.68 -21.34 15.36 -21 14 C-19.68 14.33 -18.36 14.66 -17 15 C-17 14.34 -17 13.68 -17 13 C-15.35 13 -13.7 13 -12 13 C-12 13.66 -12 14.32 -12 15 C-11.34 15 -10.68 15 -10 15 C-11.63412443 13.29159719 -12.86906094 12.06546953 -15 11 C-15 9.68 -15 8.36 -15 7 C-12.48046875 5.078125 -12.48046875 5.078125 -9.1875 3.25 C-8.10855469 2.63640625 -7.02960937 2.0228125 -5.91796875 1.390625 C-3 0 -3 0 0 0 Z M-16 19 C-16 19.66 -16 20.32 -16 21 C-15.01 21 -14.02 21 -13 21 C-13 20.34 -13 19.68 -13 19 C-13.99 19 -14.98 19 -16 19 Z " fill="#D8DEEB" transform="translate(26,37)"/>
<path d="M0 0 C0 1.65 0 3.3 0 5 C-1.65 5 -3.3 5 -5 5 C-5.13277344 5.77085938 -5.26554687 6.54171875 -5.40234375 7.3359375 C-5.57894531 8.33882812 -5.75554688 9.34171875 -5.9375 10.375 C-6.19853516 11.87160156 -6.19853516 11.87160156 -6.46484375 13.3984375 C-7 16 -7 16 -8 18 C-4.2047869 16.50902342 -2.38957269 14.24299151 0 11 C0.375 13.77734375 0.375 13.77734375 0 17 C-2.625 18.94140625 -2.625 18.94140625 -6 20.5625 C-9.3391463 22.06797048 -9.3391463 22.06797048 -12 24 C-12.02891258 25.66641587 -12.02837566 27.3335749 -12 29 C-14.30078125 31.01953125 -14.30078125 31.01953125 -17.3125 32.8125 C-18.29863281 33.41707031 -19.28476562 34.02164063 -20.30078125 34.64453125 C-23 36 -23 36 -26 36 C-25.835 35.360625 -25.67 34.72125 -25.5 34.0625 C-24.81014898 31.21686453 -25.04112987 30.68185872 -25.45703125 27.46484375 C-25.88315578 22.92069635 -26.26535576 18.43684951 -25 14 C-21.26473778 10.04096631 -16.92193313 8.1929405 -12 6 C-10.08813006 4.85980331 -8.19007908 3.6958227 -6.3125 2.5 C-2.25 0 -2.25 0 0 0 Z " fill="#EFEFF4" transform="translate(28,4)"/>
<path d="M0 0 C0 6.27 0 12.54 0 19 C-0.99 19 -1.98 19 -3 19 C-3 18.01 -3 17.02 -3 16 C-4.65 17.65 -6.3 19.3 -8 21 C-8.99 20.67 -9.98 20.34 -11 20 C-10.690625 19.34 -10.38125 18.68 -10.0625 18 C-8.75039745 14.29523985 -8.39735865 10.90736009 -8 7 C-4.25 5.875 -4.25 5.875 -2 7 C-2 5.35 -2 3.7 -2 2 C-16.45515218 7.8791527 -16.45515218 7.8791527 -27.13671875 18.23339844 C-28.10253436 23.00675637 -27.30035016 27.36449248 -26 32 C-25.34 32.33 -24.68 32.66 -24 33 C-24.99 33.66 -25.98 34.32 -27 35 C-27.33 35.99 -27.66 36.98 -28 38 C-28.66 38 -29.32 38 -30 38 C-31.37595155 30.13013447 -32.67080074 21.69043574 -30 14 C-24.82465565 8.16382057 -17.44017607 5.02016839 -10.36010742 2.03955078 C-3.94046581 -0.78809316 -3.94046581 -0.78809316 0 0 Z " fill="#6B6E7C" transform="translate(30,2)"/>
<path d="M0 0 C1.65 0 3.3 0 5 0 C5.33 1.32 5.66 2.64 6 4 C6.928125 3.7215625 6.928125 3.7215625 7.875 3.4375 C10 3 10 3 12 4 C12 9.94 12 15.88 12 22 C10.35 22.33 8.7 22.66 7 23 C6.34 21.68 5.68 20.36 5 19 C3.35 19 1.7 19 0 19 C0 12.73 0 6.46 0 0 Z " fill="#F9566C" transform="translate(52,15)"/>
<path d="M0 0 C0 0.66 0 1.32 0 2 C1.65 2 3.3 2 5 2 C4.319375 2.5775 3.63875 3.155 2.9375 3.75 C2.298125 4.4925 1.65875 5.235 1 6 C1.19015254 8.21844626 1.41522155 9.41522155 3 11 C4.68183948 11.23287008 6.3712416 11.41264166 8.0625 11.5625 C8.98160156 11.64628906 9.90070312 11.73007812 10.84765625 11.81640625 C11.55792969 11.87699219 12.26820312 11.93757813 13 12 C12.01 12.495 12.01 12.495 11 13 C11 13.66 11 14.32 11 15 C9.68 15.33 8.36 15.66 7 16 C7 16.66 7 17.32 7 18 C8.32 18.66 9.64 19.32 11 20 C8.51501037 20.94439145 6.76920385 21.33280552 4.27783203 20.25488281 C2.331657 19.09887244 0.44306689 17.88496106 -1.4375 16.625 C-5.96622708 13.62704626 -9.43271889 11.46465716 -15 11 C-15 9.68 -15 8.36 -15 7 C-12.48046875 5.078125 -12.48046875 5.078125 -9.1875 3.25 C-8.10855469 2.63640625 -7.02960937 2.0228125 -5.91796875 1.390625 C-3 0 -3 0 0 0 Z " fill="#E1E6F2" transform="translate(26,37)"/>
<path d="M0 0 C1.65 0 3.3 0 5 0 C5 0.66 5 1.32 5 2 C5.61875 1.814375 6.2375 1.62875 6.875 1.4375 C9 1 9 1 11 2 C11.75 5.375 11.75 5.375 12 9 C10 12 10 12 7.79296875 12.546875 C-0.91431971 13.22570409 -0.91431971 13.22570409 -5 12 C-5 11.01 -5 10.02 -5 9 C-5.66 9 -6.32 9 -7 9 C-7 7.68 -7 6.36 -7 5 C-6.34 5 -5.68 5 -5 5 C-4.67 3.68 -4.34 2.36 -4 1 C-2.68 1.33 -1.36 1.66 0 2 C0 1.34 0 0.68 0 0 Z M1 6 C1 6.66 1 7.32 1 8 C1.99 8 2.98 8 4 8 C4 7.34 4 6.68 4 6 C3.01 6 2.02 6 1 6 Z " fill="#8094F9" transform="translate(9,50)"/>
<path d="M0 0 C0.5625 1.9375 0.5625 1.9375 1 4 C0.67 4.33 0.34 4.66 0 5 C1.65 5.66 3.3 6.32 5 7 C4.34 7.66 3.68 8.32 3 9 C0.375 8.625 0.375 8.625 -2 8 C-1.34 9.32 -0.68 10.64 0 12 C-3.875 10.125 -3.875 10.125 -5 9 C-5.0825 9.763125 -5.165 10.52625 -5.25 11.3125 C-6 14 -6 14 -7.5 15.75 C-11.1910574 17.5955287 -14.92080486 17.74722936 -19 18 C-18.66015625 16.078125 -18.66015625 16.078125 -18 14 C-15.4375 12.75 -15.4375 12.75 -13 12 C-13.33 10.35 -13.66 8.7 -14 7 C-12.42065361 6.01441551 -10.83634827 5.03677459 -9.25 4.0625 C-8.36828125 3.51722656 -7.4865625 2.97195312 -6.578125 2.41015625 C-4.31600083 1.17284288 -2.51433675 0.46409487 0 0 Z " fill="#C4C8D4" transform="translate(29,21)"/>
<path d="M0 0 C0.7734375 -0.00515625 1.546875 -0.0103125 2.34375 -0.015625 C4.5 0.25 4.5 0.25 7.5 2.25 C7.875 4.75 7.875 4.75 7.5 7.25 C4.28169935 9.39553377 3.23213493 9.54583868 -0.5 9.5625 C-1.799375 9.58763672 -1.799375 9.58763672 -3.125 9.61328125 C-5.5 9.25 -5.5 9.25 -7.3203125 7.859375 C-8.5 6.25 -8.5 6.25 -8.375 4.1875 C-6.62713507 0.31722765 -3.83852411 -0.02559016 0 0 Z " fill="#666578" transform="translate(34.5,39.75)"/>
<path d="M0 0 C1.65 0 3.3 0 5 0 C6.8855253 1.8855253 6.13246689 4.57768831 6.13671875 7.08203125 C6.13285156 7.87996094 6.12898438 8.67789062 6.125 9.5 C6.12886719 10.29792969 6.13273437 11.09585937 6.13671875 11.91796875 C6.12660767 17.87339233 6.12660767 17.87339233 5 19 C3.35 19 1.7 19 0 19 C0 12.73 0 6.46 0 0 Z " fill="#5C71FA" transform="translate(52,15)"/>
<path d="M0 0 C0 5.94 0 11.88 0 18 C-3 19 -3 19 -6 18 C-6 12.06 -6 6.12 -6 0 C-4 -1 -4 -1 0 0 Z " fill="#78CC79" transform="translate(51,12)"/>
<path d="M0 0 C1.98 0 3.96 0 6 0 C6 5.94 6 11.88 6 18 C4.35 18.33 2.7 18.66 1 19 C0 18 0 18 -0.11352539 16.23413086 C-0.10828857 15.48526611 -0.10305176 14.73640137 -0.09765625 13.96484375 C-0.09443359 13.15595703 -0.09121094 12.34707031 -0.08789062 11.51367188 C-0.07951172 10.66353516 -0.07113281 9.81339844 -0.0625 8.9375 C-0.05798828 8.08349609 -0.05347656 7.22949219 -0.04882812 6.34960938 C-0.03700373 4.23304337 -0.01906769 2.11651315 0 0 Z " fill="#F8BC4E" transform="translate(39,8)"/>
<path d="M0 0 C0.49054666 3.12723497 0.69572611 5.89519245 0 9 C-2.34888006 11.34888006 -4.92603256 12.77164755 -8 14 C-8.66 14 -9.32 14 -10 14 C-10.49054666 10.87276503 -10.69572611 8.10480755 -10 5 C-7.28984721 2.28984721 -3.92265524 0 0 0 Z " fill="#CBD1DE" transform="translate(14,18)"/>
<path d="M0 0 C0.33 0 0.66 0 1 0 C1 5.28 1 10.56 1 16 C0.34 15.34 -0.32 14.68 -1 14 C-2.65 15.65 -4.3 17.3 -6 19 C-6.99 18.67 -7.98 18.34 -9 18 C-8.690625 17.34 -8.38125 16.68 -8.0625 16 C-6.75039745 12.29523985 -6.39735865 8.90736009 -6 5 C-2.25 3.875 -2.25 3.875 0 5 C0 3.35 0 1.7 0 0 Z " fill="#A5AEDC" transform="translate(28,4)"/>
<path d="M0 0 C0.66 0 1.32 0 2 0 C2 0.66 2 1.32 2 2 C3.134375 2.12375 4.26875 2.2475 5.4375 2.375 C6.613125 2.58125 7.78875 2.7875 9 3 C9.33 3.66 9.66 4.32 10 5 C8.35 5 6.7 5 5 5 C5 5.99 5 6.98 5 8 C5.99 8 6.98 8 8 8 C8 9.32 8 10.64 8 12 C5.03 11.67 2.06 11.34 -1 11 C-1 10.01 -1 9.02 -1 8 C-1.66 8 -2.32 8 -3 8 C-3 6.68 -3 5.36 -3 4 C-2.34 4 -1.68 4 -1 4 C-0.67 2.68 -0.34 1.36 0 0 Z " fill="#778CF8" transform="translate(5,51)"/>
<path d="M0 0 C0.721875 0.45375 1.44375 0.9075 2.1875 1.375 C0.2075 2.365 0.2075 2.365 -1.8125 3.375 C-1.8125 4.035 -1.8125 4.695 -1.8125 5.375 C-0.4925 6.035 0.8275 6.695 2.1875 7.375 C0.5375 8.035 -1.1125 8.695 -2.8125 9.375 C-3.1425 8.385 -3.4725 7.395 -3.8125 6.375 C-4.451875 6.230625 -5.09125 6.08625 -5.75 5.9375 C-6.430625 5.751875 -7.11125 5.56625 -7.8125 5.375 C-8.51401152 4.0596659 -9.17775925 2.72382408 -9.8125 1.375 C-11.84567007 -0.35925773 -11.84567007 -0.35925773 -13.8125 -1.625 C-7.77896487 -4.15066587 -5.45348932 -3.15090494 0 0 Z " fill="#E3E6F2" transform="translate(50.8125,40.625)"/>
<path d="M0 0 C0.33 0.66 0.66 1.32 1 2 C3.52733235 2.65555119 3.52733235 2.65555119 6 3 C6 3.99 6 4.98 6 6 C4.35 6 2.7 6 1 6 C0.7525 6.78375 0.505 7.5675 0.25 8.375 C-1 11 -1 11 -2.8125 12.4375 C-5.77293453 13.19875459 -7.32331467 12.33834267 -10 11 C-9.67 10.01 -9.34 9.02 -9 8 C-7.68 8 -6.36 8 -5 8 C-5 7.34 -5 6.68 -5 6 C-4.34 6 -3.68 6 -3 6 C-3 5.34 -3 4.68 -3 4 C-2.34 3.67 -1.68 3.34 -1 3 C-0.67 2.01 -0.34 1.02 0 0 Z " fill="#DBDFEC" transform="translate(42,44)"/>
<path d="M0 0 C0 1.32 0 2.64 0 4 C-2.30078125 5.921875 -2.30078125 5.921875 -5.3125 7.75 C-6.29863281 8.36359375 -7.28476563 8.9771875 -8.30078125 9.609375 C-11 11 -11 11 -14 11 C-13.62342801 8.3292356 -13.21955159 7.20604073 -11.22265625 5.33203125 C-10.50980469 4.83058594 -9.79695312 4.32914063 -9.0625 3.8125 C-8.35222656 3.30332031 -7.64195313 2.79414063 -6.91015625 2.26953125 C-4.25510899 0.50492929 -3.27458847 0 0 0 Z " fill="#CACED9" transform="translate(16,29)"/>
<path d="M0 0 C1.32 0 2.64 0 4 0 C3.69369024 2.83336529 3.37605841 4.56126519 1.5 6.75 C-2.1910574 8.5955287 -5.92080486 8.74722936 -10 9 C-9.67 7.68 -9.34 6.36 -9 5 C-7.8553125 5.0309375 -7.8553125 5.0309375 -6.6875 5.0625 C-3.89814214 5.12942841 -3.89814214 5.12942841 -1 4 C-0.26676204 1.98491642 -0.26676204 1.98491642 0 0 Z " fill="#686C7C" transform="translate(20,30)"/>
<path d="M0 0 C0 5.94 0 11.88 0 18 C-0.33 18 -0.66 18 -1 18 C-1 13.05 -1 8.1 -1 3 C-2.32 3 -3.64 3 -5 3 C-5 7.95 -5 12.9 -5 18 C-5.33 18 -5.66 18 -6 18 C-6 12.06 -6 6.12 -6 0 C-4 -1 -4 -1 0 0 Z " fill="#F47E95" transform="translate(64,19)"/>
<path d="M0 0 C-1.13622517 2.27245034 -2.28419042 4.48880752 -3.5625 6.6875 C-5.34451703 10.79388706 -5.71444181 14.5689247 -6 19 C-6.33 19 -6.66 19 -7 19 C-7.33 15.04 -7.66 11.08 -8 7 C-8.99 6.67 -9.98 6.34 -11 6 C-9.54550599 4.9944239 -8.08627557 3.99569565 -6.625 3 C-5.40683594 2.1646875 -5.40683594 2.1646875 -4.1640625 1.3125 C-2 0 -2 0 0 0 Z " fill="#F6F7F9" transform="translate(21,8)"/>
<path d="M0 0 C1.98 0 3.96 0 6 0 C6 5.94 6 11.88 6 18 C5.67 18 5.34 18 5 18 C5 13.05 5 8.1 5 3 C3.68 3 2.36 3 1 3 C1 7.95 1 12.9 1 18 C0.67 18 0.34 18 0 18 C0 12.06 0 6.12 0 0 Z " fill="#F4CE85" transform="translate(39,8)"/>
<path d="M0 0 C1.98 0.66 3.96 1.32 6 2 C5.67 3.98 5.34 5.96 5 8 C3.02 8 1.04 8 -1 8 C-1.33 8.99 -1.66 9.98 -2 11 C-2.66 10.67 -3.32 10.34 -4 10 C-3.67 8.68 -3.34 7.36 -3 6 C-2.360625 5.896875 -1.72125 5.79375 -1.0625 5.6875 C-0.381875 5.460625 0.29875 5.23375 1 5 C1.33 4.01 1.66 3.02 2 2 C1.34 2 0.68 2 0 2 C-0.33 2.99 -0.66 3.98 -1 5 C-1.33 4.01 -1.66 3.02 -2 2 C-1.34 1.34 -0.68 0.68 0 0 Z " fill="#BAAFA5" transform="translate(33,23)"/>
<path d="M0 0 C0.78375 0.04125 1.5675 0.0825 2.375 0.125 C2.375 1.445 2.375 2.765 2.375 4.125 C-2.575 6.6 -2.575 6.6 -7.625 9.125 C-7.625 5.125 -7.625 5.125 -6.25 3.5 C-5.445625 2.819375 -5.445625 2.819375 -4.625 2.125 C-2.625 0.125 -2.625 0.125 0 0 Z " fill="#E7EAF3" transform="translate(11.625,13.875)"/>
<path d="M0 0 C0.33 0.99 0.66 1.98 1 3 C-0.58133449 6.16266898 -2.38114512 8.63055987 -5 11 C-5.99 10.67 -6.98 10.34 -8 10 C-6.02677065 5.43041625 -4.07763771 2.86536704 0 0 Z " fill="#F95A6F" transform="translate(27,12)"/>
<path d="M0 0 C0.33 0.66 0.66 1.32 1 2 C3.52733235 2.65555119 3.52733235 2.65555119 6 3 C6 3.99 6 4.98 6 6 C4.35 6 2.7 6 1 6 C0.67 6.99 0.34 7.98 0 9 C-0.66 8.67 -1.32 8.34 -2 8 C-1.67 7.34 -1.34 6.68 -1 6 C-1.66 6 -2.32 6 -3 6 C-3 5.34 -3 4.68 -3 4 C-2.34 3.67 -1.68 3.34 -1 3 C-0.67 2.01 -0.34 1.02 0 0 Z " fill="#C4CBD2" transform="translate(42,44)"/>
<path d="M0 0 C0.66 0.33 1.32 0.66 2 1 C0.60344703 4.49873271 -0.71260484 5.70891831 -4.125 7.25 C-5.21167969 7.75273437 -5.21167969 7.75273437 -6.3203125 8.265625 C-7.15175781 8.62914062 -7.15175781 8.62914062 -8 9 C-8 8.34 -8 7.68 -8 7 C-8.66 6.67 -9.32 6.34 -10 6 C-8.3811004 4.96951963 -6.75467511 3.95085322 -5.125 2.9375 C-4.22007813 2.36902344 -3.31515625 1.80054688 -2.3828125 1.21484375 C-1.20332031 0.61349609 -1.20332031 0.61349609 0 0 Z " fill="#717584" transform="translate(13,8)"/>
<path d="M0 0 C1.66611905 -0.042721 3.33382885 -0.04063832 5 0 C6 1 6 1 6.09765625 4.81640625 C6.09098089 6.39846682 6.07901875 7.98051159 6.0625 9.5625 C6.05798828 10.36880859 6.05347656 11.17511719 6.04882812 12.00585938 C6.03700518 14.00393756 6.01906914 16.00197783 6 18 C5.67 18 5.34 18 5 18 C4.67 13.38 4.34 8.76 4 4 C2.68 3.67 1.36 3.34 0 3 C0 2.01 0 1.02 0 0 Z " fill="#96A4F7" transform="translate(52,15)"/>
<path d="M0 0 C-0.33 0.99 -0.66 1.98 -1 3 C-1.99 3 -2.98 3 -4 3 C-4.33 7.62 -4.66 12.24 -5 17 C-5.33 17 -5.66 17 -6 17 C-6 11.39 -6 5.78 -6 0 C-3.50907189 -1.24546405 -2.58919267 -0.7767578 0 0 Z " fill="#A8D9AB" transform="translate(51,12)"/>
<path d="M0 0 C0.86625 0.7734375 0.86625 0.7734375 1.75 1.5625 C-0.25 3.5625 -0.25 3.5625 -3.375 3.6875 C-4.798125 3.625625 -4.798125 3.625625 -6.25 3.5625 C-6.25 2.2425 -6.25 0.9225 -6.25 -0.4375 C-3.39943397 -1.55736523 -2.65876672 -1.69865651 0 0 Z " fill="#DFD0E0" transform="translate(55.25,43.4375)"/>
<path d="M0 0 C1.32 0.33 2.64 0.66 4 1 C3.814375 1.9075 3.62875 2.815 3.4375 3.75 C3.04265379 6.68314324 3.05308428 8.2644657 4 11 C2.5 9.625 2.5 9.625 1 8 C1 7.34 1 6.68 1 6 C-0.98 5.34 -2.96 4.68 -5 4 C-2 3 -2 3 1 4 C1.33 3.34 1.66 2.68 2 2 C1.34 2 0.68 2 0 2 C0 1.34 0 0.68 0 0 Z " fill="#9EBBCD" transform="translate(39,27)"/>
<path d="M0 0 C1.65 0 3.3 0 5 0 C5 0.66 5 1.32 5 2 C5.66 2.33 6.32 2.66 7 3 C4.1875 3.625 4.1875 3.625 1 4 C0.01 3.34 -0.98 2.68 -2 2 C-1.34 2 -0.68 2 0 2 C0 1.34 0 0.68 0 0 Z " fill="#8AA1FB" transform="translate(9,50)"/>
<path d="M0 0 C2.64 0.33 5.28 0.66 8 1 C7.34 1.66 6.68 2.32 6 3 C3.375 2.625 3.375 2.625 1 2 C1.66 3.32 2.32 4.64 3 6 C1.68 5.34 0.36 4.68 -1 4 C-0.67 2.68 -0.34 1.36 0 0 Z " fill="#99B4F5" transform="translate(26,27)"/>
<path d="M0 0 C1.65 0.33 3.3 0.66 5 1 C4.67 1.99 4.34 2.98 4 4 C2.35 3.67 0.7 3.34 -1 3 C-0.67 2.01 -0.34 1.02 0 0 Z " fill="#D29FB5" transform="translate(33,52)"/>
<path d="M0 0 C1.98 0.66 3.96 1.32 6 2 C6 2.66 6 3.32 6 4 C5.01 4.33 4.02 4.66 3 5 C2.67 4.01 2.34 3.02 2 2 C1.34 2 0.68 2 0 2 C-0.33 2.99 -0.66 3.98 -1 5 C-1.33 4.01 -1.66 3.02 -2 2 C-1.34 1.34 -0.68 0.68 0 0 Z " fill="#EF8A9F" transform="translate(33,23)"/>
<path d="M0 0 C0.33 0 0.66 0 1 0 C1 1.98 1 3.96 1 6 C-0.98 6.99 -2.96 7.98 -5 9 C-3.50164236 5.88802644 -1.86022073 2.91164984 0 0 Z " fill="#F6EBEA" transform="translate(27,15)"/>
<path d="M0 0 C0.99 0 1.98 0 3 0 C2.40138258 2.35171131 1.73075648 4.6859378 1 7 C0.01 7.495 0.01 7.495 -1 8 C-1.04241723 5.66705225 -1.04092937 3.33297433 -1 1 C-0.67 0.67 -0.34 0.34 0 0 Z " fill="#A7D5AA" transform="translate(23,8)"/>
<path d="M0 0 C1.65 0.33 3.3 0.66 5 1 C4.67 1.99 4.34 2.98 4 4 C2.35 3.67 0.7 3.34 -1 3 C-0.67 2.01 -0.34 1.02 0 0 Z " fill="#E3E4F0" transform="translate(32,32)"/>
<path d="M0 0 C1 3 1 3 0 6 C-1.32 5.67 -2.64 5.34 -4 5 C-2.25 1.125 -2.25 1.125 0 0 Z " fill="#F5BD64" transform="translate(27,12)"/>
<path d="M0 0 C1.98 0.99 1.98 0.99 4 2 C3.34 3.32 2.68 4.64 2 6 C3.32 6.33 4.64 6.66 6 7 C4.35 7 2.7 7 1 7 C0.67 4.69 0.34 2.38 0 0 Z " fill="#BCC8A2" transform="translate(25,32)"/>
<path d="M0 0 C0 1.65 0 3.3 0 5 C-2.97 4.505 -2.97 4.505 -6 4 C-2.25 0 -2.25 0 0 0 Z " fill="#F4F6F7" transform="translate(28,4)"/>
<path d="M0 0 C1.98 0.495 1.98 0.495 4 1 C4 1.99 4 2.98 4 4 C2.35 3.67 0.7 3.34 -1 3 C-0.67 2.01 -0.34 1.02 0 0 Z " fill="#D8DAAD" transform="translate(44,46)"/>
<path d="M0 0 C1.65 0 3.3 0 5 0 C4.67 1.32 4.34 2.64 4 4 C2.68 3.67 1.36 3.34 0 3 C0 2.01 0 1.02 0 0 Z " fill="#8397FC" transform="translate(52,15)"/>
</svg>
