<?xml version="1.0" encoding="UTF-8"?>
<svg version="1.1" xmlns="http://www.w3.org/2000/svg" width="128" height="128">
<path d="M0 0 C2.97 0 5.94 0 9 0 C9 1.98 9 3.96 9 6 C20.22 6 31.44 6 43 6 C43 4.35 43 2.7 43 1 C44 -0 44 -0 46.06640625 -0.09765625 C47.30197266 -0.08025391 47.30197266 -0.08025391 48.5625 -0.0625 C49.38878906 -0.05347656 50.21507812 -0.04445312 51.06640625 -0.03515625 C51.70449219 -0.02355469 52.34257813 -0.01195312 53 0 C52.95618895 11.12800699 49.40692326 19.78471624 41.64599609 27.75390625 C39.4754073 29.88895732 37.25871942 31.95831056 35 34 C36.46474732 36.7022252 36.46474732 36.7022252 39 39 C41.83433942 38.98451181 43.9645091 38.75543539 46.6875 38.1875 C54.28006295 36.90647502 60.24714741 36.49809828 67 41 C67.33 40.67 67.66 40.34 68 40 C70.35313555 39.92728259 72.70833668 39.91629132 75.0625 39.9375 C76.99802734 39.95103516 76.99802734 39.95103516 78.97265625 39.96484375 C79.97167969 39.97644531 80.97070312 39.98804688 82 40 C82.87191947 41.38481328 83.72190384 42.78345246 84.5625 44.1875 C85.03816406 44.96480469 85.51382813 45.74210937 86.00390625 46.54296875 C87.226692 49.55917359 86.98328843 50.93214011 86 54 C84.82017501 56.44967679 83.41573443 58.67088852 82 61 C81.01 61 80.02 61 79 61 C79.19464844 61.53625 79.38929687 62.0725 79.58984375 62.625 C80.13110581 65.7591651 79.42057501 67.94906664 78.5625 71 C77.5570875 74.60686098 77 77.21730047 77 81 C78.8702876 83.28590707 80.59687354 84.77900032 83.1875 86.19921875 C86.99799061 88.63899121 90.08342743 91.59741422 93.3125 94.75 C93.95767578 95.34554687 94.60285156 95.94109375 95.26757812 96.5546875 C98.51241651 99.72741836 99.88512041 101.20797804 100.5546875 105.82421875 C100 109 100 109 97.8125 111.0625 C94.26348897 112.24550368 93.28855454 111.63943335 90 110 C87.99536133 108.36767578 87.99536133 108.36767578 86.08203125 106.4453125 C85.38529297 105.74792969 84.68855469 105.05054687 83.97070312 104.33203125 C83.25849609 103.60371094 82.54628906 102.87539062 81.8125 102.125 C81.08869141 101.40441406 80.36488281 100.68382813 79.61914062 99.94140625 C76.45631108 96.74621287 73.92570816 94.08606368 72 90 C70.4587688 88.29078411 70.4587688 88.29078411 69 87 C68.360625 87.28875 67.72125 87.5775 67.0625 87.875 C59.39088721 90.69314347 53.07891571 91.25763155 45 90 C43.205625 89.7215625 43.205625 89.7215625 41.375 89.4375 C40.199375 89.2209375 40.199375 89.2209375 39 89 C37.68 90.65 36.36 92.3 35 94 C35.72445312 94.65484375 36.44890625 95.3096875 37.1953125 95.984375 C46.36213874 104.52698252 52.44262999 113.04606768 52.9921875 126.015625 C52.99605469 126.99789062 52.99605469 126.99789062 53 128 C51.52093108 128.02689216 50.04172517 128.04634621 48.5625 128.0625 C47.73878906 128.07410156 46.91507813 128.08570313 46.06640625 128.09765625 C44 128 44 128 43 127 C43 125.35 43 123.7 43 122 C31.78 122 20.56 122 9 122 C9 123.98 9 125.96 9 128 C6.03 128 3.06 128 0 128 C-0.67468687 117.54235349 2.50648156 110.10668481 9.1171875 102.05078125 C11.867278 99.05535072 14.8195065 96.5314132 18 94 C17.113125 93.030625 16.22625 92.06125 15.3125 91.0625 C8.5922127 83.21422122 4.60004074 74.68047346 4.625 64.25 C4.62661133 63.54697754 4.62822266 62.84395508 4.62988281 62.11962891 C4.8984344 50.64826338 10.74529183 42.4638262 18 34 C17.41992188 33.52691406 16.83984375 33.05382813 16.2421875 32.56640625 C8.76272555 26.23478252 2.17959267 18.83611049 0 9 C-0.21454521 5.94869037 -0.14369519 3.06549744 0 0 Z M11 11 C11.66 12.32 12.32 13.64 13 15 C21.58 15 30.16 15 39 15 C39.66 13.68 40.32 12.36 41 11 C31.1 11 21.2 11 11 11 Z M18 20 C21.99552934 25.31634334 21.99552934 25.31634334 27 28 C28.33627775 26.85760183 29.66895388 25.71098945 31 24.5625 C31.7425 23.92441406 32.485 23.28632813 33.25 22.62890625 C34.11625 21.82259766 34.11625 21.82259766 35 21 C35 20.67 35 20.34 35 20 C29.39 20 23.78 20 18 20 Z M25 41 C21.71716285 44.11565063 21.71716285 44.11565063 20 48 C23.96 48 27.92 48 32 48 C30.00656233 43.98834738 30.00656233 43.98834738 27 41 C26.34 41 25.68 41 25 41 Z M16 53 C15.67 54.32 15.34 55.64 15 57 C18.96 57 22.92 57 27 57 C27.33 55.68 27.66 54.36 28 53 C24.04 53 20.08 53 16 53 Z M14 62 C14 63.32 14 64.64 14 66 C17.96 66 21.92 66 26 66 C26 64.68 26 63.36 26 62 C22.04 62 18.08 62 14 62 Z M15 71 C15.33 72.32 15.66 73.64 16 75 C19.96 75 23.92 75 28 75 C27.67 73.68 27.34 72.36 27 71 C23.04 71 19.08 71 15 71 Z M20 80 C22.69968287 84.90295149 22.69968287 84.90295149 27 87 C28.70884005 85.37660195 30.37446717 83.70680947 32 82 C32 81.34 32 80.68 32 80 C28.04 80 24.08 80 20 80 Z M26 100 C24.66372225 101.14239817 23.33104612 102.28901055 22 103.4375 C21.2575 104.07558594 20.515 104.71367188 19.75 105.37109375 C19.1725 105.90863281 18.595 106.44617188 18 107 C18 107.33 18 107.66 18 108 C23.61 108 29.22 108 35 108 C30.68311598 103.67101934 30.68311598 103.67101934 26 100 Z M13 113 C12.34 114.32 11.68 115.64 11 117 C20.9 117 30.8 117 41 117 C40.34 115.68 39.68 114.36 39 113 C30.42 113 21.84 113 13 113 Z " fill="#6D60B5" transform="translate(14,0)"/>
<path d="M0 0 C2.9375 1.625 2.9375 1.625 3.9375 3.625 C3.75574219 4.23988281 3.57398438 4.85476562 3.38671875 5.48828125 C2.80232168 8.2679786 3.37336045 9.35849036 4.75 11.8125 C6.50771641 14.50400326 7.3782777 15.4638826 10.5 16.36328125 C13.00429466 16.60161611 15.42424095 16.70308183 17.9375 16.625 C19.28668701 20.34196553 18.55283885 22.88157299 17.5 26.625 C16.4945875 30.23186098 15.9375 32.84230047 15.9375 36.625 C17.8077876 38.91090707 19.53437354 40.40400032 22.125 41.82421875 C25.93549061 44.26399121 29.02092743 47.22241422 32.25 50.375 C32.89517578 50.97054687 33.54035156 51.56609375 34.20507812 52.1796875 C37.44991651 55.35241836 38.82262041 56.83297804 39.4921875 61.44921875 C38.9375 64.625 38.9375 64.625 36.75 66.6875 C33.20098897 67.87050368 32.22605454 67.26443335 28.9375 65.625 C26.93286133 63.99267578 26.93286133 63.99267578 25.01953125 62.0703125 C24.32279297 61.37292969 23.62605469 60.67554688 22.90820312 59.95703125 C22.19599609 59.22871094 21.48378906 58.50039062 20.75 57.75 C20.02619141 57.02941406 19.30238281 56.30882812 18.55664062 55.56640625 C15.39381108 52.37121287 12.86320816 49.71106368 10.9375 45.625 C9.3962688 43.91578411 9.3962688 43.91578411 7.9375 42.625 C7.256875 42.934375 6.57625 43.24375 5.875 43.5625 C-1.25057193 46.13983453 -6.26336619 45.61609181 -13.0625 42.625 C-14.0525 41.965 -15.0425 41.305 -16.0625 40.625 C-16.0625 39.965 -16.0625 39.305 -16.0625 38.625 C-17.114375 38.3465625 -17.114375 38.3465625 -18.1875 38.0625 C-22.85943955 35.72653022 -25.96531913 31.91639134 -28.2109375 27.2265625 C-29.90085418 22.06378952 -30.15843761 16.41423176 -28.15234375 11.30859375 C-22.03190621 0.9373057 -11.78256898 -4.79579771 0 0 Z " fill="#CCE6FD" transform="translate(75.0625,44.375)"/>
<path d="M0 0 C2.97 0 5.94 0 9 0 C9 1.98 9 3.96 9 6 C20.22 6 31.44 6 43 6 C43 4.35 43 2.7 43 1 C44 -0 44 -0 46.06640625 -0.09765625 C47.30197266 -0.08025391 47.30197266 -0.08025391 48.5625 -0.0625 C49.38878906 -0.05347656 50.21507812 -0.04445312 51.06640625 -0.03515625 C51.70449219 -0.02355469 52.34257813 -0.01195312 53 0 C52.95618895 11.12800699 49.40692326 19.78471624 41.64599609 27.75390625 C39.4754073 29.88895732 37.25871942 31.95831056 35 34 C35.65742187 34.78246094 36.31484375 35.56492188 36.9921875 36.37109375 C39 39 39 39 39.125 41.0625 C37.415661 44.00636161 34.87546835 45.28695503 32 47 C29.525 44.525 29.525 44.525 27 42 C21.3177306 44.41065974 18.3149226 49.3701548 15.625 54.75 C13.95499759 63.43401254 14.1406881 71.42395465 19 79 C21.19708565 81.80869408 23.51776679 84.44106858 26 87 C24.3327868 90.77070649 22.66521894 92.0709374 19 94 C11.12450933 87.00390655 5.48522123 79.20672839 4.76171875 68.4609375 C4.37351779 54.04456531 8.60309501 44.96305582 18 34 C17.41992188 33.52691406 16.83984375 33.05382813 16.2421875 32.56640625 C8.76272555 26.23478252 2.17959267 18.83611049 0 9 C-0.21454521 5.94869037 -0.14369519 3.06549744 0 0 Z M11 11 C11.66 12.32 12.32 13.64 13 15 C21.58 15 30.16 15 39 15 C39.66 13.68 40.32 12.36 41 11 C31.1 11 21.2 11 11 11 Z M18 20 C21.99552934 25.31634334 21.99552934 25.31634334 27 28 C28.33627775 26.85760183 29.66895388 25.71098945 31 24.5625 C31.7425 23.92441406 32.485 23.28632813 33.25 22.62890625 C34.11625 21.82259766 34.11625 21.82259766 35 21 C35 20.67 35 20.34 35 20 C29.39 20 23.78 20 18 20 Z " fill="#6E60B5" transform="translate(14,0)"/>
<path d="M0 0 C0.33 -0.33 0.66 -0.66 1 -1 C3.35313555 -1.07271741 5.70833668 -1.08370868 8.0625 -1.0625 C9.35285156 -1.05347656 10.64320312 -1.04445312 11.97265625 -1.03515625 C12.97167969 -1.02355469 13.97070312 -1.01195312 15 -1 C15.87191947 0.38481328 16.72190384 1.78345246 17.5625 3.1875 C18.03816406 3.96480469 18.51382813 4.74210937 19.00390625 5.54296875 C20.226692 8.55917359 19.98328843 9.93214011 19 13 C17.82017501 15.44967679 16.41573443 17.67088852 15 20 C10.55110886 20.53465902 6.42858439 20.77657641 2 20 C-1.06534256 17.49199245 -2.83352002 14.78204075 -4 11 C-3.6328125 8.19921875 -3.6328125 8.19921875 -3 6 C-8.65294617 3.05063678 -13.63076719 1.93347745 -20 3 C-26.5533514 5.73149981 -31.22733178 10.45603305 -34 17 C-34.94016558 24.04030973 -34.29927039 30.21957853 -30 36 C-27.60018456 38.45491325 -25.08936203 40.45531898 -22 42 C-22 42.66 -22 43.32 -22 44 C-18.07561214 45.66489182 -14.10899581 46.87204037 -10 48 C-12 50 -12 50 -14.171875 50.046875 C-22.20669515 49.12165329 -27.38174268 48.24250814 -33 42 C-36.25507831 38.74492169 -40.49576213 39.70117887 -44.93359375 39.63671875 C-45.94550781 39.42660156 -46.95742188 39.21648437 -48 39 C-48.99 37.35 -49.98 35.7 -51 34 C-47.04 34 -43.08 34 -39 34 C-39.495 32.515 -39.495 32.515 -40 31 C-43.96 30.67 -47.92 30.34 -52 30 C-52.33 28.35 -52.66 26.7 -53 25 C-49.04 25 -45.08 25 -41 25 C-41 23.68 -41 22.36 -41 21 C-44.96 21 -48.92 21 -53 21 C-52.67 19.35 -52.34 17.7 -52 16 C-48.04 15.67 -44.08 15.34 -40 15 C-39.67 14.01 -39.34 13.02 -39 12 C-42.96 12 -46.92 12 -51 12 C-50.01 10.35 -49.02 8.7 -48 7 C-45.07421875 6.46875 -45.07421875 6.46875 -41.6875 6.5 C-36.00349375 6.34514823 -36.00349375 6.34514823 -31.25 3.5625 C-29.00828183 1.22830517 -29.00828183 1.22830517 -28 -1 C-18.39440559 -4.59220746 -8.99996651 -5.44734815 0 0 Z " fill="#0684FA" transform="translate(81,41)"/>
<path d="M0 0 C1.65 0 3.3 0 5 0 C6.34918701 3.71696553 5.61533885 6.25657299 4.5625 10 C3.5570875 13.60686098 3 16.21730047 3 20 C4.8702876 22.28590707 6.59687354 23.77900032 9.1875 25.19921875 C12.99799061 27.63899121 16.08342743 30.59741422 19.3125 33.75 C19.95767578 34.34554687 20.60285156 34.94109375 21.26757812 35.5546875 C24.51241651 38.72741836 25.88512041 40.20797804 26.5546875 44.82421875 C26 48 26 48 23.8125 50.0625 C20.26348897 51.24550368 19.28855454 50.63943335 16 49 C13.99536133 47.36767578 13.99536133 47.36767578 12.08203125 45.4453125 C11.38529297 44.74792969 10.68855469 44.05054688 9.97070312 43.33203125 C9.25849609 42.60371094 8.54628906 41.87539062 7.8125 41.125 C7.08869141 40.40441406 6.36488281 39.68382812 5.61914062 38.94140625 C2.45631108 35.74621287 -0.07429184 33.08606368 -2 29 C-3.5412312 27.29078411 -3.5412312 27.29078411 -5 26 C-6.0209375 26.4640625 -6.0209375 26.4640625 -7.0625 26.9375 C-13.37716278 29.22152696 -17.74643083 29.12185237 -23.984375 26.984375 C-26.12847843 25.93725472 -27.4250381 24.77432417 -29 23 C-28.154375 23.04640625 -27.30875 23.0928125 -26.4375 23.140625 C-18.47195236 23.39407424 -12.46713656 23.18078165 -6.4765625 17.57421875 C-1.62202736 12.14443523 -0.70987749 6.98046202 0 0 Z " fill="#0385FC" transform="translate(88,61)"/>
<path d="M0 0 C3.465 2.475 3.465 2.475 7 5 C5.55214633 8.19975662 3.73544296 10.67541846 1.5 13.375 C-4.0926172 20.54889774 -4.91536734 27.02013055 -4 36 C-2.17923656 42.96687328 2.06892939 47.91656484 7 53 C5.3327868 56.77070649 3.66521894 58.0709374 0 60 C-7.87549067 53.00390655 -13.51477877 45.20672839 -14.23828125 34.4609375 C-14.55327955 22.76304623 -12.74754265 13.21289042 -4.4140625 4.3046875 C-2.96762979 2.84467327 -1.48663364 1.41905939 0 0 Z " fill="#FC643B" transform="translate(33,34)"/>
<path d="M0 0 C5.28040482 9.12284225 5.19910878 18.19956058 2.5625 28.25 C1.20206186 32.79793814 1.20206186 32.79793814 0 34 C-3.4375 34.1875 -3.4375 34.1875 -7 34 C-7.66 33.34 -8.32 32.68 -9 32 C-7.68 29.36 -6.36 26.72 -5 24 C-9.29 24 -13.58 24 -18 24 C-18.33 22.68 -18.66 21.36 -19 20 C-14.38 20 -9.76 20 -5 20 C-5 18.02 -5 16.04 -5 14 C-9.62 14 -14.24 14 -19 14 C-18.67 12.68 -18.34 11.36 -18 10 C-13.71 10 -9.42 10 -5 10 C-6.32 7.03 -7.64 4.06 -9 1 C-6.04335481 -0.4783226 -3.25770263 -0.06032783 0 0 Z " fill="#6F68B9" transform="translate(69,47)"/>
<path d="M0 0 C4.62 0 9.24 0 14 0 C19.06212477 8.27225268 19.06212477 8.27225268 18.78125 11.5625 C17.65334105 15.08157592 15.91753695 17.84534244 14 21 C9.55089965 21.53468417 5.42955339 21.77058503 1 21 C-2.1754388 18.49134869 -3.77648609 15.84082458 -5 12 C-4.5625 8.8125 -4.5625 8.8125 -3 6 C-2.01 4.02 -1.02 2.04 0 0 Z " fill="#FD643A" transform="translate(82,40)"/>
<path d="M0 0 C1.23556641 0.01740234 1.23556641 0.01740234 2.49609375 0.03515625 C3.32238281 0.04417969 4.14867188 0.05320313 5 0.0625 C5.63808594 0.07410156 6.27617188 0.08570313 6.93359375 0.09765625 C6.8795176 13.83299788 0.87189657 22.81927653 -8.48046875 32.2109375 C-11.06640625 34.09765625 -11.06640625 34.09765625 -13.23046875 34.05078125 C-16.03992525 32.5922549 -17.93762339 30.40383768 -20.06640625 28.09765625 C-13.66166004 21.5267927 -13.66166004 21.5267927 -10.37890625 19.16015625 C-4.88107119 14.25668174 -3.68598839 8.1608927 -3.06640625 1.09765625 C-2.06640625 0.09765625 -2.06640625 0.09765625 0 0 Z " fill="#FD643B" transform="translate(60.06640625,-0.09765625)"/>
<path d="M0 0 C6.13350597 0.58609057 10.29880985 6.60520099 14 11 C18.8711113 18.36035656 20.96533032 25.19390252 21 34 C19.52093108 34.02689216 18.04172517 34.04634621 16.5625 34.0625 C15.32693359 34.07990234 15.32693359 34.07990234 14.06640625 34.09765625 C12 34 12 34 11 33 C10.91970032 31.66762018 10.86113218 30.33391114 10.8125 29 C9.69899036 18.65091044 1.5479641 12.30985931 -6 6 C-4 4 -2 2 0 0 Z " fill="#FD643B" transform="translate(46,94)"/>
<path d="M0 0 C1.65 0 3.3 0 5 0 C6.34918701 3.71696553 5.61533885 6.25657299 4.5625 10 C3.5570875 13.60686098 3 16.21730047 3 20 C4.91666921 22.25065102 4.91666921 22.25065102 7 24 C5.70700306 26.88437779 4.34058637 28.87219421 2 31 C-0.88437779 29.70700306 -2.87219421 28.34058637 -5 26 C-6.0209375 26.4640625 -6.0209375 26.4640625 -7.0625 26.9375 C-13.37716278 29.22152696 -17.74643083 29.12185237 -23.984375 26.984375 C-26.12847843 25.93725472 -27.4250381 24.77432417 -29 23 C-28.154375 23.04640625 -27.30875 23.0928125 -26.4375 23.140625 C-18.47195236 23.39407424 -12.46713656 23.18078165 -6.4765625 17.57421875 C-1.62202736 12.14443523 -0.70987749 6.98046202 0 0 Z " fill="#1F9FFD" transform="translate(88,61)"/>
<path d="M0 0 C2.625 -0.0625 2.625 -0.0625 6 1 C8.35660501 3.79175749 10.12466392 6.87443986 12 10 C12.54398438 10.67804687 13.08796875 11.35609375 13.6484375 12.0546875 C15.82271138 15.18413372 15.59561302 18.38571188 15 22 C13.24192093 27.0858716 10.05828204 30.13943125 5.78125 33.25 C3.49285026 34.21353673 2.29775821 33.80623095 0 33 C0.2165625 32.35675781 0.433125 31.71351562 0.65625 31.05078125 C3.98404648 20.25084914 4.28207522 10.52676824 0 0 Z " fill="#8BC8FC" transform="translate(69,47)"/>
<path d="M0 0 C2.70104973 -0.06011238 5.10487279 -0.02582728 7.7578125 0.50390625 C10.4453125 3.19140625 10.4453125 3.19140625 11.7578125 6.50390625 C11.6953125 9.06640625 11.6953125 9.06640625 10.7578125 11.50390625 C10.4484375 12.43203125 10.1390625 13.36015625 9.8203125 14.31640625 C7.7578125 16.50390625 7.7578125 16.50390625 5.3359375 16.81640625 C2.79150365 16.81640625 0.29266203 16.71791794 -2.2421875 16.50390625 C-3.85535593 14.13159974 -5.20263233 12.145225 -6.2421875 9.50390625 C-5.48038505 5.54253353 -4.332449 0.97366885 0 0 Z " fill="#57499E" transform="translate(75.2421875,96.49609375)"/>
<path d="M0 0 C2.82768151 0.80650394 3.81564131 1.79203126 5.55859375 4.140625 C6.97130678 6.81332533 7.4104379 8.00054777 6.65234375 10.953125 C5.64250616 12.97280017 4.55899482 14.80549191 3.24609375 16.640625 C-0.46221427 16.92394225 -4.05305492 17.06575961 -7.75390625 16.640625 C-10.00390625 14.578125 -10.00390625 14.578125 -10.75390625 11.640625 C-10.63040071 8.12071706 -10.0872267 5.45309359 -8.75390625 2.203125 C-5.90541095 -0.02226195 -3.56315216 -0.16382309 0 0 Z " fill="#56489F" transform="translate(81.75390625,13.359375)"/>
<path d="M0 0 C10.23 0 20.46 0 31 0 C31.495 2.475 31.495 2.475 32 5 C20.78 5 9.56 5 -2 5 C-1.34 3.35 -0.68 1.7 0 0 Z " fill="#473B83" transform="translate(25,117)"/>
<path d="M0 0 C11.22 0 22.44 0 34 0 C33.67 1.65 33.34 3.3 33 5 C22.77 5 12.54 5 2 5 C1.34 3.35 0.68 1.7 0 0 Z " fill="#463B84" transform="translate(23,6)"/>
<path d="M0 0 C2.36473639 1.97061366 4.69008931 3.96641508 7 6 C7.74121094 6.63808594 8.48242188 7.27617188 9.24609375 7.93359375 C14.82955832 13.03932873 14.82955832 13.03932873 15.6875 17.875 C15 21 15 21 12 23 C11.59910156 22.52691406 11.19820312 22.05382812 10.78515625 21.56640625 C6.10160893 16.11819815 1.13114726 11.02642997 -4 6 C-2.68 4.02 -1.36 2.04 0 0 Z " fill="#1D9DFC" transform="translate(99,88)"/>
<path d="M0 0 C2.31 0 4.62 0 7 0 C5.94124926 3.40312738 4.99097846 6.01353231 3 9 C3.31625221 13.00586131 4.9093779 15.63682532 7 19 C7 19.66 7 20.32 7 21 C4.375 21.5625 4.375 21.5625 1 21 C-1.68983437 18.32763209 -3.52716087 15.49011295 -5 12 C-4.5625 8.8125 -4.5625 8.8125 -3 6 C-2.46375 4.88625 -1.9275 3.7725 -1.375 2.625 C-0.92125 1.75875 -0.4675 0.8925 0 0 Z " fill="#ED4728" transform="translate(82,40)"/>
<path d="M0 0 C0.87205078 -0.020625 1.74410156 -0.04125 2.64257812 -0.0625 C3.48111328 -0.06765625 4.31964844 -0.0728125 5.18359375 -0.078125 C6.33492798 -0.09214355 6.33492798 -0.09214355 7.50952148 -0.10644531 C10.09462237 0.34238895 10.98709814 1.18877343 12.5625 3.25 C12.5625 3.91 12.5625 4.57 12.5625 5.25 C3.9825 5.25 -4.5975 5.25 -13.4375 5.25 C-10.22357637 -1.17784726 -6.55154231 0.03856684 0 0 Z " fill="#463B83" transform="translate(40.4375,107.75)"/>
<path d="M0 0 C8.58 0 17.16 0 26 0 C24 4 24 4 23 5 C19.90535007 5.30529612 16.79536417 5.27834765 13.6875 5.3125 C12.81931641 5.34150391 11.95113281 5.37050781 11.05664062 5.40039062 C4.61857008 5.4646231 4.61857008 5.4646231 1.39453125 3.04296875 C0 1 0 1 0 0 Z " fill="#463B83" transform="translate(27,15)"/>
<path d="M0 0 C1.8125 0.1875 1.8125 0.1875 4 1 C6.10723431 3.61587708 7.04450078 5.10998431 6.875 8.5 C5.88524492 11.32787166 4.7892334 13.59141657 3 16 C2.01 16 1.02 16 0 16 C-1.61316843 13.62769349 -2.96044483 11.64131875 -4 9 C-3.28307503 5.27199015 -2.10488967 3.15733451 0 0 Z " fill="#6C5FB6" transform="translate(80,97)"/>
<path d="M0 0 C3.33085751 1.0337144 4.1036435 2.16518182 6 5.1875 C7.05927303 9.22597842 7.11425123 9.58781235 5.1875 12.9375 C4.465625 13.948125 3.74375 14.95875 3 16 C1.68 16 0.36 16 -1 16 C-4.03780378 10.7749775 -4.03780378 10.7749775 -3.875 7.4375 C-2.89365378 4.70374982 -1.59258725 2.42350233 0 0 Z " fill="#6C5FB6" transform="translate(82,14)"/>
<path d="M0 0 C2.31 1.98 4.62 3.96 7 6 C5.38262276 9.23475448 4.52370777 10.70572021 2 13 C-1.7952131 11.50902342 -3.61042731 9.24299151 -6 6 C-4.02 4.02 -2.04 2.04 0 0 Z " fill="#AFD8FE" transform="translate(88,79)"/>
<path d="M0 0 C2.4375 2.0625 2.4375 2.0625 4 4 C2.68 5.32 1.36 6.64 0 8 C-0.94875 7.525625 -1.8975 7.05125 -2.875 6.5625 C-7.4465467 4.57242218 -12.06888627 4.28773098 -17 4 C-12.35108631 -1.09700176 -6.5057194 -1.71849192 0 0 Z " fill="#219EFB" transform="translate(78,39)"/>
<path d="M0 0 C4.62 0 9.24 0 14 0 C14 1.98 14 3.96 14 6 C9.38 6 4.76 6 0 6 C0 4.02 0 2.04 0 0 Z " fill="#8AC9FE" transform="translate(50,61)"/>
<path d="M0 0 C4.29 0 8.58 0 13 0 C10.75 6.75 10.75 6.75 8 9 C6.84775972 8.07038578 5.70340824 7.1309875 4.5625 6.1875 C3.60537109 5.40439453 3.60537109 5.40439453 2.62890625 4.60546875 C1 3 1 3 0 0 Z " fill="#88C1F6" transform="translate(51,71)"/>
<path d="M0 0 C3.43015461 2.80649013 3.4009765 4.20292951 5 9 C0.71 9 -3.58 9 -8 9 C-5.39056587 4.65094312 -3.91131361 2.85420182 0 0 Z " fill="#88C1F6" transform="translate(59,48)"/>
<path d="M0 0 C4.29 0 8.58 0 13 0 C13.66 1.65 14.32 3.3 15 5 C13.06440687 5.13504138 11.126128 5.23201129 9.1875 5.3125 C7.56908203 5.39951172 7.56908203 5.39951172 5.91796875 5.48828125 C4.95503906 5.32714844 3.99210937 5.16601562 3 5 C2.01 3.35 1.02 1.7 0 0 Z " fill="#473B83" transform="translate(30,75)"/>
<path d="M0 0 C4.29 0 8.58 0 13 0 C13 1.65 13 3.3 13 5 C9.04 5 5.08 5 1 5 C0.67 3.35 0.34 1.7 0 0 Z " fill="#463B84" transform="translate(28,66)"/>
<path d="M0 0 C3.96 0 7.92 0 12 0 C12 1.65 12 3.3 12 5 C7.71 5 3.42 5 -1 5 C-0.67 3.35 -0.34 1.7 0 0 Z " fill="#463B84" transform="translate(29,57)"/>
<path d="M0 0 C2.91796875 -0.48828125 2.91796875 -0.48828125 6.1875 -0.3125 C7.27417969 -0.26738281 8.36085938 -0.22226562 9.48046875 -0.17578125 C10.31191406 -0.11777344 11.14335938 -0.05976562 12 0 C11.34 1.65 10.68 3.3 10 5 C5.71 5 1.42 5 -3 5 C-2.01 3.35 -1.02 1.7 0 0 Z " fill="#473B83" transform="translate(33,48)"/>
<path d="M0 0 C4.29 0 8.58 0 13 0 C13 0.99 13 1.98 13 3 C8.71 3 4.42 3 0 3 C0 2.01 0 1.02 0 0 Z " fill="#463B84" transform="translate(51,68)"/>
<path d="M0 0 C4.29 0 8.58 0 13 0 C13 0.99 13 1.98 13 3 C8.71 3 4.42 3 0 3 C0 2.01 0 1.02 0 0 Z " fill="#463B84" transform="translate(51,57)"/>
</svg>
