<?xml version="1.0" encoding="UTF-8"?>
<svg version="1.1" xmlns="http://www.w3.org/2000/svg" width="128" height="128">
<path d="M0 0 C1.3948613 0.00303635 1.3948613 0.00303635 2.81790161 0.00613403 C4.2787468 0.00350555 4.2787468 0.00350555 5.769104 0.00082397 C9.0054398 -0.00359642 12.24172146 -0.00065589 15.47805786 0.00271606 C17.71625784 0.00204308 19.95445774 0.0010731 22.19265747 -0.00018311 C26.89033705 -0.00166033 31.58799766 0.00049528 36.28567505 0.00515747 C42.322164 0.01085477 48.3586085 0.0075759 54.39509583 0.00158501 C59.01887347 -0.00201993 63.6426405 -0.00088233 68.26641846 0.0017128 C70.49287928 0.00238225 72.71934106 0.001553 74.94580078 -0.00076675 C78.05163141 -0.00329218 81.15738896 0.00054576 84.26321411 0.00613403 C85.19312164 0.0041098 86.12302917 0.00208557 87.08111572 0 C93.4262956 0.0212663 93.4262956 0.0212663 94.54055786 1.13552856 C94.64019706 3.36940062 94.66855581 5.60646715 94.66995239 7.84255981 C94.67258087 8.89375504 94.67258087 8.89375504 94.67526245 9.96618652 C94.67968052 12.29349205 94.67674315 14.6207222 94.67337036 16.94802856 C94.67404341 18.55846166 94.67501345 20.16889465 94.67626953 21.77932739 C94.67774644 25.15881312 94.67559217 28.53827246 94.67092896 31.91775513 C94.66523167 36.25929362 94.66851071 40.6007703 94.67450142 44.94230652 C94.67810722 48.26903757 94.67696836 51.59575386 94.67437363 54.92248535 C94.67370441 56.52374275 94.6745326 58.12500147 94.67685318 59.72625732 C94.67938002 61.96037367 94.67553871 64.19438856 94.66995239 66.42849731 C94.6691568 67.70233276 94.66836121 68.97616821 94.6675415 70.28860474 C94.54055786 73.13552856 94.54055786 73.13552856 93.54055786 74.13552856 C90.71015114 74.23073762 87.90420794 74.26106487 85.07351685 74.24905396 C84.1857959 74.24919998 83.29807495 74.24934601 82.38345337 74.24949646 C79.43449502 74.248797 76.48559899 74.24100305 73.53665161 74.23318481 C71.49783869 74.23132075 69.45902532 74.2298968 67.42021179 74.22889709 C62.04271212 74.22507097 56.66523928 74.21523989 51.28775024 74.20419312 C45.80496585 74.19398102 40.32217714 74.18939991 34.83938599 74.18435669 C24.07309813 74.1736177 13.30683022 74.15654016 2.54055786 74.13552856 C2.54055786 75.45552856 2.54055786 76.77552856 2.54055786 78.13552856 C3.57180786 78.05302856 4.60305786 77.97052856 5.66555786 77.88552856 C10.09427603 78.17125232 12.4093448 79.1417834 15.54055786 82.13552856 C18.34223502 85.36908481 20.93509573 88.74361277 23.54055786 92.13552856 C24.53364298 93.3080869 25.53235044 94.47594722 26.54055786 95.63552856 C28.54055786 98.13552856 28.54055786 98.13552856 28.54055786 100.13552856 C31.04133259 100.02020157 33.54070785 99.89349931 36.04055786 99.76052856 C36.73665161 99.72959106 37.43274536 99.69865356 38.14993286 99.66677856 C40.29003638 99.54788392 42.40932851 99.36311203 44.54055786 99.13552856 C45.61756958 99.02797241 45.61756958 99.02797241 46.71633911 98.91824341 C49.61073578 98.44367512 51.91899558 97.89545231 53.82376099 95.56668091 C54.89750361 93.57658962 55.73212535 91.62376047 56.54055786 89.51052856 C57.53055786 87.07677856 58.52055786 84.64302856 59.54055786 82.13552856 C69.77055786 82.13552856 80.00055786 82.13552856 90.54055786 82.13552856 C89.74256706 86.12548258 89.05168023 88.47360395 87.29055786 91.97146606 C86.62540161 93.3211145 86.62540161 93.3211145 85.94680786 94.69802856 C85.01243155 96.56678118 84.07494985 98.43398445 83.13430786 100.29959106 C80.64705323 105.36086503 79.02529104 109.5156533 78.54055786 115.13552856 C77.54055786 116.13552856 77.54055786 116.13552856 75.74989319 116.25578308 C74.97045853 116.25356247 74.19102386 116.25134186 73.38796997 116.24905396 C72.50713242 116.24897842 71.62629486 116.24890289 70.71876526 116.24882507 C69.76148026 116.24366379 68.80419525 116.2385025 67.81790161 116.23318481 C66.84269058 116.23176987 65.86747955 116.23035492 64.86271667 116.22889709 C61.73446643 116.22327989 58.60628663 116.21072449 55.47805786 116.19802856 C53.36282452 116.19301578 51.24759006 116.18845249 49.13235474 116.18435669 C43.9350649 116.17330488 38.73781641 116.15655003 33.54055786 116.13552856 C33.21055786 114.81552856 32.88055786 113.49552856 32.54055786 112.13552856 C31.69493286 112.22834106 30.84930786 112.32115356 29.97805786 112.41677856 C20.82305845 112.99936944 20.82305845 112.99936944 16.89602661 110.35427856 C14.72805786 108.13552856 14.72805786 108.13552856 11.54055786 104.13552856 C11.21055786 108.75552856 10.88055786 113.37552856 10.54055786 118.13552856 C-0.01944214 118.13552856 -10.57944214 118.13552856 -21.45944214 118.13552856 C-21.57461182 113.54409742 -21.67401177 108.95772541 -21.73410034 104.36599731 C-21.75915841 102.80625378 -21.79321515 101.24662667 -21.8366394 99.68728638 C-21.89768407 97.43797013 -21.9257364 95.19021296 -21.94772339 92.94021606 C-21.97352982 92.24934906 -21.99933624 91.55848206 -22.02592468 90.84667969 C-22.02810708 87.03132976 -21.43985236 84.64110431 -19.10470581 81.7024231 C-16.39073794 79.06885981 -15.16869906 78.3474861 -11.45944214 78.13552856 C-11.72097878 73.25351117 -12.16575413 70.20798743 -15.02194214 66.19802856 C-17.52289887 62.49398769 -18.21775721 59.64963171 -17.94772339 55.19021606 C-17.11275625 51.67667434 -15.36271355 50.13555998 -12.45944214 48.13552856 C-9.78366089 48.01443481 -9.78366089 48.01443481 -7.45944214 48.13552856 C-7.46166275 47.5489296 -7.46388336 46.96233063 -7.46617126 46.35795593 C-7.48822424 40.27527472 -7.50334878 34.19260479 -7.51437378 28.1098938 C-7.51941539 25.83710265 -7.52624851 23.56431477 -7.53488159 21.29153442 C-7.54695475 18.03249305 -7.55267201 14.7734944 -7.55709839 11.51443481 C-7.56225967 10.49152847 -7.56742096 9.46862213 -7.57273865 8.41471863 C-7.57281418 7.47381882 -7.57288971 6.53291901 -7.57296753 5.56350708 C-7.57518814 4.73077774 -7.57740875 3.8980484 -7.57969666 3.04008484 C-7.30190023 -1.35957466 -3.55879161 0.01192753 0 0 Z " fill="#558BFD" transform="translate(27.459442138671875,5.864471435546875)"/>
<path d="M0 0 C0.96228516 0.00580078 1.92457031 0.01160156 2.91601562 0.01757812 C10.0171596 0.1421596 10.0171596 0.1421596 12.3125 2.4375 C11.9375 5.0625 11.9375 5.0625 11.3125 7.4375 C10.3225 7.7675 9.3325 8.0975 8.3125 8.4375 C8.3125 13.7175 8.3125 18.9975 8.3125 24.4375 C6.3325 25.4275 6.3325 25.4275 4.3125 26.4375 C4.3125 27.7575 4.3125 29.0775 4.3125 30.4375 C5.859375 30.31375 5.859375 30.31375 7.4375 30.1875 C11.86621817 30.47322375 14.18128694 31.44375483 17.3125 34.4375 C20.11417716 37.67105624 22.70703787 41.04558421 25.3125 44.4375 C26.30558512 45.61005834 27.30429257 46.77791865 28.3125 47.9375 C30.3125 50.4375 30.3125 50.4375 30.3125 52.4375 C32.81327472 52.32217301 35.31264998 52.19547075 37.8125 52.0625 C38.50859375 52.0315625 39.2046875 52.000625 39.921875 51.96875 C42.06197852 51.84985536 44.18127064 51.66508346 46.3125 51.4375 C47.03050781 51.3657959 47.74851562 51.2940918 48.48828125 51.22021484 C51.38267792 50.74564656 53.69093772 50.19742375 55.59570312 47.86865234 C56.66944575 45.87856106 57.50406749 43.92573191 58.3125 41.8125 C59.3025 39.37875 60.2925 36.945 61.3125 34.4375 C71.5425 34.4375 81.7725 34.4375 92.3125 34.4375 C91.5145092 38.42745402 90.82362237 40.77557538 89.0625 44.2734375 C88.39734375 45.62308594 88.39734375 45.62308594 87.71875 47 C86.78437369 48.86875261 85.84689199 50.73595588 84.90625 52.6015625 C82.41899537 57.66283647 80.79723318 61.81762473 80.3125 67.4375 C79.3125 68.4375 79.3125 68.4375 77.52183533 68.55775452 C76.74240067 68.55553391 75.962966 68.55331329 75.15991211 68.55102539 C74.27907455 68.55094986 73.398237 68.55087433 72.4907074 68.55079651 C71.53342239 68.54563522 70.57613739 68.54047394 69.58984375 68.53515625 C68.61463272 68.5337413 67.63942169 68.53232635 66.63465881 68.53086853 C63.50640857 68.52525133 60.37822877 68.51269593 57.25 68.5 C55.13476666 68.49498722 53.01953219 68.49042393 50.90429688 68.48632812 C45.70700704 68.47527631 40.50975855 68.45852146 35.3125 68.4375 C34.9825 67.1175 34.6525 65.7975 34.3125 64.4375 C33.466875 64.5303125 32.62125 64.623125 31.75 64.71875 C22.59500059 65.30134087 22.59500059 65.30134087 18.66796875 62.65625 C16.5 60.4375 16.5 60.4375 13.3125 56.4375 C12.9825 61.0575 12.6525 65.6775 12.3125 70.4375 C1.7525 70.4375 -8.8075 70.4375 -19.6875 70.4375 C-19.80266968 65.84606885 -19.90206963 61.25969685 -19.9621582 56.66796875 C-19.98721627 55.10822521 -20.02127301 53.5485981 -20.06469727 51.98925781 C-20.12574193 49.73994157 -20.15379426 47.4921844 -20.17578125 45.2421875 C-20.20158768 44.5513205 -20.2273941 43.86045349 -20.25398254 43.14865112 C-20.25616494 39.3333012 -19.66791022 36.94307575 -17.33276367 34.00439453 C-14.6187958 31.37083125 -13.39675692 30.64945754 -9.6875 30.4375 C-9.94903665 25.55548261 -10.39381199 22.50995887 -13.25 18.5 C-15.73803747 14.8150932 -16.27114303 12.01222632 -16.3515625 7.61328125 C-13.83493827 -0.63236402 -7.22328967 -0.24975442 0 0 Z " fill="#FFB401" transform="translate(25.6875,53.5625)"/>
<path d="M0 0 C3.96 0 7.92 0 12 0 C12 14.52 12 29.04 12 44 C-7.8 44 -27.6 44 -48 44 C-48 41.36 -48 38.72 -48 36 C-44.04 36 -40.08 36 -36 36 C-36 33.36 -36 30.72 -36 28 C-32.04 28 -28.08 28 -24 28 C-24 24.7 -24 21.4 -24 18 C-20.04 18 -16.08 18 -12 18 C-12 14.7 -12 11.4 -12 8 C-8.04 8 -4.08 8 0 8 C0 5.36 0 2.72 0 0 Z " fill="#FFD873" transform="translate(96,26)"/>
<path d="M0 0 C10.23 0 20.46 0 31 0 C30.2020092 3.98995402 29.51112237 6.33807538 27.75 9.8359375 C27.08484375 11.18558594 27.08484375 11.18558594 26.40625 12.5625 C25.47187369 14.43125261 24.53439199 16.29845588 23.59375 18.1640625 C21.10649537 23.22533647 19.48473318 27.38012473 19 33 C18 34 18 34 16.20933533 34.12025452 C15.42990067 34.11803391 14.650466 34.11581329 13.84741211 34.11352539 C12.96657455 34.11344986 12.085737 34.11337433 11.1782074 34.11329651 C10.22092239 34.10813522 9.26363739 34.10297394 8.27734375 34.09765625 C7.30213272 34.0962413 6.32692169 34.09482635 5.32215881 34.09336853 C2.19390857 34.08775133 -0.93427123 34.07519593 -4.0625 34.0625 C-6.17773334 34.05748722 -8.29296781 34.05292393 -10.40820312 34.04882812 C-15.60549296 34.03777631 -20.80274145 34.02102146 -26 34 C-26.33 32.68 -26.66 31.36 -27 30 C-24.36 30 -21.72 30 -19 30 C-19 26.04 -19 22.08 -19 18 C-17.164375 17.814375 -15.32875 17.62875 -13.4375 17.4375 C-10.19162856 16.67692894 -7.84378496 16.08500704 -5.74462891 13.38574219 C-3.28064319 9.07458742 -1.766541 4.6973931 0 0 Z " fill="#8BDFE7" transform="translate(87,88)"/>
<path d="M0 0 C3.96 0 7.92 0 12 0 C12 8.58 12 17.16 12 26 C0.12 26 -11.76 26 -24 26 C-24 23.36 -24 20.72 -24 18 C-20.04 18 -16.08 18 -12 18 C-12 15.36 -12 12.72 -12 10 C-8.04 10 -4.08 10 0 10 C0 6.7 0 3.4 0 0 Z " fill="#FFC431" transform="translate(72,44)"/>
<path d="M0 0 C3.625 0.375 3.625 0.375 7 1 C7.495 2.485 7.495 2.485 8 4 C12.29 4 16.58 4 21 4 C21 5.32 21 6.64 21 8 C16.71 8 12.42 8 8 8 C7.67 8.99 7.34 9.98 7 11 C6.01 11.061875 5.02 11.12375 4 11.1875 C-0.67332055 11.88231141 -4.53026486 13.78394833 -8 17 C-9.36900354 20.57996259 -9.36900354 20.57996259 -10 24 C-13 26 -13 26 -16.1875 25.75 C-21.42601855 26.09350941 -24.41960114 28.23115909 -28 32 C-28.95660226 33.88448218 -28.95660226 33.88448218 -29.5625 35.8125 C-30.036875 36.864375 -30.51125 37.91625 -31 39 C-34.6875 39.9375 -34.6875 39.9375 -38 40 C-38.66 38.68 -39.32 37.36 -40 36 C-42.97 36 -45.94 36 -49 36 C-49 34.68 -49 33.36 -49 32 C-46.03 32 -43.06 32 -40 32 C-39.34 30.68 -38.68 29.36 -38 28 C-37.01 28.12375 -36.02 28.2475 -35 28.375 C-30.4909301 28.43010065 -28.01956968 26.13055815 -24.69921875 23.3125 C-23 22 -23 22 -21 22 C-21.061875 21.236875 -21.12375 20.47375 -21.1875 19.6875 C-21 17 -21 17 -19.76171875 15.390625 C-17.66780483 13.73777942 -16.24508925 13.46043164 -13.625 13.0625 C-9.47052326 12.23160465 -6.93993671 11.20720368 -4 8 C-2.78715124 4.94570927 -2.78715124 4.94570927 -2 2 C-1.34 1.34 -0.68 0.68 0 0 Z " fill="#D7E6FE" transform="translate(85,12)"/>
<path d="M0 0 C3.96 0 7.92 0 12 0 C12 11.88 12 23.76 12 36 C8.04 36 4.08 36 0 36 C0 24.12 0 12.24 0 0 Z " fill="#FFCC4D" transform="translate(84,34)"/>
<path d="M0 0 C0.96228516 0.00580078 1.92457031 0.01160156 2.91601562 0.01757812 C10.0171596 0.1421596 10.0171596 0.1421596 12.3125 2.4375 C11.75694444 6.99305556 11.75694444 6.99305556 10.3125 8.4375 C9.03375 8.540625 7.755 8.64375 6.4375 8.75 C3.72270816 9.08509953 2.57185374 9.23671001 0.375 10.9375 C-1.20868562 14.6638191 -1.43873916 18.4230147 -1.6875 22.4375 C-4.81337006 22.92783256 -7.57825563 23.09782447 -10.6875 22.4375 C-13.95079604 19.64358216 -15.32848122 16.22962678 -16.16015625 12.078125 C-16.42896585 7.97016284 -16.20174476 6.19115307 -13.81640625 2.6953125 C-9.27888285 -0.57895532 -5.44996154 -0.18843935 0 0 Z " fill="#C37221" transform="translate(25.6875,53.5625)"/>
<path d="M0 0 C1.29228516 0.00966797 2.58457031 0.01933594 3.91601562 0.02929688 C5.27083945 0.0543589 6.62565716 0.07975369 7.98046875 0.10546875 C9.3548032 0.12052862 10.72915343 0.13421474 12.10351562 0.14648438 C15.45873507 0.18180247 18.81315041 0.23113024 22.16796875 0.29296875 C22.21038598 2.6259165 22.20889812 4.95999442 22.16796875 7.29296875 C21.16796875 8.29296875 21.16796875 8.29296875 19.37730408 8.41322327 C18.59786942 8.41100266 17.81843475 8.40878204 17.01538086 8.40649414 C16.1345433 8.40641861 15.25370575 8.40634308 14.34617615 8.40626526 C13.38889114 8.40110397 12.43160614 8.39594269 11.4453125 8.390625 C10.47010147 8.38921005 9.49489044 8.3877951 8.49012756 8.38633728 C5.36187732 8.38072008 2.23369752 8.36816468 -0.89453125 8.35546875 C-3.00976459 8.35045597 -5.12499906 8.34589268 -7.24023438 8.34179688 C-12.43752421 8.33074506 -17.6347727 8.31399021 -22.83203125 8.29296875 C-23.16203125 6.97296875 -23.49203125 5.65296875 -23.83203125 4.29296875 C-22.61966797 4.23689453 -22.61966797 4.23689453 -21.3828125 4.1796875 C-20.31417969 4.11394531 -19.24554688 4.04820313 -18.14453125 3.98046875 C-17.08878906 3.92246094 -16.03304687 3.86445312 -14.9453125 3.8046875 C-11.82100561 3.51121603 -11.82100561 3.51121603 -9.56445312 1.77929688 C-6.15373328 -0.07599819 -3.86656874 -0.05110003 0 0 Z " fill="#4367E0" transform="translate(83.83203125,113.70703125)"/>
<path d="M0 0 C23.76 0 47.52 0 72 0 C72 1.32 72 2.64 72 4 C48.24 4 24.48 4 0 4 C0 2.68 0 1.36 0 0 Z " fill="#7DAFFF" transform="translate(42,70)"/>
<path d="M0 0 C3.96 0 7.92 0 12 0 C12 5.28 12 10.56 12 16 C4.08 16 -3.84 16 -12 16 C-12 13.36 -12 10.72 -12 8 C-8.04 8 -4.08 8 0 8 C0 5.36 0 2.72 0 0 Z " fill="#FFB401" transform="translate(60,54)"/>
<path d="M0 0 C0 5.28 0 10.56 0 16 C-1.98 16.99 -1.98 16.99 -4 18 C-4 19.32 -4 20.64 -4 22 C-8.62 22 -13.24 22 -18 22 C-18 19.36 -18 16.72 -18 14 C-15.36 14 -12.72 14 -10 14 C-10.04640625 13.40832031 -10.0928125 12.81664063 -10.140625 12.20703125 C-10.3273126 8.11990623 -10.32694187 5.61615967 -8.375 1.9375 C-6 0 -6 0 0 0 Z " fill="#FDCDB5" transform="translate(34,62)"/>
<path d="M0 0 C1.77734375 1.2734375 1.77734375 1.2734375 3.0625 2.625 C3.0625 3.615 3.0625 4.605 3.0625 5.625 C1.99322266 5.53798828 1.99322266 5.53798828 0.90234375 5.44921875 C-6.35483403 5.10735977 -9.3609395 6.07270571 -14.9375 10.625 C-16.2575 10.625 -17.5775 10.625 -18.9375 10.625 C-18.9375 6.665 -18.9375 2.705 -18.9375 -1.375 C-11.87049588 -3.48270298 -6.45400411 -4.28970956 0 0 Z " fill="#FCCEB7" transform="translate(86.9375,107.375)"/>
<path d="M0 0 C0.66 2.64 1.32 5.28 2 8 C-6.25 8 -14.5 8 -23 8 C-23.33 6.68 -23.66 5.36 -24 4 C-22.78763672 3.94392578 -22.78763672 3.94392578 -21.55078125 3.88671875 C-20.48214844 3.82097656 -19.41351563 3.75523438 -18.3125 3.6875 C-17.25675781 3.62949219 -16.20101562 3.57148437 -15.11328125 3.51171875 C-9.25026221 2.54803557 -6.38265077 -0.37545005 0 0 Z " fill="#558AFE" transform="translate(84,114)"/>
<path d="M0 0 C1.53656962 2.4404341 2.02089707 3.70744102 1.8125 6.625 C1 9 1 9 -2 11 C-4.6875 11.125 -4.6875 11.125 -7 11 C-7 10.34 -7 9.68 -7 9 C-7.99 8.67 -8.98 8.34 -10 8 C-9.64505955 5.37344067 -9.27538036 3.42031739 -7.8125 1.1875 C-5.20638339 -0.51995571 -3.0400645 -0.20267097 0 0 Z " fill="#D9E8FE" transform="translate(74,27)"/>
<path d="M0 0 C3.96 0 7.92 0 12 0 C12 2.64 12 5.28 12 8 C8.04 8 4.08 8 0 8 C0 5.36 0 2.72 0 0 Z " fill="#FFA100" transform="translate(48,62)"/>
<path d="M0 0 C0.66 0.99 1.32 1.98 2 3 C0.66073876 7.01778372 -1.49134469 7.78023848 -5 10 C-5.66 10.66 -6.32 11.32 -7 12 C-7.33 11.01 -7.66 10.02 -8 9 C-12.42664564 8.69504515 -12.42664564 8.69504515 -16.375 10.5 C-16.91125 10.995 -17.4475 11.49 -18 12 C-16.125 8.125 -16.125 8.125 -15 7 C-13.6078276 6.73035819 -12.21106024 6.4842647 -10.8125 6.25 C-5.97170043 5.24472213 -3.5090873 3.4191107 0 0 Z " fill="#BDD5FB" transform="translate(82,19)"/>
<path d="M0 0 C0.99 0.680625 0.99 0.680625 2 1.375 C-1.54039134 4.2906164 -5.1626772 6.87627818 -9 9.375 C-9.66 8.055 -10.32 6.735 -11 5.375 C-3.9452954 -0.82193654 -3.9452954 -0.82193654 0 0 Z " fill="#BDD4FA" transform="translate(65,34.625)"/>
<path d="M0 0 C3.96 0 7.92 0 12 0 C12 1.32 12 2.64 12 4 C8.04 4 4.08 4 0 4 C0 2.68 0 1.36 0 0 Z " fill="#C5DAFA" transform="translate(94,16)"/>
<path d="M0 0 C4.83256305 0.41421969 6.82679218 2.46413986 10 6 C9.67 6.99 9.34 7.98 9 9 C4.74822077 8.52758009 2.70030797 6.15035929 0 3 C0 2.01 0 1.02 0 0 Z " fill="#FFA300" transform="translate(29,98)"/>
<path d="M0 0 C3.44263129 -0.39344358 4.81718319 -0.11375268 7.8125 1.75 C10 4 10 4 10 8 C5.17965738 7.58682778 3.09007389 5.61980085 0 2 C0 1.34 0 0.68 0 0 Z " fill="#FFC0A2" transform="translate(20,76)"/>
<path d="M0 0 C2.64 0 5.28 0 8 0 C8 1.32 8 2.64 8 4 C5.36 4 2.72 4 0 4 C0 2.68 0 1.36 0 0 Z " fill="#C5DAFA" transform="translate(36,44)"/>
</svg>
