<?xml version="1.0" encoding="UTF-8"?>
<svg version="1.1" xmlns="http://www.w3.org/2000/svg" width="128" height="128">
<path d="M0 0 C33 0 66 0 100 0 C100.88239381 25.32202829 100.88239381 25.32202829 101.07421875 36.25 C101.20497523 43.66342399 101.35829934 51.070785 101.65966797 58.47949219 C103.4450874 103.50300411 103.4450874 103.50300411 93.62497139 114.9285183 C88.33857813 120.46723107 80.76952632 127.81650653 72.87423706 128.12025452 C71.5149549 128.12317608 70.1556543 128.12046466 68.79638672 128.11352539 C68.04281954 128.11364593 67.28925236 128.11376646 66.51284981 128.11389065 C64.06843257 128.113143 61.62409114 128.10552148 59.1796875 128.09765625 C57.6726078 128.09618637 56.16552758 128.09516594 54.65844727 128.09460449 C49.06395707 128.08935691 43.46947779 128.07539576 37.875 128.0625 C25.37625 128.041875 12.8775 128.02125 0 128 C0 85.76 0 43.52 0 0 Z " fill="#F2E7E4" transform="translate(14,0)"/>
<path d="M0 0 C16.83 0 33.66 0 51 0 C51 5.61 51 11.22 51 17 C49.35 17 47.7 17 46 17 C46.22719727 18.03048462 46.22719727 18.03048462 46.45898438 19.08178711 C50.08806173 35.92210182 51.73193704 51.78258867 51 69 C49.36684235 66.83927738 47.77797544 64.67489261 46.25 62.4375 C42.61959655 58.50456293 38.78525668 57.2596737 33.5625 56.5 C28.80703089 57.16743426 25.63911459 58.90183488 22 62 C19.01687036 66.10180325 18.46511144 69.86608213 18.6484375 74.82421875 C19.21019776 78.30089056 20.7312489 80.36334331 23 83 C23.66 83.78375 24.32 84.5675 25 85.375 C29.82326239 87.98760046 34.64214783 87.7269813 40 87 C44.09478263 84.95260869 46.84518926 82.27165558 50 79 C50.33 79 50.66 79 51 79 C51 84.61 51 90.22 51 96 C39.45 96 27.9 96 16 96 C16 98.64 16 101.28 16 104 C27.55 104 39.1 104 51 104 C51 111.92 51 119.84 51 128 C34.17 128 17.34 128 0 128 C0 85.76 0 43.52 0 0 Z " fill="#FEF6F6" transform="translate(14,0)"/>
<path d="M0 0 C4.41026006 2.45014448 7.08812558 5.30125117 9.375 9.875 C9.93269904 15.83808973 9.87656448 20.80376868 6.375 25.875 C1.08835136 30.64587804 -2.46916835 31.39317708 -9.5 31.359375 C-14.55563211 30.57575202 -17.51296005 27.80095809 -20.625 23.875 C-23.18081292 19.62374683 -23.38898766 15.72154673 -22.625 10.875 C-20.85702903 6.38403803 -18.32236375 2.99491799 -14.25 0.375 C-8.91437641 -1.83284424 -5.47644088 -1.6995851 0 0 Z " fill="#0CEB87" transform="translate(54.625,57.125)"/>
<path d="M0 0 C2.31 0 4.62 0 7 0 C8.29243536 4.1196377 9.26252625 7.66831683 9 12 C9.66 12 10.32 12 11 12 C11.13277344 11.38511719 11.26554687 10.77023438 11.40234375 10.13671875 C11.66724609 8.92435547 11.66724609 8.92435547 11.9375 7.6875 C12.11152344 6.88699219 12.28554687 6.08648437 12.46484375 5.26171875 C13 3 13 3 14 0 C16.31 0 18.62 0 21 0 C21.50336767 1.62395997 22.00258976 3.24920541 22.5 4.875 C22.7784375 5.77992187 23.056875 6.68484375 23.34375 7.6171875 C24 10 24 10 24 12 C24.66 12 25.32 12 26 12 C26.09087891 10.95199219 26.09087891 10.95199219 26.18359375 9.8828125 C26.26738281 8.97273438 26.35117188 8.06265625 26.4375 7.125 C26.51871094 6.22007813 26.59992188 5.31515625 26.68359375 4.3828125 C27 2 27 2 28 0 C30.31 0 32.62 0 35 0 C34.31528263 6.9042335 33.25204517 13.67726111 32 20.5 C31.82210937 21.5003125 31.64421875 22.500625 31.4609375 23.53125 C31.28820312 24.48 31.11546875 25.42875 30.9375 26.40625 C30.78152344 27.26541016 30.62554687 28.12457031 30.46484375 29.00976562 C30 31 30 31 29 32 C26.69 32 24.38 32 22 32 C20.68 27.38 19.36 22.76 18 18 C16.40964498 21.18071004 15.35151732 23.87657653 14.375 27.25 C14.11460938 28.14203125 13.85421875 29.0340625 13.5859375 29.953125 C13.39257812 30.62859375 13.19921875 31.3040625 13 32 C10.69 32 8.38 32 6 32 C4.56014689 28.63657547 3.58401967 25.47214916 2.9296875 21.875 C2.66865234 20.44414063 2.66865234 20.44414063 2.40234375 18.984375 C2.14130859 17.50710937 2.14130859 17.50710937 1.875 16 C1.69324219 15.01515625 1.51148438 14.0303125 1.32421875 13.015625 C0.53171605 8.60621148 -0.10366257 4.49271568 0 0 Z " fill="#7DACFE" transform="translate(60,17)"/>
<path d="M0 0 C2.2734375 1.02734375 2.2734375 1.02734375 4 2 C2.75023244 5.65316671 2.32901247 6.78065836 -1 9 C-4.1875 8.125 -4.1875 8.125 -7 7 C-7 8.32 -7 9.64 -7 11 C-6.13375 11.0825 -5.2675 11.165 -4.375 11.25 C0.79616722 12.39914827 4.0685449 14.60281734 7 19 C6.91849479 23.40128138 6.45355387 25.4509611 3.625 28.875 C-0.49877207 32.21329168 -3.79889366 32.44077172 -9 32 C-12.4375 30 -12.4375 30 -15 28 C-13.63016497 24.83884224 -13.0109362 24.0072908 -10 22 C-9.34 22.33 -8.68 22.66 -8 23 C-6.00039988 23.039992 -3.99952758 23.04346799 -2 23 C-2 22.34 -2 21.68 -2 21 C-2.68707031 20.68546875 -3.37414063 20.3709375 -4.08203125 20.046875 C-4.98308594 19.61890625 -5.88414063 19.1909375 -6.8125 18.75 C-7.70582031 18.33234375 -8.59914063 17.9146875 -9.51953125 17.484375 C-12.16146776 15.90337362 -13.4389985 14.6335606 -15 12 C-15.5625 8.5625 -15.5625 8.5625 -15 5 C-10.71362951 -0.16562597 -6.56922442 -1.13468422 0 0 Z " fill="#FDD70B" transform="translate(48,17)"/>
<path d="M0 0 C7.26 0 14.52 0 22 0 C22 2.64 22 5.28 22 8 C19.69 8 17.38 8 15 8 C15 16.25 15 24.5 15 33 C12.36 33 9.72 33 7 33 C7 24.75 7 16.5 7 8 C4.69 8 2.38 8 0 8 C0 5.36 0 2.72 0 0 Z " fill="#E88ED2" transform="translate(72,56)"/>
<path d="M0 0 C8.25 0 16.5 0 25 0 C20.40168956 5.36469551 15.78854334 10.39437045 10.8125 15.375 C10.10158203 16.09816406 9.39066406 16.82132813 8.65820312 17.56640625 C7.97306641 18.25347656 7.28792969 18.94054687 6.58203125 19.6484375 C5.65741089 20.57922119 5.65741089 20.57922119 4.71411133 21.52880859 C3 23 3 23 0 24 C0 16.08 0 8.16 0 0 Z " fill="#D2D2D8" transform="translate(89,104)"/>
<path d="M0 0 C11.22 0 22.44 0 34 0 C34 2.31 34 4.62 34 7 C22.78 7 11.56 7 0 7 C0 4.69 0 2.38 0 0 Z " fill="#B9B9BE" transform="translate(31,97)"/>
<path d="M0 0 C3.38677089 2.45000447 4.78698584 3.86392446 5.5625 8 C4.87642343 11.65907504 3.57265686 13.35167676 1 16 C-1.88861709 17.44430855 -3.79647701 17.37688506 -7 17 C-9.87459336 15.00028288 -11.62907801 13.51060972 -12.484375 10.02734375 C-12.73357225 6.32399572 -12.29743405 4.36052612 -9.9375 1.5 C-6.22693494 -0.39475662 -4.11629392 -0.66154724 0 0 Z " fill="#F7F6F3" transform="translate(52,64)"/>
<path d="M0 0 C1.65 0 3.3 0 5 0 C5 8.91 5 17.82 5 27 C4.67 27 4.34 27 4 27 C3.32603699 23.43884042 2.66212182 19.87587859 2 16.3125 C1.80921875 15.30509766 1.6184375 14.29769531 1.421875 13.25976562 C1.24140625 12.28330078 1.0609375 11.30683594 0.875 10.30078125 C0.70742188 9.40528564 0.53984375 8.50979004 0.3671875 7.5871582 C0.00282018 5.01987068 -0.06528807 2.58907987 0 0 Z " fill="#94CDFE" transform="translate(60,17)"/>
</svg>
