<?xml version="1.0" encoding="UTF-8"?>
<svg version="1.1" xmlns="http://www.w3.org/2000/svg" width="128" height="128">
<path d="M0 0 C1.15459717 -0.00953201 2.30919434 -0.01906403 3.4987793 -0.02888489 C4.75086182 -0.02797348 6.00294434 -0.02706207 7.29296875 -0.02612305 C9.21266479 -0.03255074 9.21266479 -0.03255074 11.17114258 -0.03910828 C13.88138975 -0.04657421 16.59150666 -0.04627633 19.30175781 -0.04101562 C22.77906098 -0.03521639 26.2558323 -0.05216029 29.73304749 -0.0753603 C33.04471081 -0.0936116 36.35625531 -0.08991302 39.66796875 -0.08862305 C40.92005127 -0.09783279 42.17213379 -0.10704254 43.4621582 -0.11653137 C45.19405396 -0.10718819 45.19405396 -0.10718819 46.9609375 -0.09765625 C47.98082764 -0.09828568 49.00071777 -0.0989151 50.05151367 -0.0995636 C50.85306885 0.0239296 51.65462402 0.14742279 52.48046875 0.2746582 C54.48046875 3.2746582 54.48046875 3.2746582 54.48046875 6.2746582 C55.31819824 6.26418457 56.15592773 6.25371094 57.01904297 6.24291992 C60.12385039 6.20885802 63.22856267 6.18376909 66.33349609 6.16479492 C68.33958235 6.14977713 70.34558199 6.1243684 72.3515625 6.09887695 C73.60839844 6.09243164 74.86523438 6.08598633 76.16015625 6.0793457 C77.32272949 6.06887207 78.48530273 6.05839844 79.68310547 6.04760742 C82.48046875 6.2746582 82.48046875 6.2746582 84.48046875 8.2746582 C84.67578125 10.4387207 84.67578125 10.4387207 84.60546875 12.8996582 C84.58742188 13.71692383 84.569375 14.53418945 84.55078125 15.3762207 C84.52757813 16.00270508 84.504375 16.62918945 84.48046875 17.2746582 C85.25132813 17.25145508 86.0221875 17.22825195 86.81640625 17.2043457 C87.81929688 17.18629883 88.8221875 17.16825195 89.85546875 17.1496582 C91.35207031 17.11485352 91.35207031 17.11485352 92.87890625 17.0793457 C95.48046875 17.2746582 95.48046875 17.2746582 97.48046875 19.2746582 C97.67910218 22.06516912 97.75316726 24.75644869 97.73925781 27.5480957 C97.74276245 28.40348938 97.74626709 29.25888306 97.74987793 30.14019775 C97.75870352 32.97676635 97.7528432 35.81308693 97.74609375 38.6496582 C97.74744016 40.61499072 97.74938049 42.58032292 97.75189209 44.5456543 C97.75484447 48.66824509 97.75054203 52.79074933 97.74121094 56.91333008 C97.72981635 62.2065215 97.73637521 67.49951012 97.74835587 72.79269409 C97.75557138 76.85206642 97.75328796 80.9113904 97.74810028 84.97076416 C97.74676293 86.92287215 97.74841448 88.87498448 97.75305939 90.8270874 C97.75811955 93.55191735 97.75042163 96.27641556 97.73925781 99.0012207 C97.74330627 99.81375305 97.74735474 100.6262854 97.75152588 101.46343994 C97.70899688 107.04613007 97.70899688 107.04613007 95.48046875 109.2746582 C93.60751343 109.51516724 93.60751343 109.51516724 91.30615234 109.50170898 C90.44541107 109.50155792 89.5846698 109.50140686 88.69784546 109.50125122 C87.30247055 109.48576736 87.30247055 109.48576736 85.87890625 109.4699707 C84.92730621 109.46714081 83.97570618 109.46431091 82.99526978 109.46139526 C79.94854283 109.45017809 76.90210721 109.42507083 73.85546875 109.3996582 C71.79297299 109.38963038 69.73047263 109.38050419 67.66796875 109.37231445 C62.60535608 109.35023375 57.54296185 109.3156935 52.48046875 109.2746582 C52.48046875 113.8946582 52.48046875 118.5146582 52.48046875 123.2746582 C55.12046875 123.2746582 57.76046875 123.2746582 60.48046875 123.2746582 C60.48046875 124.9246582 60.48046875 126.5746582 60.48046875 128.2746582 C45.96046875 128.2746582 31.44046875 128.2746582 16.48046875 128.2746582 C16.48046875 126.6246582 16.48046875 124.9746582 16.48046875 123.2746582 C19.12046875 123.2746582 21.76046875 123.2746582 24.48046875 123.2746582 C24.48046875 118.6546582 24.48046875 114.0346582 24.48046875 109.2746582 C23.18834473 109.28513184 21.8962207 109.29560547 20.56494141 109.30639648 C15.78290566 109.34252539 11.00088202 109.36553271 6.21875 109.38452148 C4.14678928 109.39459532 2.07484282 109.40825486 0.00292969 109.42553711 C-2.97073889 109.44972484 -5.94421995 109.46112729 -8.91796875 109.4699707 C-10.31334366 109.48545456 -10.31334366 109.48545456 -11.73690796 109.50125122 C-12.59764923 109.50140228 -13.4583905 109.50155334 -14.34521484 109.50170898 C-15.48438858 109.50837082 -15.48438858 109.50837082 -16.64657593 109.51516724 C-18.51953125 109.2746582 -18.51953125 109.2746582 -20.51953125 107.2746582 C-20.71816468 104.48414729 -20.79222976 101.79286772 -20.77832031 99.0012207 C-20.78182495 98.14582703 -20.78532959 97.29043335 -20.78894043 96.40911865 C-20.79776602 93.57255006 -20.7919057 90.73622948 -20.78515625 87.8996582 C-20.78650266 85.93432568 -20.78844299 83.96899349 -20.79095459 82.00366211 C-20.79390697 77.88107132 -20.78960453 73.75856708 -20.78027344 69.63598633 C-20.76887885 64.34279491 -20.77543771 59.04980629 -20.78741837 53.75662231 C-20.79463388 49.69724999 -20.79235046 45.637926 -20.78716278 41.57855225 C-20.78582543 39.62644426 -20.78747698 37.67433193 -20.79212189 35.722229 C-20.79718205 32.99739906 -20.78948413 30.27290085 -20.77832031 27.5480957 C-20.78236877 26.73556335 -20.78641724 25.92303101 -20.79058838 25.08587646 C-20.74805938 19.50318634 -20.74805938 19.50318634 -18.51953125 17.2746582 C-15.91796875 17.0793457 -15.91796875 17.0793457 -12.89453125 17.1496582 C-11.39019531 17.17672852 -11.39019531 17.17672852 -9.85546875 17.2043457 C-9.08460937 17.22754883 -8.31375 17.25075195 -7.51953125 17.2746582 C-7.54273438 16.21504883 -7.5659375 15.15543945 -7.58984375 14.0637207 C-7.60860069 12.6757069 -7.62680097 11.2876855 -7.64453125 9.8996582 C-7.66128906 9.20098633 -7.67804687 8.50231445 -7.6953125 7.7824707 C-7.71297392 5.94568334 -7.62256386 4.10863858 -7.51953125 2.2746582 C-4.88139701 -0.36347604 -3.68099498 0.01662903 0 0 Z " fill="#EBEBEB" transform="translate(25.51953125,-0.274658203125)"/>
<path d="M0 0 C38.94 0 77.88 0 118 0 C118 6.6 118 13.2 118 20 C116 22 116 22 114.12704468 22.24050903 C112.98787094 22.2338472 112.98787094 22.2338472 111.82568359 22.22705078 C110.53457169 22.22682419 110.53457169 22.22682419 109.21737671 22.22659302 C107.8220018 22.21110916 107.8220018 22.21110916 106.3984375 22.1953125 C105.44683746 22.1924826 104.49523743 22.18965271 103.51480103 22.18673706 C100.46807408 22.17551989 97.42163846 22.15041263 94.375 22.125 C92.31250424 22.11497218 90.25000388 22.10584599 88.1875 22.09765625 C83.12488733 22.07557554 78.0624931 22.0410353 73 22 C73 26.62 73 31.24 73 36 C75.64 36 78.28 36 81 36 C81 37.65 81 39.3 81 41 C66.48 41 51.96 41 37 41 C37 39.35 37 37.7 37 36 C39.64 36 42.28 36 45 36 C45 31.38 45 26.76 45 22 C43.70787598 22.01047363 42.41575195 22.02094727 41.08447266 22.03173828 C36.30243691 22.06786719 31.52041327 22.09087451 26.73828125 22.10986328 C24.66632053 22.11993712 22.59437407 22.13359666 20.52246094 22.15087891 C17.54879236 22.17506664 14.5753113 22.18646908 11.6015625 22.1953125 C10.20618759 22.21079636 10.20618759 22.21079636 8.78262329 22.22659302 C7.92188202 22.22674408 7.06114075 22.22689514 6.17431641 22.22705078 C5.41486725 22.231492 4.65541809 22.23593323 3.87295532 22.24050903 C2 22 2 22 0 20 C0 13.4 0 6.8 0 0 Z " fill="#EEEEEE" transform="translate(5,87)"/>
<path d="M0 0 C3.63 0 7.26 0 11 0 C11.33 19.8 11.66 39.6 12 60 C21.549375 60.020625 31.09875 60.04125 40.9375 60.0625 C43.95640381 60.071604 46.97530762 60.08070801 50.08569336 60.09008789 C52.46207637 60.0930068 54.83845988 60.09555541 57.21484375 60.09765625 C59.08565613 60.1053302 59.08565613 60.1053302 60.9942627 60.11315918 C62.76041931 60.11334045 62.76041931 60.11334045 64.56225586 60.11352539 C65.59039902 60.115746 66.61854218 60.11796661 67.67784119 60.12025452 C69.9613511 60.26184609 69.9613511 60.26184609 71 59 C71.23481693 56.81707226 71.41363323 54.62796826 71.5625 52.4375 C71.68818359 50.64119141 71.68818359 50.64119141 71.81640625 48.80859375 C71.87699219 47.88175781 71.93757813 46.95492187 72 46 C72.83772949 45.98018066 73.67545898 45.96036133 74.53857422 45.93994141 C77.64365834 45.86189388 80.74834539 45.77520365 83.85302734 45.68261719 C85.85886971 45.62545964 87.86498918 45.57831404 89.87109375 45.53125 C91.75634766 45.47324219 91.75634766 45.47324219 93.6796875 45.4140625 C95.42354736 45.36693115 95.42354736 45.36693115 97.20263672 45.31884766 C100.13656482 45.27842131 100.13656482 45.27842131 102 43 C102.3293538 41.0631387 102.3293538 41.0631387 102.31884766 38.82568359 C102.33871735 37.96494232 102.35858704 37.10420105 102.37905884 36.21737671 C102.39061005 35.28712677 102.40216125 34.35687683 102.4140625 33.3984375 C102.43342865 32.44683746 102.4527948 31.49523743 102.4727478 30.51480103 C102.53264132 27.46829253 102.57896795 24.42174646 102.625 21.375 C102.66317079 19.3124833 102.70222198 17.2499827 102.7421875 15.1875 C102.83835086 10.12513034 102.92234563 5.06268605 103 0 C104.79133978 -0.05391993 106.58313899 -0.09275571 108.375 -0.125 C109.87160156 -0.15980469 109.87160156 -0.15980469 111.3984375 -0.1953125 C114 0 114 0 116 2 C116.24050903 4.822052 116.24050903 4.822052 116.22705078 8.46923828 C116.22729185 9.14350798 116.22753292 9.81777767 116.2277813 10.51247978 C116.22628659 12.69855751 116.21104709 14.88429565 116.1953125 17.0703125 C116.19237254 18.41853674 116.19033181 19.76676326 116.18920898 21.11499023 C116.17871617 26.1183616 116.15079382 31.12168412 116.125 36.125 C116.08375 47.30375 116.0425 58.4825 116 70 C77.06 70 38.12 70 -2 70 C-2.04125 58.82125 -2.0825 47.6425 -2.125 36.125 C-2.14320801 32.59312988 -2.16141602 29.06125977 -2.18017578 25.42236328 C-2.18920898 21.11499023 -2.18920898 21.11499023 -2.19088745 19.09957886 C-2.19396195 17.68965392 -2.20100295 16.2797343 -2.21115112 14.86984253 C-2.22574309 12.7362146 -2.22781363 10.60290847 -2.22705078 8.46923828 C-2.231492 7.26566681 -2.23593323 6.06209534 -2.24050903 4.822052 C-2 2 -2 2 0 0 Z " fill="#76C1FE" transform="translate(7,17)"/>
<path d="M0 0 C7.115625 -0.061875 7.115625 -0.061875 14.375 -0.125 C15.8707959 -0.14320801 17.3665918 -0.16141602 18.90771484 -0.18017578 C20.66656006 -0.18766846 20.66656006 -0.18766846 22.4609375 -0.1953125 C24.26763916 -0.21102295 24.26763916 -0.21102295 26.11083984 -0.22705078 C29 0 29 0 31 2 C31.26069641 4.19444275 31.26069641 4.19444275 31.2746582 6.95288086 C31.28895622 8.49974831 31.28895622 8.49974831 31.30354309 10.0778656 C31.30263168 11.19556839 31.30172028 12.31327118 31.30078125 13.46484375 C31.30506638 14.60909317 31.3093515 15.75334259 31.31376648 16.93226624 C31.31951784 19.3557977 31.32000415 21.77934644 31.31567383 24.20288086 C31.31251593 27.91875567 31.3359569 31.63383322 31.36132812 35.34960938 C31.36360116 37.70051982 31.36430459 40.05143242 31.36328125 42.40234375 C31.372491 43.51802231 31.38170074 44.63370087 31.39118958 45.78318787 C31.38496078 46.81758499 31.37873199 47.85198212 31.37231445 48.91772461 C31.37294388 49.82880478 31.3735733 50.73988495 31.3742218 51.67857361 C31 54 31 54 28 57 C18.76 57 9.52 57 0 57 C0 38.19 0 19.38 0 0 Z " fill="#CFD0D2" transform="translate(79,6)"/>
<path d="M0 0 C1.74796875 -0.00193359 1.74796875 -0.00193359 3.53125 -0.00390625 C4.7584375 -0.00003906 5.985625 0.00382812 7.25 0.0078125 C9.09078125 0.00201172 9.09078125 0.00201172 10.96875 -0.00390625 C12.71671875 -0.00197266 12.71671875 -0.00197266 14.5 0 C15.57765625 0.00112793 16.6553125 0.00225586 17.765625 0.00341797 C20.25 0.1328125 20.25 0.1328125 21.25 1.1328125 C21.32271741 3.48594805 21.33370868 5.84114918 21.3125 8.1953125 C21.30347656 9.48566406 21.29445312 10.77601562 21.28515625 12.10546875 C21.27355469 13.10449219 21.26195312 14.10351562 21.25 15.1328125 C23.89 15.1328125 26.53 15.1328125 29.25 15.1328125 C29.25 16.7828125 29.25 18.4328125 29.25 20.1328125 C14.73 20.1328125 0.21 20.1328125 -14.75 20.1328125 C-14.75 18.4828125 -14.75 16.8328125 -14.75 15.1328125 C-12.11 15.1328125 -9.47 15.1328125 -6.75 15.1328125 C-6.76160156 14.13378906 -6.77320313 13.13476562 -6.78515625 12.10546875 C-6.79417969 10.81511719 -6.80320312 9.52476563 -6.8125 8.1953125 C-6.82410156 6.90753906 -6.83570313 5.61976562 -6.84765625 4.29296875 C-6.68429406 -0.99343183 -4.76787087 0.0049903 0 0 Z " fill="#BEBEBE" transform="translate(56.75,107.8671875)"/>
<path d="M0 0 C4.29 0 8.58 0 13 0 C13 2.97 13 5.94 13 9 C15.97 9 18.94 9 22 9 C22 12.96 22 16.92 22 21 C19.03 21 16.06 21 13 21 C13 23.97 13 26.94 13 30 C8.71 30 4.42 30 0 30 C0 27.03 0 24.06 0 21 C-2.64 21 -5.28 21 -8 21 C-8 16.71 -8 12.42 -8 8 C-5.36 8 -2.72 8 0 8 C0 5.36 0 2.72 0 0 Z " fill="#E65F54" transform="translate(42,11)"/>
<path d="M0 0 C14.52 0 29.04 0 44 0 C44 1.65 44 3.3 44 5 C29.48 5 14.96 5 0 5 C0 3.35 0 1.7 0 0 Z " fill="#EEEEEE" transform="translate(42,123)"/>
<path d="M0 0 C2.45426089 0.08462969 3.85064617 0.20657309 6.0625 1.3125 C7.74727849 4.68205699 7.35900704 7.5765113 7.0625 11.3125 C5.0625 13.3125 5.0625 13.3125 2.96875 13.578125 C2.1746875 13.57296875 1.380625 13.5678125 0.5625 13.5625 C-0.2315625 13.56765625 -1.025625 13.5728125 -1.84375 13.578125 C-3.9375 13.3125 -3.9375 13.3125 -5.9375 11.3125 C-6.203125 9.21875 -6.203125 9.21875 -6.1875 6.8125 C-6.19265625 6.0184375 -6.1978125 5.224375 -6.203125 4.40625 C-5.68008611 0.28347289 -3.9085318 0.31020094 0 0 Z " fill="#76C97F" transform="translate(93.9375,14.6875)"/>
<path d="M0 0 C9.9 0 19.8 0 30 0 C30 1.32 30 2.64 30 4 C20.1 4 10.2 4 0 4 C0 2.68 0 1.36 0 0 Z " fill="#A4A4A4" transform="translate(34,65)"/>
<path d="M0 0 C4.62 0 9.24 0 14 0 C14 1.65 14 3.3 14 5 C9.38 5 4.76 5 0 5 C0 3.35 0 1.7 0 0 Z " fill="#B1B1B1" transform="translate(33,56)"/>
<path d="M0 0 C1.134375 0.020625 2.26875 0.04125 3.4375 0.0625 C3.53515625 6.21484375 3.53515625 6.21484375 3.4375 8.0625 C2.4375 9.0625 2.4375 9.0625 -0.5625 9.1875 C-3.5625 9.0625 -3.5625 9.0625 -4.5625 8.0625 C-4.6875 4.5625 -4.6875 4.5625 -4.5625 1.0625 C-3.5625 0.0625 -3.5625 0.0625 0 0 Z " fill="#FED153" transform="translate(66.5625,49.9375)"/>
<path d="M0 0 C4.55555556 0.55555556 4.55555556 0.55555556 6 2 C6.1875 4.4375 6.1875 4.4375 6 7 C5.34 7.66 4.68 8.32 4 9 C-0.55555556 8.44444444 -0.55555556 8.44444444 -2 7 C-2.1875 4.5625 -2.1875 4.5625 -2 2 C-1.34 1.34 -0.68 0.68 0 0 Z " fill="#BFBFBF" transform="translate(62,93)"/>
<path d="M0 0 C4.29 0 8.58 0 13 0 C13 1.32 13 2.64 13 4 C8.71 4 4.42 4 0 4 C0 2.68 0 1.36 0 0 Z " fill="#A5A5A5" transform="translate(34,48)"/>
<path d="M0 0 C2.97 0 5.94 0 9 0 C9 1.65 9 3.3 9 5 C6.03 5 3.06 5 0 5 C0 3.35 0 1.7 0 0 Z " fill="#818181" transform="translate(94,43)"/>
<path d="M0 0 C2.64 0 5.28 0 8 0 C8 1.32 8 2.64 8 4 C5.36 4 2.72 4 0 4 C0 2.68 0 1.36 0 0 Z " fill="#717171" transform="translate(95,52)"/>
<path d="M0 0 C2.64 0 5.28 0 8 0 C8 1.32 8 2.64 8 4 C5.36 4 2.72 4 0 4 C0 2.68 0 1.36 0 0 Z " fill="#707070" transform="translate(95,35)"/>
<path d="M0 0 C1.65 0 3.3 0 5 0 C5 1.65 5 3.3 5 5 C3.35 5 1.7 5 0 5 C0 3.35 0 1.7 0 0 Z " fill="#B5B5B5" transform="translate(68,65)"/>
</svg>
