<?xml version="1.0" encoding="UTF-8"?>
<svg version="1.1" xmlns="http://www.w3.org/2000/svg" width="128" height="128">
<path d="M0 0 C12.87 0 25.74 0 39 0 C39 2.31 39 4.62 39 7 C28.11 7 17.22 7 6 7 C6.33 21.85 6.66 36.7 7 52 C13.53463656 43.52630892 13.53463656 43.52630892 20 35 C22.64169076 34.05170075 24.19691226 33.73063099 26.875 34.62890625 C29.84418993 36.54468873 31.48712699 38.96456851 33.5625 41.8125 C34.32691406 42.85019531 35.09132812 43.88789062 35.87890625 44.95703125 C38 48 38 48 39.27734375 50.82421875 C41.3305134 53.41745117 42.01657307 53.4105221 45.1875 53.8125 C47.0746875 53.9053125 47.0746875 53.9053125 49 54 C49.67546875 52.91460937 50.3509375 51.82921875 51.046875 50.7109375 C51.94786796 49.26559463 52.84891236 47.82028384 53.75 46.375 C54.41515625 45.30572266 54.41515625 45.30572266 55.09375 44.21484375 C56.38890276 42.13879007 57.69413813 40.06932786 59 38 C59.55312866 37.09882446 59.55312866 37.09882446 60.11743164 36.17944336 C61.92697459 33.31006826 62.70430374 32.11953679 65.9375 30.8125 C69 31 69 31 71.625 32.875 C74.61551124 36.80988321 78 41.87985048 78 47 C80.87358621 47.13930615 80.87358621 47.13930615 84 46 C85.87738605 43.53952175 86.95909642 40.7898855 88.125 37.9375 C88.7724863 36.44620123 89.42092127 34.95531399 90.0703125 33.46484375 C90.54259277 32.35858643 90.54259277 32.35858643 91.02441406 31.22998047 C95.11093811 21.88906189 95.11093811 21.88906189 98 19 C103.2632613 18.44007859 103.2632613 18.44007859 105.5625 20.1875 C106.036875 20.785625 106.51125 21.38375 107 22 C107.78375 22.78375 108.5675 23.5675 109.375 24.375 C113.25 28.25 117.125 32.125 121 36 C121.33 26.43 121.66 16.86 122 7 C109.79 7 97.58 7 85 7 C85 4.69 85 2.38 85 0 C99.19 0 113.38 0 128 0 C128 30.36 128 60.72 128 92 C114.47 92 100.94 92 87 92 C87 95.96 87 99.92 87 104 C90.63 104 94.26 104 98 104 C98 105.32 98 106.64 98 108 C75.23 108 52.46 108 29 108 C29 106.68 29 105.36 29 104 C32.96 104 36.92 104 41 104 C41 100.04 41 96.08 41 92 C27.47 92 13.94 92 0 92 C0 61.64 0 31.28 0 0 Z M101.0703125 30.9921875 C97.59141706 32.13411501 97.38611632 32.47817526 95.8046875 35.5703125 C95.13822326 37.07848656 94.49573286 38.59743518 93.875 40.125 C93.22939338 41.62882265 92.58097847 43.13144295 91.9296875 44.6328125 C91.45873657 45.73157715 91.45873657 45.73157715 90.97827148 46.85253906 C86.34844849 57.01573423 86.34844849 57.01573423 83 59 C79.625 59.4375 79.625 59.4375 76 58 C73.81343927 54.17351872 72.41299693 50.16308601 71 46 C70.505 45.01 70.505 45.01 70 44 C66.74744 43.30891698 66.74744 43.30891698 63 44 C60.51528067 46.41007771 58.90789498 49.26539376 57.1875 52.25 C56.71119141 53.02730469 56.23488281 53.80460937 55.74414062 54.60546875 C54.03339768 57.42061537 52.36961615 60.20656557 50.9777832 63.19433594 C50 65 50 65 48 66 C45.3276379 66.13415472 42.67749512 66.04318541 40 66 C39.75378906 65.15179688 39.50757813 64.30359375 39.25390625 63.4296875 C36.99588068 57.25353034 32.86097067 48.84375804 26.65234375 45.87890625 C23.1013708 45.58045398 20.96705353 46.27269516 18.125 48.41015625 C14.13816519 52.60167231 6 62.11752245 6 68 C44.28 68 82.56 68 122 68 C122.86210995 50.11208912 122.86210995 50.11208912 114 38 C113.01773438 36.90365234 113.01773438 36.90365234 112.015625 35.78515625 C109.6542932 33.22897189 109.6542932 33.22897189 107 31 C105.02343578 31 103.04686969 30.99745832 101.0703125 30.9921875 Z " fill="#2DA9CC" transform="translate(0,20)"/>
<path d="M0 0 C12.87 0 25.74 0 39 0 C39 2.31 39 4.62 39 7 C28.11 7 17.22 7 6 7 C6.01160156 10.18914063 6.02320313 13.37828125 6.03515625 16.6640625 C6.04303089 19.87174379 6.04905934 23.07942386 6.05493164 26.28710938 C6.05985544 28.45866403 6.06659441 30.63021559 6.07543945 32.80175781 C6.14582357 50.571678 5.59266754 68.21997392 5 86 C43.94 86 82.88 86 123 86 C122.67 80.39 122.34 74.78 122 69 C121.92433305 63.92022556 121.88167865 58.85597855 121.90234375 53.77734375 C121.90421755 52.41158603 121.90563687 51.04582762 121.90663147 49.68006897 C121.91038117 46.15064513 121.92014315 42.62126494 121.93133545 39.09185791 C121.94171564 35.46423951 121.94621951 31.83661358 121.95117188 28.20898438 C121.9612398 21.13928484 121.98082937 14.0697039 122 7 C109.79 7 97.58 7 85 7 C85 4.69 85 2.38 85 0 C99.19 0 113.38 0 128 0 C128 30.36 128 60.72 128 92 C114.47 92 100.94 92 87 92 C87 95.96 87 99.92 87 104 C90.63 104 94.26 104 98 104 C98 105.32 98 106.64 98 108 C75.23 108 52.46 108 29 108 C29 106.68 29 105.36 29 104 C32.96 104 36.92 104 41 104 C41 100.04 41 96.08 41 92 C27.47 92 13.94 92 0 92 C0 61.64 0 31.28 0 0 Z " fill="#457487" transform="translate(0,20)"/>
<path d="M0 0 C3.0625 0.3125 3.0625 0.3125 4.625 1.5 C5.099375 2.098125 5.57375 2.69625 6.0625 3.3125 C7.238125 4.488125 7.238125 4.488125 8.4375 5.6875 C9.30375 6.55375 10.17 7.42 11.0625 8.3125 C11.866875 9.09625 12.67125 9.88 13.5 10.6875 C14.345625 11.55375 15.19125 12.42 16.0625 13.3125 C16.60648437 13.81394531 17.15046875 14.31539062 17.7109375 14.83203125 C20.3362625 17.46351898 21.90848382 19.22644776 22.44140625 22.984375 C22.4379155 25.45582725 22.32935351 27.85645933 22.0625 30.3125 C21.4025 30.3125 20.7425 30.3125 20.0625 30.3125 C18.75025323 28.65150296 17.51232835 26.93143656 16.3125 25.1875 C11.78095751 18.68298549 11.78095751 18.68298549 6.0625 13.3125 C2.99183178 12.8521527 0.13838459 12.94339385 -2.9375 13.3125 C-3.19789062 14.15941406 -3.45828125 15.00632812 -3.7265625 15.87890625 C-5.45765919 20.787403 -7.83423034 25.32632454 -10.2109375 29.9453125 C-11.19192288 31.85845593 -12.1512889 33.78404856 -13.0390625 35.7421875 C-13.9375 37.625 -13.9375 37.625 -15.9375 40.3125 C-19.4375 41.5 -19.4375 41.5 -22.9375 41.3125 C-27.68594806 38.46343117 -29.2839873 32.36099089 -30.9375 27.3125 C-30.9375 26.6525 -30.9375 25.9925 -30.9375 25.3125 C-35.54913913 25.31463673 -35.54913913 25.31463673 -39.29443359 27.70458984 C-40.5208447 29.59061826 -41.58950546 31.5028396 -42.625 33.5 C-43.35676772 34.8275432 -44.08982734 36.15437516 -44.82421875 37.48046875 C-45.17403809 38.12419434 -45.52385742 38.76791992 -45.88427734 39.43115234 C-50.0472495 46.86737475 -50.0472495 46.86737475 -52.9375 48.3125 C-58.37433251 48.77520915 -58.37433251 48.77520915 -60.49365234 47.03393555 C-61.97606509 45.26652055 -63.02479038 43.55697266 -64.1015625 41.51953125 C-64.50246094 40.80732422 -64.90335938 40.09511719 -65.31640625 39.36132812 C-66.14666312 37.87129032 -66.95416591 36.36834309 -67.73828125 34.85351562 C-70.0715694 30.74694371 -70.0715694 30.74694371 -74.13085938 28.66967773 C-78.05483458 28.46694976 -80.23127365 28.77383372 -83.390625 31.18359375 C-84.28007813 32.45396484 -84.28007813 32.45396484 -85.1875 33.75 C-86.15429688 35.10544922 -86.15429688 35.10544922 -87.140625 36.48828125 C-89.59197835 40.34116923 -91.8870663 44.23134831 -93.9375 48.3125 C-94.5975 48.3125 -95.2575 48.3125 -95.9375 48.3125 C-96.81227877 39.64571035 -95.36099603 35.02730461 -89.9375 28.3125 C-88.87234444 26.8769666 -87.80973491 25.43953965 -86.75 24 C-85.81382704 22.76982231 -84.87635208 21.54063424 -83.9375 20.3125 C-83.43476562 19.59449219 -82.93203125 18.87648438 -82.4140625 18.13671875 C-80.9375 16.3125 -80.9375 16.3125 -78.5 15.4375 C-75.44634398 15.28854117 -74.49577606 15.66184762 -71.9375 17.3125 C-69.68359375 19.95703125 -69.68359375 19.95703125 -67.375 23.125 C-66.22837891 24.68154297 -66.22837891 24.68154297 -65.05859375 26.26953125 C-62.9375 29.3125 -62.9375 29.3125 -61.66015625 32.13671875 C-59.6069866 34.72995117 -58.92092693 34.7230221 -55.75 35.125 C-53.8628125 35.2178125 -53.8628125 35.2178125 -51.9375 35.3125 C-51.26203125 34.22710937 -50.5865625 33.14171875 -49.890625 32.0234375 C-48.98963204 30.57809463 -48.08858764 29.13278384 -47.1875 27.6875 C-46.52234375 26.61822266 -46.52234375 26.61822266 -45.84375 25.52734375 C-44.54859724 23.45129007 -43.24336187 21.38182786 -41.9375 19.3125 C-41.38437134 18.41132446 -41.38437134 18.41132446 -40.82006836 17.49194336 C-39.01052541 14.62256826 -38.23319626 13.43203679 -35 12.125 C-31.9375 12.3125 -31.9375 12.3125 -29.3125 14.1875 C-26.32198876 18.12238321 -22.9375 23.19235048 -22.9375 28.3125 C-20.06391379 28.45180615 -20.06391379 28.45180615 -16.9375 27.3125 C-15.06011395 24.85202175 -13.97840358 22.1023855 -12.8125 19.25 C-12.1650137 17.75870123 -11.51657873 16.26781399 -10.8671875 14.77734375 C-10.39490723 13.67108643 -10.39490723 13.67108643 -9.91308594 12.54248047 C-4.6419645 0.49382601 -4.6419645 0.49382601 0 0 Z " fill="#918FC4" transform="translate(100.9375,38.6875)"/>
<path d="M0 0 C15.18 0 30.36 0 46 0 C46 4.29 46 8.58 46 13 C49.63 13 53.26 13 57 13 C57 14.32 57 15.64 57 17 C34.23 17 11.46 17 -12 17 C-12 15.68 -12 14.36 -12 13 C-8.04 13 -4.08 13 0 13 C0 8.71 0 4.42 0 0 Z " fill="#CEDCDE" transform="translate(41,111)"/>
<path d="M0 0 C5.94 0 11.88 0 18 0 C18 5.94 18 11.88 18 18 C20.64 18 23.28 18 26 18 C23.80274998 22.6960061 20.69502576 26.58269303 17.5625 30.6875 C16.97662109 31.47189453 16.39074219 32.25628906 15.78710938 33.06445312 C15.21927734 33.81017578 14.65144531 34.55589844 14.06640625 35.32421875 C13.55021729 36.00572998 13.03402832 36.68724121 12.50219727 37.3894043 C11 39 11 39 8 40 C2.39553361 32.83381472 -3.11423491 25.68614264 -8 18 C-5.36 18 -2.72 18 0 18 C0 12.06 0 6.12 0 0 Z " fill="#FBCE4A" transform="translate(53,1)"/>
<path d="M0 0 C3.0625 0.3125 3.0625 0.3125 4.625 1.5 C5.099375 2.098125 5.57375 2.69625 6.0625 3.3125 C6.84625 4.09625 7.63 4.88 8.4375 5.6875 C9.30375 6.55375 10.17 7.42 11.0625 8.3125 C11.866875 9.09625 12.67125 9.88 13.5 10.6875 C14.345625 11.55375 15.19125 12.42 16.0625 13.3125 C16.60648438 13.81394531 17.15046875 14.31539062 17.7109375 14.83203125 C20.3362625 17.46351898 21.90848382 19.22644776 22.44140625 22.984375 C22.4379155 25.45582725 22.32935351 27.85645933 22.0625 30.3125 C21.4025 30.3125 20.7425 30.3125 20.0625 30.3125 C18.75025323 28.65150296 17.51232835 26.93143656 16.3125 25.1875 C11.78095751 18.68298549 11.78095751 18.68298549 6.0625 13.3125 C2.99183178 12.8521527 0.13838459 12.94339385 -2.9375 13.3125 C-3.19789062 14.15941406 -3.45828125 15.00632812 -3.7265625 15.87890625 C-5.45765919 20.787403 -7.83423034 25.32632454 -10.2109375 29.9453125 C-11.19192288 31.85845593 -12.1512889 33.78404856 -13.0390625 35.7421875 C-13.9375 37.625 -13.9375 37.625 -15.9375 40.3125 C-19.4375 41.5 -19.4375 41.5 -22.9375 41.3125 C-27.56789073 38.53426556 -29.61684198 32.3682706 -30.9375 27.3125 C-30.47293892 23.91386894 -29.10180934 21.94731138 -26.9375 19.3125 C-22.9375 26.0625 -22.9375 26.0625 -22.9375 28.3125 C-20.06391379 28.45180615 -20.06391379 28.45180615 -16.9375 27.3125 C-15.06011395 24.85202175 -13.97840358 22.1023855 -12.8125 19.25 C-12.1650137 17.75870123 -11.51657873 16.26781399 -10.8671875 14.77734375 C-10.55233398 14.03983887 -10.23748047 13.30233398 -9.91308594 12.54248047 C-4.6419645 0.49382601 -4.6419645 0.49382601 0 0 Z " fill="#CEDBDE" transform="translate(100.9375,38.6875)"/>
<path d="M0 0 C22.77 0 45.54 0 69 0 C69 1.32 69 2.64 69 4 C46.23 4 23.46 4 0 4 C0 2.68 0 1.36 0 0 Z " fill="#457387" transform="translate(29,124)"/>
<path d="M0 0 C2 1.6875 2 1.6875 3 4 C2.23021995 7.49900021 1.543667 9.456333 -1 12 C-2.09828125 12.05285156 -3.1965625 12.10570313 -4.328125 12.16015625 C-8.25875316 13.0591829 -8.54471103 13.15725385 -10.546875 16.30859375 C-11.30569898 17.67156852 -12.03956484 19.04868902 -12.75 20.4375 C-16.70198795 27.8013253 -16.70198795 27.8013253 -20 30 C-22.45910631 23.33805744 -22.45910631 23.33805744 -21.29199219 19.93652344 C-20.0888432 17.82510484 -18.78308685 15.85547988 -17.375 13.875 C-16.92253906 13.19824219 -16.47007813 12.52148438 -16.00390625 11.82421875 C-15.11202179 10.49538802 -14.20829412 9.17441739 -13.29199219 7.86230469 C-12.08412968 6.12126629 -10.9339768 4.35306206 -9.7890625 2.5703125 C-6.83789634 -1.6695725 -4.80704487 -1.27533843 0 0 Z " fill="#D1DDDF" transform="translate(71,52)"/>
<path d="M0 0 C3.0916909 2.52956528 3.90931332 5.22454612 5 9 C6.98 9 8.96 9 11 9 C14.03541315 14.22091062 14.03541315 14.22091062 13.875 17.75 C13 20 13 20 10 22 C6.5625 22.1875 6.5625 22.1875 3 21 C1.14426243 18.17654652 0.12395935 15.16945884 -1 12 C-1.36996094 11.28457031 -1.73992187 10.56914063 -2.12109375 9.83203125 C-3 8 -3 8 -2.75 6 C-1.96713323 3.91235527 -1.05252193 1.96470761 0 0 Z " fill="#FACF4A" transform="translate(73,58)"/>
<path d="M0 0 C1.65 1.65 3.3 3.3 5 5 C3.73482556 7.75273109 2.46314026 10.50212343 1.1875 13.25 C0.65286133 14.41595703 0.65286133 14.41595703 0.10742188 15.60546875 C-3.48649371 23.32084717 -3.48649371 23.32084717 -6 26 C-6.66 26 -7.32 26 -8 26 C-9.38297519 23.80350999 -10.04403813 22.48981181 -9.80859375 19.87109375 C-8.6904221 15.90077412 -6.88194062 12.40859786 -5 8.75 C-4.44699219 7.65171875 -4.44699219 7.65171875 -3.8828125 6.53125 C-1.15472274 1.15472274 -1.15472274 1.15472274 0 0 Z " fill="#D1DEDE" transform="translate(94,47)"/>
<path d="M0 0 C0.66 0 1.32 0 2 0 C4.05783457 3.38937458 4.05783457 3.38937458 3.83203125 5.7734375 C2.64804286 8.94185712 0.71113027 11.22176635 -1.375 13.875 C-4.4387076 17.7769859 -6.91430088 21.49219867 -9 26 C-9.66 26 -10.32 26 -11 26 C-11.74429834 18.6259331 -11.19481063 13.97606905 -6.66015625 8.015625 C-5.83837891 7.01789063 -5.83837891 7.01789063 -5 6 C-4.52433594 5.37609375 -4.04867188 4.7521875 -3.55859375 4.109375 C-2.44174467 2.68247527 -1.22905304 1.33147412 0 0 Z " fill="#CDDBDE" transform="translate(16,61)"/>
<path d="M0 0 C3.125 0.3125 3.125 0.3125 5 1.875 C6.53599832 5.20299636 6.52703506 7.69418449 6.125 11.3125 C2.65576119 13.62532587 1.20294425 13.73728586 -2.875 13.3125 C-5.43449546 11.45907225 -5.85418798 10.37493607 -6.875 7.3125 C-3.84121005 0.41752283 -3.84121005 0.41752283 0 0 Z " fill="#F374B2" transform="translate(44.875,73.6875)"/>
<path d="M0 0 C3.0625 0.3125 3.0625 0.3125 4.7734375 1.5390625 C6.0625 3.3125 6.0625 3.3125 6.13671875 5.57421875 C5.94529297 6.77498047 5.94529297 6.77498047 5.75 8 C5.57017578 9.21236328 5.57017578 9.21236328 5.38671875 10.44921875 C5.27972656 11.06410156 5.17273438 11.67898437 5.0625 12.3125 C1.875 13.125 1.875 13.125 -1.9375 13.3125 C-4.875 10.875 -4.875 10.875 -6.9375 8.3125 C-4.55509082 0.48458413 -4.55509082 0.48458413 0 0 Z " fill="#F475B2" transform="translate(100.9375,38.6875)"/>
<path d="M0 0 C2 1.6875 2 1.6875 3 4 C2.23021995 7.49900021 1.543667 9.456333 -1 12 C-3.9375 12.375 -3.9375 12.375 -7 12 C-9.58525068 9.75944941 -9.95386189 8.3229668 -10.4375 4.9375 C-10 2 -10 2 -8.375 0.0625 C-5.12427252 -1.39177282 -3.36479974 -1.07387226 0 0 Z " fill="#3CB3C0" transform="translate(71,52)"/>
<path d="M0 0 C5.05371816 4.44114626 9.26707672 9.83062864 12 16 C10.9375 19.6875 10.9375 19.6875 9 22 C4.58669581 17.976105 0.40746095 13.52892173 -2 8 C-1.91197216 4.87242263 -1.18298892 2.95747231 0 0 Z " fill="#D0DDE0" transform="translate(30,59)"/>
<path d="M0 0 C2.33333823 2.12121657 3.9148886 4.01594365 5 7 C4.62925373 10.05865675 3.76554463 11.35168306 2 14 C1.34 14 0.68 14 0 14 C-3.05498982 8.62321792 -3.05498982 8.62321792 -2.8125 5.875 C-1.94508118 3.87326427 -1.03031985 1.92326371 0 0 Z " fill="#CFDDDD" transform="translate(73,58)"/>
</svg>
