<?xml version="1.0" encoding="UTF-8"?>
<svg version="1.1" xmlns="http://www.w3.org/2000/svg" width="512" height="512">
<path d="M0 0 C1.21562261 -0.00525911 1.21562261 -0.00525911 2.45580325 -0.01062447 C5.18266079 -0.01995904 7.90930574 -0.01500985 10.63617229 -0.01015663 C12.60644238 -0.01389185 14.57671098 -0.01849286 16.54697722 -0.02388728 C21.97020477 -0.0361485 27.39337077 -0.03585314 32.81660903 -0.03349853 C38.66200093 -0.03309115 44.50737289 -0.04412193 50.35275555 -0.05361366 C61.80830026 -0.07024166 73.2638244 -0.07572402 84.71938018 -0.07683842 C94.02888347 -0.07778802 103.33837996 -0.08189393 112.64788151 -0.08823967 C115.32686652 -0.09003474 118.00585154 -0.09181436 120.68483657 -0.09358943 C121.35082624 -0.09403152 122.01681592 -0.09447362 122.7029871 -0.09492911 C141.43817291 -0.10723892 160.17335641 -0.1151301 178.90854645 -0.11424255 C179.61502182 -0.1142114 180.3214972 -0.11418024 181.04938092 -0.11414814 C184.63015365 -0.11398192 188.21092637 -0.11378384 191.79169909 -0.11357872 C192.50286297 -0.11353883 193.21402685 -0.11349894 193.94674116 -0.11345784 C195.38488813 -0.11337697 196.8230351 -0.11329337 198.26118208 -0.11320706 C220.63731869 -0.1119815 243.0133947 -0.12699505 265.38951397 -0.15435219 C290.52464772 -0.18506979 315.65974164 -0.20228488 340.79489535 -0.20042574 C354.10506989 -0.19968441 367.41518031 -0.20528478 380.72533894 -0.22678185 C392.05716278 -0.24496611 403.38888728 -0.24936363 414.72071937 -0.235763 C420.50395073 -0.22921951 426.28699136 -0.22916605 432.07020473 -0.2464695 C437.36336733 -0.26214404 442.65618708 -0.25939406 447.94934102 -0.24190123 C449.8652043 -0.23881894 451.7810928 -0.24250973 453.69692633 -0.25362138 C456.30052816 -0.26772306 458.9029242 -0.25717185 461.50648499 -0.24050903 C462.25091676 -0.25044539 462.99534853 -0.26038175 463.76233885 -0.27061921 C470.20254594 -0.18343445 475.33607725 1.97367787 480.1841917 6.22211266 C480.72301983 6.87308922 481.26184795 7.52406578 481.8170042 8.19476891 C482.37130108 8.84316734 482.92559795 9.49156578 483.4966917 10.15961266 C486.38808665 14.35604261 487.19221109 18.01176048 487.19927311 23.06636333 C487.205722 24.23483911 487.21217089 25.40331488 487.21881521 26.60719901 C487.215718 27.88675458 487.2126208 29.16631014 487.20942974 30.48464012 C487.21316673 31.86093971 487.21776845 33.23723719 487.22316039 34.61353129 C487.23539982 38.39493964 487.23512882 42.17625957 487.23277164 45.95768321 C487.23236371 50.0361916 487.24340033 54.11467157 487.25288677 58.19316673 C487.26950295 66.18357345 487.2749966 74.17395065 487.27611153 82.1643732 C487.27706172 88.65923215 487.28117055 95.15408136 487.28751278 101.64893723 C487.30512693 120.06161061 487.31435139 138.47426067 487.31285183 156.88694254 C487.31273196 158.37603412 487.31273196 158.37603412 487.31260967 159.89520836 C487.31252791 160.8891477 487.31244615 161.88308704 487.31236191 162.90714576 C487.31154898 179.01604747 487.33068806 195.12485569 487.35888641 211.23373035 C487.38760943 227.77279544 487.40142702 244.31181493 487.39969885 260.8509056 C487.39903475 270.13691606 487.40453606 279.42282852 487.42605495 288.70881653 C487.4442591 296.61509925 487.44862042 304.52123954 487.43503611 312.42753414 C487.42850254 316.46096544 487.4284031 320.49412341 487.44574261 324.52752876 C487.4614615 328.22197627 487.45862223 331.91593347 487.44117434 335.61036893 C487.43664933 337.57563009 487.45177111 339.54090639 487.46765363 341.50610858 C487.40402421 349.64380704 486.49203906 355.20613569 480.97716045 361.49945641 C480.32618389 362.03828453 479.67520733 362.57711266 479.0045042 363.13226891 C478.35610577 363.68656578 477.70770733 364.24086266 477.03966045 364.81195641 C472.35176805 368.04197538 468.08610638 368.54516847 462.50723553 368.49777794 C461.3982682 368.50034121 461.3982682 368.50034121 460.2668975 368.50295627 C457.79481232 368.50624501 455.32299984 368.49525773 452.85093975 368.48431969 C451.07682584 368.48375544 449.30271147 368.4840724 447.52859783 368.4852047 C442.71495693 368.48577868 437.90141563 368.47401691 433.08779788 368.46005678 C428.0562797 368.4475571 423.02475926 368.44637952 417.99322796 368.44400597 C408.46647724 368.43778896 398.9397724 368.42137514 389.41304189 368.40130699 C378.56670584 368.37895486 367.7203676 368.36795628 356.87401426 368.35791612 C334.5633188 368.33700913 312.25266407 368.30182884 289.9420042 368.25726891 C290.18630169 369.22113518 290.18630169 369.22113518 290.43553448 370.2044735 C292.12810577 376.88633635 293.81407564 383.5698398 295.49620342 390.25433922 C296.1250404 392.74955914 296.75556536 395.24435429 297.38780499 397.73871422 C298.29572214 401.32192256 299.19757895 404.90660935 300.0982542 408.49164391 C300.38261333 409.60843529 300.66697247 410.72522667 300.95994854 411.87586021 C301.3503532 413.43702568 301.3503532 413.43702568 301.74864483 415.02972984 C301.97958843 415.94462181 302.21053204 416.85951378 302.44847393 417.80212975 C302.9420042 420.25726891 302.9420042 420.25726891 302.9420042 424.25726891 C303.57702862 424.23632164 304.21205303 424.21537437 304.86632061 424.19379234 C307.76638497 424.1102231 310.66619536 424.05848117 313.5670042 424.00726891 C314.56602764 423.97375328 315.56505108 423.94023766 316.59434795 423.90570641 C322.55325784 423.82678045 326.37316032 424.01175859 330.9420042 428.25726891 C334.9420042 434.25726891 334.9420042 434.25726891 334.9420042 456.25726891 C266.3020042 456.25726891 197.6620042 456.25726891 126.9420042 456.25726891 C126.9420042 434.25726891 126.9420042 434.25726891 130.9420042 428.25726891 C136.26942338 423.30686708 141.45008554 423.77689486 148.3170042 424.00726891 C149.33923077 424.02531578 150.36145733 424.04336266 151.41466045 424.06195641 C153.92475169 424.108874 156.43288185 424.17450161 158.9420042 424.25726891 C159.05084942 423.16994469 159.15969463 422.08262047 159.27183819 420.96234703 C159.95542408 415.52229488 161.31101483 410.28199823 162.66466045 404.97601891 C162.92959805 403.92192833 163.19453564 402.86783775 163.46750164 401.78180504 C164.30872943 398.43915507 165.15651211 395.09820852 166.0045042 391.75726891 C166.5785067 389.48133685 167.15207898 387.20529625 167.72520733 384.92914391 C169.12582968 379.37058628 170.53182712 373.81340976 171.9420042 368.25726891 C170.561558 368.26279966 170.561558 368.26279966 169.15322399 368.26844215 C146.75193336 368.35681088 124.3506728 368.42298719 101.9492445 368.46451759 C91.11603819 368.48513563 80.28294829 368.51324184 69.4498167 368.55902672 C60.00675837 368.59891757 50.56378435 368.62470723 41.12064409 368.63362288 C36.12136013 368.6388338 31.12231737 368.65106572 26.12311077 368.68018913 C21.41502607 368.70739367 16.70728132 368.71570369 11.99912548 368.70969963 C10.27380557 368.71079761 8.54847397 368.71872147 6.82322216 368.73409081 C-10.77913088 368.88317318 -10.77913088 368.88317318 -18.3001833 362.29242516 C-18.83901142 361.64144859 -19.37783955 360.99047203 -19.9329958 360.31976891 C-20.48729267 359.67137047 -21.04158955 359.02297203 -21.6126833 358.35492516 C-24.50407824 354.1584952 -25.30820269 350.50277733 -25.3152647 345.44817448 C-25.32171359 344.2796987 -25.32816249 343.11122293 -25.3348068 341.9073388 C-25.3317096 340.62778323 -25.32861239 339.34822767 -25.32542133 338.02989769 C-25.32915833 336.6535981 -25.33376004 335.27730062 -25.33915198 333.90100652 C-25.35139141 330.11959818 -25.35112041 326.33827824 -25.34876323 322.55685461 C-25.3483553 318.47834621 -25.35939193 314.39986625 -25.36887836 310.32137108 C-25.38549454 302.33096436 -25.39098819 294.34058716 -25.39210312 286.35016461 C-25.39305331 279.85530566 -25.39716214 273.36045645 -25.40350437 266.86560059 C-25.42111852 248.4529272 -25.43034298 230.04027714 -25.42884342 211.62759527 C-25.42876351 210.63486755 -25.4286836 209.64213983 -25.42860126 208.61932945 C-25.4285195 207.62539011 -25.42843774 206.63145077 -25.4283535 205.60739205 C-25.42754057 189.49849034 -25.44667965 173.38968212 -25.474878 157.28080746 C-25.50360102 140.74174237 -25.51741861 124.20272288 -25.51569045 107.66363221 C-25.51502634 98.37762175 -25.52052765 89.09170929 -25.54204655 79.80572128 C-25.56025069 71.89943856 -25.56461201 63.99329827 -25.5510277 56.08700367 C-25.54449413 52.05357237 -25.54439469 48.02041441 -25.5617342 43.98700905 C-25.5774531 40.29256154 -25.57461382 36.59860434 -25.55716594 32.90416888 C-25.55264093 30.93890772 -25.5677627 28.97363142 -25.58364522 27.00842923 C-25.5200158 18.87073077 -24.60803065 13.30840212 -19.09315205 7.01508141 C-18.44217548 6.47625328 -17.79119892 5.93742516 -17.1204958 5.38226891 C-16.47209736 4.82797203 -15.82369892 4.27367516 -15.15565205 3.70258141 C-10.27781394 0.34168737 -5.79544112 -0.03170243 0 0 Z " fill="#F4F6F9" transform="translate(25.057995796203613,27.74273109436035)"/>
<path d="M0 0 C1.21562261 -0.00525911 1.21562261 -0.00525911 2.45580325 -0.01062447 C5.18266079 -0.01995904 7.90930574 -0.01500985 10.63617229 -0.01015663 C12.60644238 -0.01389185 14.57671098 -0.01849286 16.54697722 -0.02388728 C21.97020477 -0.0361485 27.39337077 -0.03585314 32.81660903 -0.03349853 C38.66200093 -0.03309115 44.50737289 -0.04412193 50.35275555 -0.05361366 C61.80830026 -0.07024166 73.2638244 -0.07572402 84.71938018 -0.07683842 C94.02888347 -0.07778802 103.33837996 -0.08189393 112.64788151 -0.08823967 C115.32686652 -0.09003474 118.00585154 -0.09181436 120.68483657 -0.09358943 C121.35082624 -0.09403152 122.01681592 -0.09447362 122.7029871 -0.09492911 C141.43817291 -0.10723892 160.17335641 -0.1151301 178.90854645 -0.11424255 C179.61502182 -0.1142114 180.3214972 -0.11418024 181.04938092 -0.11414814 C184.63015365 -0.11398192 188.21092637 -0.11378384 191.79169909 -0.11357872 C192.50286297 -0.11353883 193.21402685 -0.11349894 193.94674116 -0.11345784 C195.38488813 -0.11337697 196.8230351 -0.11329337 198.26118208 -0.11320706 C220.63731869 -0.1119815 243.0133947 -0.12699505 265.38951397 -0.15435219 C290.52464772 -0.18506979 315.65974164 -0.20228488 340.79489535 -0.20042574 C354.10506989 -0.19968441 367.41518031 -0.20528478 380.72533894 -0.22678185 C392.05716278 -0.24496611 403.38888728 -0.24936363 414.72071937 -0.235763 C420.50395073 -0.22921951 426.28699136 -0.22916605 432.07020473 -0.2464695 C437.36336733 -0.26214404 442.65618708 -0.25939406 447.94934102 -0.24190123 C449.8652043 -0.23881894 451.7810928 -0.24250973 453.69692633 -0.25362138 C456.30052816 -0.26772306 458.9029242 -0.25717185 461.50648499 -0.24050903 C462.25091676 -0.25044539 462.99534853 -0.26038175 463.76233885 -0.27061921 C470.20254594 -0.18343445 475.33607725 1.97367787 480.1841917 6.22211266 C480.72301983 6.87308922 481.26184795 7.52406578 481.8170042 8.19476891 C482.37130108 8.84316734 482.92559795 9.49156578 483.4966917 10.15961266 C486.38808665 14.35604261 487.19221109 18.01176048 487.19927311 23.06636333 C487.205722 24.23483911 487.21217089 25.40331488 487.21881521 26.60719901 C487.215718 27.88675458 487.2126208 29.16631014 487.20942974 30.48464012 C487.21316673 31.86093971 487.21776845 33.23723719 487.22316039 34.61353129 C487.23539982 38.39493964 487.23512882 42.17625957 487.23277164 45.95768321 C487.23236371 50.0361916 487.24340033 54.11467157 487.25288677 58.19316673 C487.26950295 66.18357345 487.2749966 74.17395065 487.27611153 82.1643732 C487.27706172 88.65923215 487.28117055 95.15408136 487.28751278 101.64893723 C487.30512693 120.06161061 487.31435139 138.47426067 487.31285183 156.88694254 C487.31273196 158.37603412 487.31273196 158.37603412 487.31260967 159.89520836 C487.31252791 160.8891477 487.31244615 161.88308704 487.31236191 162.90714576 C487.31154898 179.01604747 487.33068806 195.12485569 487.35888641 211.23373035 C487.38760943 227.77279544 487.40142702 244.31181493 487.39969885 260.8509056 C487.39903475 270.13691606 487.40453606 279.42282852 487.42605495 288.70881653 C487.4442591 296.61509925 487.44862042 304.52123954 487.43503611 312.42753414 C487.42850254 316.46096544 487.4284031 320.49412341 487.44574261 324.52752876 C487.4614615 328.22197627 487.45862223 331.91593347 487.44117434 335.61036893 C487.43664933 337.57563009 487.45177111 339.54090639 487.46765363 341.50610858 C487.40402421 349.64380704 486.49203906 355.20613569 480.97716045 361.49945641 C480.32618389 362.03828453 479.67520733 362.57711266 479.0045042 363.13226891 C478.35610577 363.68656578 477.70770733 364.24086266 477.03966045 364.81195641 C472.35176805 368.04197538 468.08610638 368.54516847 462.50723553 368.49777794 C461.3982682 368.50034121 461.3982682 368.50034121 460.2668975 368.50295627 C457.79481232 368.50624501 455.32299984 368.49525773 452.85093975 368.48431969 C451.07682584 368.48375544 449.30271147 368.4840724 447.52859783 368.4852047 C442.71495693 368.48577868 437.90141563 368.47401691 433.08779788 368.46005678 C428.0562797 368.4475571 423.02475926 368.44637952 417.99322796 368.44400597 C408.46647724 368.43778896 398.9397724 368.42137514 389.41304189 368.40130699 C378.56670584 368.37895486 367.7203676 368.36795628 356.87401426 368.35791612 C334.5633188 368.33700913 312.25266407 368.30182884 289.9420042 368.25726891 C290.18630169 369.22113518 290.18630169 369.22113518 290.43553448 370.2044735 C292.12810577 376.88633635 293.81407564 383.5698398 295.49620342 390.25433922 C296.1250404 392.74955914 296.75556536 395.24435429 297.38780499 397.73871422 C298.29572214 401.32192256 299.19757895 404.90660935 300.0982542 408.49164391 C300.38261333 409.60843529 300.66697247 410.72522667 300.95994854 411.87586021 C301.3503532 413.43702568 301.3503532 413.43702568 301.74864483 415.02972984 C301.97958843 415.94462181 302.21053204 416.85951378 302.44847393 417.80212975 C302.9420042 420.25726891 302.9420042 420.25726891 302.9420042 424.25726891 C303.57702862 424.23632164 304.21205303 424.21537437 304.86632061 424.19379234 C307.76638497 424.1102231 310.66619536 424.05848117 313.5670042 424.00726891 C314.56602764 423.97375328 315.56505108 423.94023766 316.59434795 423.90570641 C322.55325784 423.82678045 326.37316032 424.01175859 330.9420042 428.25726891 C334.9420042 434.25726891 334.9420042 434.25726891 334.9420042 456.25726891 C266.3020042 456.25726891 197.6620042 456.25726891 126.9420042 456.25726891 C126.9420042 434.25726891 126.9420042 434.25726891 130.9420042 428.25726891 C136.26942338 423.30686708 141.45008554 423.77689486 148.3170042 424.00726891 C149.33923077 424.02531578 150.36145733 424.04336266 151.41466045 424.06195641 C153.92475169 424.108874 156.43288185 424.17450161 158.9420042 424.25726891 C159.05084942 423.16994469 159.15969463 422.08262047 159.27183819 420.96234703 C159.95542408 415.52229488 161.31101483 410.28199823 162.66466045 404.97601891 C162.92959805 403.92192833 163.19453564 402.86783775 163.46750164 401.78180504 C164.30872943 398.43915507 165.15651211 395.09820852 166.0045042 391.75726891 C166.5785067 389.48133685 167.15207898 387.20529625 167.72520733 384.92914391 C169.12582968 379.37058628 170.53182712 373.81340976 171.9420042 368.25726891 C170.561558 368.26279966 170.561558 368.26279966 169.15322399 368.26844215 C146.75193336 368.35681088 124.3506728 368.42298719 101.9492445 368.46451759 C91.11603819 368.48513563 80.28294829 368.51324184 69.4498167 368.55902672 C60.00675837 368.59891757 50.56378435 368.62470723 41.12064409 368.63362288 C36.12136013 368.6388338 31.12231737 368.65106572 26.12311077 368.68018913 C21.41502607 368.70739367 16.70728132 368.71570369 11.99912548 368.70969963 C10.27380557 368.71079761 8.54847397 368.71872147 6.82322216 368.73409081 C-10.77913088 368.88317318 -10.77913088 368.88317318 -18.3001833 362.29242516 C-18.83901142 361.64144859 -19.37783955 360.99047203 -19.9329958 360.31976891 C-20.48729267 359.67137047 -21.04158955 359.02297203 -21.6126833 358.35492516 C-24.50407824 354.1584952 -25.30820269 350.50277733 -25.3152647 345.44817448 C-25.32171359 344.2796987 -25.32816249 343.11122293 -25.3348068 341.9073388 C-25.3317096 340.62778323 -25.32861239 339.34822767 -25.32542133 338.02989769 C-25.32915833 336.6535981 -25.33376004 335.27730062 -25.33915198 333.90100652 C-25.35139141 330.11959818 -25.35112041 326.33827824 -25.34876323 322.55685461 C-25.3483553 318.47834621 -25.35939193 314.39986625 -25.36887836 310.32137108 C-25.38549454 302.33096436 -25.39098819 294.34058716 -25.39210312 286.35016461 C-25.39305331 279.85530566 -25.39716214 273.36045645 -25.40350437 266.86560059 C-25.42111852 248.4529272 -25.43034298 230.04027714 -25.42884342 211.62759527 C-25.42876351 210.63486755 -25.4286836 209.64213983 -25.42860126 208.61932945 C-25.4285195 207.62539011 -25.42843774 206.63145077 -25.4283535 205.60739205 C-25.42754057 189.49849034 -25.44667965 173.38968212 -25.474878 157.28080746 C-25.50360102 140.74174237 -25.51741861 124.20272288 -25.51569045 107.66363221 C-25.51502634 98.37762175 -25.52052765 89.09170929 -25.54204655 79.80572128 C-25.56025069 71.89943856 -25.56461201 63.99329827 -25.5510277 56.08700367 C-25.54449413 52.05357237 -25.54439469 48.02041441 -25.5617342 43.98700905 C-25.5774531 40.29256154 -25.57461382 36.59860434 -25.55716594 32.90416888 C-25.55264093 30.93890772 -25.5677627 28.97363142 -25.58364522 27.00842923 C-25.5200158 18.87073077 -24.60803065 13.30840212 -19.09315205 7.01508141 C-18.44217548 6.47625328 -17.79119892 5.93742516 -17.1204958 5.38226891 C-16.47209736 4.82797203 -15.82369892 4.27367516 -15.15565205 3.70258141 C-10.27781394 0.34168737 -5.79544112 -0.03170243 0 0 Z M22.9420042 40.25726891 C22.9420042 135.29726891 22.9420042 230.33726891 22.9420042 328.25726891 C83.6620042 328.25726891 144.3820042 328.25726891 206.9420042 328.25726891 C207.2720042 321.98726891 207.6020042 315.71726891 207.9420042 309.25726891 C211.9420042 305.25726891 211.9420042 305.25726891 214.9420042 303.25726891 C214.72471661 302.43524986 214.50742901 301.61323082 214.28355694 300.76630211 C213.47921555 297.7027109 212.6845787 294.63680932 211.89634991 291.56903648 C211.55384173 290.24414304 211.207531 288.92022637 210.85728741 287.5973568 C210.35329165 285.69106276 209.86427389 283.7808288 209.37559795 281.87055016 C208.92785015 280.15025597 208.92785015 280.15025597 208.47105694 278.39520836 C207.69891757 273.81546343 208.22397956 271.32452147 210.80528545 267.48773766 C211.61352764 266.48355797 212.42176983 265.47937828 213.2545042 264.44476891 C214.15545173 263.31031049 215.05513041 262.17484358 215.95372295 261.03851891 C216.4337376 260.43523766 216.91375225 259.83195641 217.4083128 259.21039391 C220.1895637 255.66852711 222.8735841 252.05358923 225.5670042 248.44476891 C226.6008409 247.06324541 227.63469357 245.68173387 228.6685667 244.30023766 C229.41880108 243.29605797 230.16903545 242.29187828 230.9420042 241.25726891 C236.44502201 247.77050254 241.60047265 254.41614247 246.49034405 261.39642906 C248.32034719 264.00589189 250.03827208 266.35070538 252.3326292 268.57758141 C254.85716943 272.78106344 253.51168961 276.17183212 252.3795042 280.75726891 C252.18131084 281.64059898 251.98311749 282.52392906 251.77891827 283.43402672 C251.1881445 286.04732064 250.56685336 288.6519484 249.9420042 291.25726891 C249.62295915 292.65771202 249.30628642 294.05869928 248.99278545 295.46039391 C248.32954118 298.39808072 247.64724751 301.32944064 246.9420042 304.25726891 C248.3960667 304.93789391 248.3960667 304.93789391 249.8795042 305.63226891 C252.9420042 307.25726891 252.9420042 307.25726891 253.9420042 309.25726891 C254.2720042 315.52726891 254.6020042 321.79726891 254.9420042 328.25726891 C315.6620042 328.25726891 376.3820042 328.25726891 438.9420042 328.25726891 C438.9420042 233.21726891 438.9420042 138.17726891 438.9420042 40.25726891 C301.6620042 40.25726891 164.3820042 40.25726891 22.9420042 40.25726891 Z " fill="#E5E8ED" transform="translate(25.057995796203613,27.74273109436035)"/>
<path d="M0 0 C0.79780687 -0.0072672 1.59561374 -0.01453441 2.41759658 -0.02202183 C5.10194298 -0.04032918 7.78487082 -0.02289047 10.46920776 -0.00571251 C12.4086232 -0.01147144 14.34803319 -0.01941102 16.28743172 -0.02934873 C21.62536938 -0.05027656 26.96286173 -0.03987984 32.30080128 -0.02441764 C38.05413182 -0.01313235 43.80738429 -0.03055281 49.56069946 -0.04431725 C60.83481147 -0.06658435 72.10875732 -0.06173297 83.38287592 -0.04725404 C92.54319787 -0.03597546 101.70347315 -0.03442492 110.86380005 -0.03987312 C112.81724813 -0.04102237 112.81724813 -0.04102237 114.8101598 -0.04219484 C117.45551349 -0.04379342 120.10086717 -0.04541448 122.74622083 -0.04705779 C146.86068691 -0.06091851 170.97506551 -0.04652913 195.08951738 -0.02034481 C217.1098469 0.0033838 239.13003185 0.00126069 261.15036011 -0.02264977 C285.88225808 -0.04941468 310.6140728 -0.05995208 335.34598351 -0.04458845 C337.98176446 -0.04299565 340.61754543 -0.0414238 343.25332642 -0.03987312 C344.55027974 -0.03910175 345.84723307 -0.03833037 347.18348801 -0.03753562 C356.33589688 -0.03321321 365.48825457 -0.04051681 374.64065552 -0.05227089 C385.78997719 -0.06627439 396.93912279 -0.06254116 408.08842421 -0.03586717 C413.78017591 -0.02270014 419.47163376 -0.01762586 425.16338348 -0.03411293 C430.36950844 -0.04896556 435.57506597 -0.04090172 440.78113914 -0.01422517 C442.66867819 -0.00862028 444.55626478 -0.01152532 446.44377351 -0.02360411 C449.0022473 -0.03872607 451.55875668 -0.02330413 454.11712646 0 C455.22634354 -0.01755875 455.22634354 -0.01755875 456.35796905 -0.03547221 C460.14725852 0.0339083 461.94648445 0.54579838 465.01645058 2.83042032 C467.28019391 5.93295814 467.68151977 7.25590939 467.67380238 11.03897762 C467.68375762 12.11833531 467.69371286 13.19769299 467.70396978 14.30975848 C467.68940557 15.4897154 467.67484136 16.66967232 467.65983582 17.88538551 C467.66410794 19.14330821 467.66838006 20.40123091 467.67278165 21.69727248 C467.68396135 25.18654728 467.66396405 28.67505464 467.63889134 32.16423166 C467.61730397 35.92764145 467.62460553 39.69100777 467.62840271 43.45446205 C467.6310248 49.97408049 467.61533411 56.49344878 467.58721352 63.0130043 C467.54658248 72.43914921 467.53355672 81.86517312 467.52727356 91.2913961 C467.51632974 106.58465056 467.4830532 121.87777169 467.4357605 137.17095375 C467.38986716 152.02706675 467.35447415 166.88314355 467.33322144 181.73931313 C467.33190782 182.65500715 467.3305942 183.57070118 467.32924078 184.5141435 C467.3227156 189.10789998 467.31639706 193.70165671 467.31018126 198.29541361 C467.25834553 236.40677557 467.16890207 274.51797154 467.05856323 312.6292057 C456.49856323 312.6292057 445.93856323 312.6292057 435.05856323 312.6292057 C435.05856323 217.5892057 435.05856323 122.5492057 435.05856323 24.6292057 C297.77856323 24.6292057 160.49856323 24.6292057 19.05856323 24.6292057 C19.05856323 119.6692057 19.05856323 214.7092057 19.05856323 312.6292057 C8.49856323 312.6292057 -2.06143677 312.6292057 -12.94143677 312.6292057 C-13.05442068 273.60435815 -13.14395884 234.57955351 -13.19676341 195.55457537 C-13.2030171 190.94948768 -13.2094887 186.34440032 -13.21609497 181.73931313 C-13.21740652 180.82250594 -13.21871808 179.90569876 -13.22006937 178.96110954 C-13.2418382 164.10759155 -13.28126785 149.2541701 -13.32720075 134.40070943 C-13.37392431 119.16473411 -13.40172347 103.92880944 -13.41187924 88.69276541 C-13.41874693 79.28788722 -13.4404537 69.88328191 -13.4810191 60.47848769 C-13.50740688 54.0331569 -13.51544679 47.5879676 -13.50894365 41.14258669 C-13.50573453 37.42136531 -13.51072461 33.70062146 -13.53746414 29.97948456 C-13.56622417 25.94780384 -13.55640191 21.91714509 -13.54270935 17.88538551 C-13.55727356 16.70542859 -13.57183776 15.52547167 -13.58684331 14.30975848 C-13.57688807 13.2304008 -13.56693283 12.15104312 -13.55667591 11.03897762 C-13.55857451 10.10828309 -13.56047311 9.17758856 -13.56242925 8.21869117 C-11.84105664 1.04071479 -6.55231339 -0.10372217 0 0 Z " fill="#CCD1D9" transform="translate(28.941436767578125,43.37079429626465)"/>
<path d="M0 0 C38.94 0 77.88 0 118 0 C131 52 131 52 131 56 C131.63502441 55.97905273 132.27004883 55.95810547 132.92431641 55.93652344 C135.82438076 55.85295419 138.72419116 55.80121226 141.625 55.75 C142.62402344 55.71648437 143.62304688 55.68296875 144.65234375 55.6484375 C150.61125363 55.56951154 154.43115612 55.75448969 159 60 C163 66 163 66 163 88 C94.36 88 25.72 88 -45 88 C-45 66 -45 66 -41 60 C-35.67258082 55.04959818 -30.49191866 55.51962595 -23.625 55.75 C-22.60277344 55.76804687 -21.58054688 55.78609375 -20.52734375 55.8046875 C-18.01725251 55.85160509 -15.50912236 55.91723271 -13 56 C-12.67 53.36 -12.34 50.72 -12 48 C-8.04 32.16 -4.08 16.32 0 0 Z " fill="#CCD0D8" transform="translate(197,396)"/>
<path d="M0 0 C1.26972656 0.00257812 2.53945312 0.00515625 3.84765625 0.0078125 C5.16636719 0.03617187 6.48507813 0.06453125 7.84375 0.09375 C9.16246094 0.09117188 10.48117188 0.08859375 11.83984375 0.0859375 C22.77449158 0.19694915 22.77449158 0.19694915 27.34375 3.59375 C29.44189417 7.79003834 28.57063527 13.24409849 28.58398438 17.86010742 C28.59366423 19.88827939 28.62467532 21.91542642 28.65625 23.94335938 C28.66398437 25.86825195 28.66398437 25.86825195 28.671875 27.83203125 C28.68589355 29.596073 28.68589355 29.596073 28.70019531 31.39575195 C28.30333088 34.95638702 27.60776617 36.82658385 25.34375 39.59375 C22.62096265 40.53605308 20.26135113 40.45026142 17.34375 40.59375 C21.60454202 67.83699595 32.03330253 92.24091887 54.81640625 109.2578125 C66.45217183 117.54032259 80.74393108 125.59375 95.34375 125.59375 C95.92125 124.85125 96.49875 124.10875 97.09375 123.34375 C100.54796651 119.12192982 104.40218858 117.05599537 109.8046875 116.20703125 C115.72800248 115.94276027 120.52863988 117.04458433 125.34375 120.59375 C126.00375 121.521875 126.66375 122.45 127.34375 123.40625 C128.33375 124.4890625 128.33375 124.4890625 129.34375 125.59375 C149.56645819 124.43754338 167.51827246 112.58284266 181.34375 98.59375 C182.07078125 97.87703125 182.7978125 97.1603125 183.546875 96.421875 C198.36205263 80.90676771 204.46972226 61.3772284 207.34375 40.59375 C206.43625 40.655625 205.52875 40.7175 204.59375 40.78125 C201.01764735 40.57493639 199.83826413 40.08826413 197.34375 37.59375 C195.68689933 32.62319799 196.04036611 27.45864453 195.99365234 22.25195312 C195.97709249 20.89989001 195.94980076 19.54791446 195.91162109 18.19628906 C195.85667129 16.23816461 195.838084 14.2791272 195.8203125 12.3203125 C195.80049316 11.15064941 195.78067383 9.98098633 195.76025391 8.77587891 C196.53553393 4.5478455 197.90355201 3.11928062 201.34375 0.59375 C204.49414062 -0.02148438 204.49414062 -0.02148438 208 0 C209.26972656 0.00257812 210.53945313 0.00515625 211.84765625 0.0078125 C213.82572266 0.05035156 213.82572266 0.05035156 215.84375 0.09375 C217.16246094 0.09117188 218.48117187 0.08859375 219.83984375 0.0859375 C230.77449158 0.19694915 230.77449158 0.19694915 235.34375 3.59375 C237.44189417 7.79003834 236.57063527 13.24409849 236.58398438 17.86010742 C236.59366423 19.88827939 236.62467532 21.91542642 236.65625 23.94335938 C236.66398437 25.86825195 236.66398437 25.86825195 236.671875 27.83203125 C236.6812207 29.00805908 236.69056641 30.18408691 236.70019531 31.39575195 C236.30794133 34.91502241 235.48147995 36.79560672 233.34375 39.59375 C231.08203125 40.30078125 231.08203125 40.30078125 228.65625 40.40625 C227.84800781 40.45394531 227.03976562 40.50164062 226.20703125 40.55078125 C225.28470703 40.57205078 225.28470703 40.57205078 224.34375 40.59375 C224.28058594 41.50511719 224.21742188 42.41648438 224.15234375 43.35546875 C221.49305067 71.48799025 207.97086161 99.11782796 186.34375 117.59375 C181.78773717 121.09456588 177.07621103 124.33156812 172.34375 127.59375 C185.21375 128.08875 185.21375 128.08875 198.34375 128.59375 C199.00375 126.94375 199.66375 125.29375 200.34375 123.59375 C202.18359375 121.828125 202.18359375 121.828125 204.28125 120.34375 C204.97089844 119.84359375 205.66054688 119.3434375 206.37109375 118.828125 C211.05419608 115.8977085 216.00445713 116.04633364 221.34375 116.59375 C228.03288052 118.43943276 231.87631354 122.75069963 235.34375 128.59375 C237.5748325 135.2869975 236.70962619 141.31275333 233.61328125 147.58203125 C230.7518943 152.11622904 226.56916604 155.28739599 221.34375 156.59375 C214.49898433 157.36482412 208.99613553 156.70457584 203.34375 152.59375 C201.34283644 150.68533609 199.94000405 148.88836519 198.34375 146.59375 C198.34375 145.93375 198.34375 145.27375 198.34375 144.59375 C175.90375 144.59375 153.46375 144.59375 130.34375 144.59375 C129.68375 146.24375 129.02375 147.89375 128.34375 149.59375 C123.30767295 154.4060014 119.44074587 156.64173569 112.53125 156.96875 C106.60676292 156.82769078 102.05473834 155.17941285 97.73828125 151.0625 C94.34375 147.18303571 94.34375 147.18303571 94.34375 144.59375 C71.90375 144.59375 49.46375 144.59375 26.34375 144.59375 C25.68375 146.24375 25.02375 147.89375 24.34375 149.59375 C19.30767295 154.4060014 15.44074587 156.64173569 8.53125 156.96875 C2.64068931 156.82849856 -1.80886357 155.17306188 -6.19140625 151.203125 C-10.82464105 146.07009519 -12.16479875 140.63327823 -11.9609375 133.89453125 C-11.15421654 127.80275375 -8.39545103 123.8702729 -3.59375 120.15625 C1.83493273 116.3322067 6.84558745 115.90922546 13.34375 116.59375 C19.25430217 118.38327704 22.86189669 121.58858587 26.34375 126.59375 C26.34375 127.25375 26.34375 127.91375 26.34375 128.59375 C34.92375 128.26375 43.50375 127.93375 52.34375 127.59375 C50.735 126.459375 49.12625 125.325 47.46875 124.15625 C24.52393818 107.42627168 6.98759279 82.70409424 1.94140625 54.33154297 C1.25257402 49.76609449 0.75343115 45.19196235 0.34375 40.59375 C-0.76226562 40.62082031 -1.86828125 40.64789063 -3.0078125 40.67578125 C-6.86219553 40.58911953 -8.0359305 40.31485102 -10.65625 37.59375 C-12.31310067 32.62319799 -11.95963389 27.45864453 -12.00634766 22.25195312 C-12.02290751 20.89989001 -12.05019924 19.54791446 -12.08837891 18.19628906 C-12.14332871 16.23816461 -12.161916 14.2791272 -12.1796875 12.3203125 C-12.19950684 11.15064941 -12.21932617 9.98098633 -12.23974609 8.77587891 C-10.96283381 1.81216565 -6.58790688 -0.04037157 0 0 Z " fill="#EC5666" transform="translate(143.65625,99.40625)"/>
<path d="M0 0 C10.56 0 21.12 0 32 0 C32 95.04 32 190.08 32 288 C21.44 288 10.88 288 0 288 C0 192.96 0 97.92 0 0 Z " fill="#656D77" transform="translate(16,68)"/>
<path d="M0 0 C10.56 0 21.12 0 32 0 C32 95.04 32 190.08 32 288 C21.44 288 10.88 288 0 288 C0 192.96 0 97.92 0 0 Z " fill="#656D78" transform="translate(464,68)"/>
<path d="M0 0 C0.768601 -0.00623996 1.537202 -0.01247993 2.32909393 -0.01890898 C4.89484172 -0.03481581 7.45963642 -0.02224428 10.02539062 -0.00964355 C11.86873935 -0.01506571 13.71208373 -0.0221889 15.55541992 -0.03088379 C20.55541624 -0.04910888 25.55508218 -0.04205293 30.55508423 -0.02936745 C35.789336 -0.0192356 41.02355961 -0.02863364 46.2578125 -0.03491211 C55.04757767 -0.04218796 63.83720837 -0.0326024 72.62695312 -0.0135498 C82.78698248 0.00821878 92.94669076 0.00116737 103.10671234 -0.02085543 C111.8321482 -0.03901115 120.55748745 -0.04156689 129.2829361 -0.03110075 C134.49328372 -0.02486679 139.70348045 -0.02402758 144.91381836 -0.0372467 C149.81245951 -0.04880703 154.71068696 -0.04077601 159.60928345 -0.01766968 C161.40637526 -0.01238358 163.20350192 -0.01389467 165.00057983 -0.02272034 C167.45528259 -0.03366361 169.90866261 -0.01992806 172.36328125 0 C173.07320976 -0.00892289 173.78313828 -0.01784577 174.51457977 -0.02703905 C179.53611818 0.05195006 182.3716988 1.27485888 186.18164062 4.50793457 C190.18164062 10.50793457 190.18164062 10.50793457 190.18164062 32.50793457 C121.54164063 32.50793457 52.90164062 32.50793457 -17.81835938 32.50793457 C-17.81835938 10.50793457 -17.81835938 10.50793457 -13.81835938 4.50793457 C-9.34098846 0.70848573 -5.71448407 -0.0718237 0 0 Z " fill="#E6E9EC" transform="translate(169.818359375,451.4920654296875)"/>
<path d="M0 0 C10.56 0 21.12 0 32 0 C32 42.24 32 84.48 32 128 C21.44 128 10.88 128 0 128 C0 85.76 0 43.52 0 0 Z " fill="#656D78" transform="translate(464,228)"/>
<path d="M0 0 C1.26972656 0.00257812 2.53945313 0.00515625 3.84765625 0.0078125 C5.16636719 0.03617187 6.48507812 0.06453125 7.84375 0.09375 C9.16246094 0.09117188 10.48117187 0.08859375 11.83984375 0.0859375 C22.77449158 0.19694915 22.77449158 0.19694915 27.34375 3.59375 C29.44189417 7.79003834 28.57063527 13.24409849 28.58398438 17.86010742 C28.59366423 19.88827939 28.62467532 21.91542642 28.65625 23.94335938 C28.66398437 25.86825195 28.66398437 25.86825195 28.671875 27.83203125 C28.6812207 29.00805908 28.69056641 30.18408691 28.70019531 31.39575195 C28.30794133 34.91502241 27.48147995 36.79560672 25.34375 39.59375 C23.08203125 40.30078125 23.08203125 40.30078125 20.65625 40.40625 C19.84800781 40.45394531 19.03976562 40.50164062 18.20703125 40.55078125 C17.28470703 40.57205078 17.28470703 40.57205078 16.34375 40.59375 C16.28058594 41.50511719 16.21742188 42.41648438 16.15234375 43.35546875 C13.83278612 67.89394679 3.50537887 90.14682294 -12.65625 108.59375 C-13.73132813 109.82158203 -13.73132813 109.82158203 -14.828125 111.07421875 C-17.00546474 113.38661904 -19.29162814 115.47236881 -21.65625 117.59375 C-22.13299164 118.04499741 -22.60973328 118.49624481 -23.10092163 118.96116638 C-32.4070844 127.59963929 -39.93335875 129.9409202 -52.54882812 129.56054688 C-54.39719772 129.46869327 -56.24550511 129.37557958 -58.09375 129.28125 C-60.00050747 129.22592759 -61.90742186 129.17576336 -63.81445312 129.13085938 C-68.43234626 129.01109343 -73.04250852 128.82218468 -77.65625 128.59375 C-77.65625 127.93375 -77.65625 127.27375 -77.65625 126.59375 C-76.13257813 126.13935547 -76.13257813 126.13935547 -74.578125 125.67578125 C-56.35461388 120.16826087 -41.43281661 113.14298052 -27.65625 99.59375 C-26.89570313 98.84609375 -26.13515625 98.0984375 -25.3515625 97.328125 C-10.08423436 81.37403124 -3.62758627 62.08091322 -0.65625 40.59375 C-1.56375 40.655625 -2.47125 40.7175 -3.40625 40.78125 C-6.98235265 40.57493639 -8.16173587 40.08826413 -10.65625 37.59375 C-12.31310067 32.62319799 -11.95963389 27.45864453 -12.00634766 22.25195312 C-12.02290751 20.89989001 -12.05019924 19.54791446 -12.08837891 18.19628906 C-12.14332871 16.23816461 -12.161916 14.2791272 -12.1796875 12.3203125 C-12.2094165 10.56581787 -12.2094165 10.56581787 -12.23974609 8.77587891 C-10.96283381 1.81216565 -6.58790688 -0.04037157 0 0 Z " fill="#565E68" transform="translate(351.65625,99.40625)"/>
<path d="M0 0 C1.26972656 0.00257812 2.53945312 0.00515625 3.84765625 0.0078125 C5.16636719 0.03617187 6.48507813 0.06453125 7.84375 0.09375 C9.16246094 0.09117188 10.48117188 0.08859375 11.83984375 0.0859375 C22.77449158 0.19694915 22.77449158 0.19694915 27.34375 3.59375 C29.44189417 7.79003834 28.57063527 13.24409849 28.58398438 17.86010742 C28.59366423 19.88827939 28.62467532 21.91542642 28.65625 23.94335938 C28.66398437 25.86825195 28.66398437 25.86825195 28.671875 27.83203125 C28.68589355 29.596073 28.68589355 29.596073 28.70019531 31.39575195 C28.30333088 34.95638702 27.60776617 36.82658385 25.34375 39.59375 C22.62096265 40.53605308 20.26135113 40.45026142 17.34375 40.59375 C21.60454202 67.83699595 32.03330253 92.24091887 54.81640625 109.2578125 C66.8116581 117.79802308 79.87312572 123.71606904 94.34375 126.59375 C94.34375 127.25375 94.34375 127.91375 94.34375 128.59375 C88.72470665 128.81834281 83.10834222 128.98050647 77.48583984 129.08813477 C75.57880078 129.13304983 73.67206547 129.19420921 71.76611328 129.27270508 C60.42543046 129.7276407 52.49677851 129.89933068 43.734375 121.98217773 C42.94546875 121.19399658 42.1565625 120.40581543 41.34375 119.59375 C39.59937635 118.08721073 37.85011786 116.58628876 36.09375 115.09375 C14.82423232 95.3846754 2.89972811 69.2817431 0.34375 40.59375 C-0.76226562 40.62082031 -1.86828125 40.64789063 -3.0078125 40.67578125 C-6.86219553 40.58911953 -8.0359305 40.31485102 -10.65625 37.59375 C-12.31310067 32.62319799 -11.95963389 27.45864453 -12.00634766 22.25195312 C-12.02290751 20.89989001 -12.05019924 19.54791446 -12.08837891 18.19628906 C-12.14332871 16.23816461 -12.161916 14.2791272 -12.1796875 12.3203125 C-12.19950684 11.15064941 -12.21932617 9.98098633 -12.23974609 8.77587891 C-10.96283381 1.81216565 -6.58790688 -0.04037157 0 0 Z " fill="#565E68" transform="translate(143.65625,99.40625)"/>
<path d="M0 0 C4.83198078 4.3852283 8.33022227 9.84833068 12.04467773 15.16845703 C14.97233722 19.32756925 17.84650907 22.88225658 21.5625 26.375 C23.41078142 28.66832215 24.02757323 30.16412618 23.93017578 33.11669922 C23.178318 39.21076854 21.60480682 45.08545177 20 51 C19.67418335 52.32026842 19.35324782 53.64175918 19.0390625 54.96484375 C18.39317548 57.65390803 17.71658003 60.32911079 17 63 C17.969375 63.61875 18.93875 64.2375 19.9375 64.875 C23 67 23 67 24 69 C24 75.27 24 81.54 24 88 C8.16 88 -7.68 88 -24 88 C-24 69 -24 69 -19 64 C-18.01 63.505 -18.01 63.505 -17 63 C-17.2172876 62.17798096 -17.4345752 61.35596191 -17.65844727 60.5090332 C-18.46278865 57.445442 -19.25742551 54.37954041 -20.0456543 51.31176758 C-20.38816247 49.98687413 -20.7344732 48.66295747 -21.0847168 47.34008789 C-21.58871255 45.43379386 -22.07773032 43.52355989 -22.56640625 41.61328125 C-22.86490479 40.46641846 -23.16340332 39.31955566 -23.47094727 38.13793945 C-24.23788711 33.58903416 -23.72467801 31.0839201 -21.171875 27.265625 C-20.37265625 26.27046875 -19.5734375 25.2753125 -18.75 24.25 C-17.85086804 23.11643591 -16.95247081 21.98228877 -16.0546875 20.84765625 C-15.56838867 20.23809082 -15.08208984 19.62852539 -14.58105469 19.00048828 C-11.6303699 15.26702454 -8.75875641 11.47272786 -5.875 7.6875 C-4.74761521 6.21207193 -3.62002931 4.73679749 -2.4921875 3.26171875 C-1.6614314 2.17449975 -0.83069122 1.08726857 0 0 Z " fill="#CCD1D9" transform="translate(256,268)"/>
<path d="M0 0 C1.26972656 0.00257812 2.53945312 0.00515625 3.84765625 0.0078125 C5.16636719 0.03617187 6.48507813 0.06453125 7.84375 0.09375 C9.16246094 0.09117188 10.48117188 0.08859375 11.83984375 0.0859375 C22.77449158 0.19694915 22.77449158 0.19694915 27.34375 3.59375 C29.44189417 7.79003834 28.57063527 13.24409849 28.58398438 17.86010742 C28.59366423 19.88827939 28.62467532 21.91542642 28.65625 23.94335938 C28.66398437 25.86825195 28.66398437 25.86825195 28.671875 27.83203125 C28.68589355 29.596073 28.68589355 29.596073 28.70019531 31.39575195 C28.30835806 34.91128354 27.46684129 36.79112759 25.34375 39.59375 C22.62096265 40.53605308 20.26135113 40.45026142 17.34375 40.59375 C17.01375 41.91375 16.68375 43.23375 16.34375 44.59375 C16.34375 43.27375 16.34375 41.95375 16.34375 40.59375 C11.39375 40.59375 6.44375 40.59375 1.34375 40.59375 C1.01375 41.91375 0.68375 43.23375 0.34375 44.59375 C0.34375 43.27375 0.34375 41.95375 0.34375 40.59375 C-1.265 40.6865625 -1.265 40.6865625 -2.90625 40.78125 C-6.783069 40.58740905 -8.02131068 40.33003314 -10.65625 37.59375 C-12.31310067 32.62319799 -11.95963389 27.45864453 -12.00634766 22.25195312 C-12.02290751 20.89989001 -12.05019924 19.54791446 -12.08837891 18.19628906 C-12.14332871 16.23816461 -12.161916 14.2791272 -12.1796875 12.3203125 C-12.19950684 11.15064941 -12.21932617 9.98098633 -12.23974609 8.77587891 C-10.96283381 1.81216565 -6.58790688 -0.04037157 0 0 Z " fill="#666D78" transform="translate(143.65625,99.40625)"/>
<path d="M0 0 C1.26972656 0.00257812 2.53945313 0.00515625 3.84765625 0.0078125 C5.16636719 0.03617187 6.48507812 0.06453125 7.84375 0.09375 C9.16246094 0.09117188 10.48117187 0.08859375 11.83984375 0.0859375 C22.77449158 0.19694915 22.77449158 0.19694915 27.34375 3.59375 C29.44189417 7.79003834 28.57063527 13.24409849 28.58398438 17.86010742 C28.59366423 19.88827939 28.62467532 21.91542642 28.65625 23.94335938 C28.66398437 25.86825195 28.66398437 25.86825195 28.671875 27.83203125 C28.68589355 29.596073 28.68589355 29.596073 28.70019531 31.39575195 C28.30794133 34.91502241 27.48147995 36.79560672 25.34375 39.59375 C23.08203125 40.30078125 23.08203125 40.30078125 20.65625 40.40625 C19.84800781 40.45394531 19.03976562 40.50164062 18.20703125 40.55078125 C17.28470703 40.57205078 17.28470703 40.57205078 16.34375 40.59375 C16.01375 41.58375 15.68375 42.57375 15.34375 43.59375 C15.34375 42.60375 15.34375 41.61375 15.34375 40.59375 C10.39375 40.59375 5.44375 40.59375 0.34375 40.59375 C0.01375 41.91375 -0.31625 43.23375 -0.65625 44.59375 C-0.65625 43.27375 -0.65625 41.95375 -0.65625 40.59375 C-1.56375 40.655625 -2.47125 40.7175 -3.40625 40.78125 C-6.98235265 40.57493639 -8.16173587 40.08826413 -10.65625 37.59375 C-12.31310067 32.62319799 -11.95963389 27.45864453 -12.00634766 22.25195312 C-12.02290751 20.89989001 -12.05019924 19.54791446 -12.08837891 18.19628906 C-12.14332871 16.23816461 -12.161916 14.2791272 -12.1796875 12.3203125 C-12.19950684 11.15064941 -12.21932617 9.98098633 -12.23974609 8.77587891 C-10.96283381 1.81216565 -6.58790688 -0.04037157 0 0 Z " fill="#656D78" transform="translate(351.65625,99.40625)"/>
<path d="M0 0 C5.23724692 2.96387807 8.8638854 7.84165621 10.75 13.5 C11.57369251 20.22457166 10.37194796 25.76060555 6.75 31.5 C3.11428009 35.59392022 -1.04732761 38.13921368 -6.50390625 38.75390625 C-12.56943672 39.04097716 -17.37403516 38.26921479 -22.25 34.5 C-27.57338659 28.73589731 -29.64517218 23.97575322 -29.51953125 16.12890625 C-28.98942126 10.95841313 -27.12692225 7.23341512 -23.30859375 3.70703125 C-16.29751793 -1.72881206 -8.46346013 -3.7017446 0 0 Z " fill="#ED5767" transform="translate(369.25,217.5)"/>
<path d="M0 0 C4.78440226 2.71730757 8.68850395 7.21195125 10.390625 12.484375 C11.51601438 18.7963415 11.20220702 24.06534302 8.01953125 29.7109375 C4.97408382 34.00267572 0.89486206 37.21378449 -4.25 38.5 C-11.11173267 39.27298548 -16.57519541 38.59495921 -22.25 34.5 C-27.28736451 29.93689118 -29.26976132 24.805779 -29.625 18.125 C-29.47619053 13.20602015 -28.23254951 9.43266916 -25.25 5.5 C-18.02850062 -1.18388273 -9.47108421 -4.1424588 0 0 Z " fill="#ED5767" transform="translate(161.25,217.5)"/>
<path d="M0 0 C0.76783813 0.01639526 1.53567627 0.03279053 2.32678223 0.04968262 C3.12910278 0.04964233 3.93142334 0.04960205 4.75805664 0.04956055 C6.44917665 0.05490621 8.14029683 0.07244839 9.83117676 0.10144043 C12.41251947 0.14330267 14.9912509 0.14250576 17.57287598 0.13562012 C19.22002943 0.14611358 20.8671695 0.15905254 22.51428223 0.17468262 C23.66603943 0.17498474 23.66603943 0.17498474 24.84106445 0.17529297 C29.35277967 0.2744157 32.33766211 0.83690828 35.92053223 3.64343262 C39.0545747 9.91151756 36.92053223 17.6355006 36.92053223 24.64343262 C21.08053223 24.64343262 5.24053223 24.64343262 -11.07946777 24.64343262 C-11.07946777 0.14235258 -11.07946777 0.14235258 0 0 Z " fill="#545C66" transform="translate(243.0794677734375,331.3565673828125)"/>
<path d="M0 0 C21.78 0 43.56 0 66 0 C66 5.28 66 10.56 66 16 C44.22 16 22.44 16 0 16 C0 10.72 0 5.44 0 0 Z " fill="#DA4453" transform="translate(275,228)"/>
<path d="M0 0 C21.78 0 43.56 0 66 0 C66 5.28 66 10.56 66 16 C44.22 16 22.44 16 0 16 C0 10.72 0 5.44 0 0 Z " fill="#DA4453" transform="translate(171,228)"/>
<path d="M0 0 C10.56 0 21.12 0 32 0 C32 10.56 32 21.12 32 32 C21.44 32 10.88 32 0 32 C0 21.44 0 10.88 0 0 Z " fill="#545C66" transform="translate(16,324)"/>
<path d="M0 0 C10.56 0 21.12 0 32 0 C32 10.56 32 21.12 32 32 C21.44 32 10.88 32 0 32 C0 21.44 0 10.88 0 0 Z " fill="#656D78" transform="translate(16,292)"/>
<path d="M0 0 C10.56 0 21.12 0 32 0 C32 10.56 32 21.12 32 32 C21.44 32 10.88 32 0 32 C0 21.44 0 10.88 0 0 Z " fill="#545C66" transform="translate(16,260)"/>
<path d="M0 0 C10.56 0 21.12 0 32 0 C32 10.56 32 21.12 32 32 C21.44 32 10.88 32 0 32 C0 21.44 0 10.88 0 0 Z " fill="#656D78" transform="translate(16,228)"/>
<path d="M0 0 C10.56 0 21.12 0 32 0 C32 10.56 32 21.12 32 32 C21.44 32 10.88 32 0 32 C0 21.44 0 10.88 0 0 Z " fill="#545C66" transform="translate(464,196)"/>
<path d="M0 0 C10.56 0 21.12 0 32 0 C32 10.56 32 21.12 32 32 C21.44 32 10.88 32 0 32 C0 21.44 0 10.88 0 0 Z " fill="#656D78" transform="translate(464,164)"/>
<path d="M0 0 C10.56 0 21.12 0 32 0 C32 10.56 32 21.12 32 32 C21.44 32 10.88 32 0 32 C0 21.44 0 10.88 0 0 Z " fill="#545C66" transform="translate(464,132)"/>
<path d="M0 0 C10.56 0 21.12 0 32 0 C32 10.56 32 21.12 32 32 C21.44 32 10.88 32 0 32 C0 21.44 0 10.88 0 0 Z " fill="#545C66" transform="translate(464,68)"/>
<path d="M0 0 C10.56 0 21.12 0 32 0 C32 10.56 32 21.12 32 32 C21.44 32 10.88 32 0 32 C0 21.44 0 10.88 0 0 Z " fill="#545C66" transform="translate(16,68)"/>
<path d="M0 0 C3.795 -0.020625 7.59 -0.04125 11.5 -0.0625 C12.68013672 -0.071604 13.86027344 -0.08070801 15.07617188 -0.09008789 C16.03072266 -0.09258545 16.98527344 -0.09508301 17.96875 -0.09765625 C19.41411133 -0.10551147 19.41411133 -0.10551147 20.88867188 -0.11352539 C24.60852477 0.02220371 28.30641598 0.538302 32 1 C32 11.23 32 21.46 32 32 C21.44 32 10.88 32 0 32 C0 21.44 0 10.88 0 0 Z " fill="#545C66" transform="translate(16,196)"/>
<path d="M0 0 C3.795 -0.020625 7.59 -0.04125 11.5 -0.0625 C12.68013672 -0.071604 13.86027344 -0.08070801 15.07617188 -0.09008789 C16.03072266 -0.09258545 16.98527344 -0.09508301 17.96875 -0.09765625 C19.41411133 -0.10551147 19.41411133 -0.10551147 20.88867188 -0.11352539 C24.60852477 0.02220371 28.30641598 0.538302 32 1 C32 11.23 32 21.46 32 32 C21.44 32 10.88 32 0 32 C0 21.44 0 10.88 0 0 Z " fill="#545C66" transform="translate(16,132)"/>
<path d="M0 0 C4.0743356 0.84881992 5.54405875 2.30225596 8 5.625 C8.625 8.625 8.625 8.625 8 11.625 C5.9375 14.5625 5.9375 14.5625 3 16.625 C-0.99202191 16.69503547 -3.15396616 16.21071574 -6.4375 13.9375 C-8.52522494 10.84766708 -8.6725974 9.2869192 -8 5.625 C-5.54405875 2.30225596 -4.0743356 0.84881992 0 0 Z " fill="#E4E8EC" transform="translate(32,47.375)"/>
<path d="M0 0 C4.0743356 0.84881992 5.54405875 2.30225596 8 5.625 C8.625 8.625 8.625 8.625 8 11.625 C5.54405875 14.94774404 4.0743356 16.40118008 0 17.25 C-4.0743356 16.40118008 -5.54405875 14.94774404 -8 11.625 C-8.625 8.625 -8.625 8.625 -8 5.625 C-5.54405875 2.30225596 -4.0743356 0.84881992 0 0 Z " fill="#E5E8EC" transform="translate(80,47.375)"/>
<path d="M0 0 C4.0743356 0.84881992 5.54405875 2.30225596 8 5.625 C8.625 8.625 8.625 8.625 8 11.625 C5.9375 14.5625 5.9375 14.5625 3 16.625 C-0.99202191 16.69503547 -3.15396616 16.21071574 -6.4375 13.9375 C-8.52522494 10.84766708 -8.6725974 9.2869192 -8 5.625 C-5.54405875 2.30225596 -4.0743356 0.84881992 0 0 Z " fill="#E5E8EC" transform="translate(56,47.375)"/>
<path d="M0 0 C1.8046875 0.640625 1.8046875 0.640625 3.8046875 2.328125 C5.14507256 5.42776546 5.35136619 7.29221802 4.8046875 10.640625 C2.7421875 13.578125 2.7421875 13.578125 -0.1953125 15.640625 C-3.71664395 15.640625 -6.03795544 15.33503923 -9.0703125 13.515625 C-10.88972673 10.48326794 -11.1953125 8.16195645 -11.1953125 4.640625 C-8.07525244 -0.19043574 -5.38934645 -1.09820645 0 0 Z " fill="#CCD1D9" transform="translate(259.1953125,368.359375)"/>
</svg>
