<?xml version="1.0" encoding="UTF-8"?>
<svg version="1.1" xmlns="http://www.w3.org/2000/svg" width="256" height="256">
<path d="M0 0 C0.93328125 -0.03738281 1.8665625 -0.07476562 2.828125 -0.11328125 C7.83989897 0.6170441 10.7991558 3.08189158 13.84765625 7.02734375 C14.49605469 8.09082031 15.14445313 9.15429688 15.8125 10.25 C16.18552246 10.85279785 16.55854492 11.4555957 16.94287109 12.07666016 C17.77185581 13.41903306 18.59514738 14.76493367 19.41357422 16.11376953 C20.82589528 18.43736535 22.25649518 20.7488843 23.69140625 23.05859375 C25.87765073 26.57881214 28.05810839 30.10251071 30.234375 33.62890625 C33.84492874 39.47326218 37.48224601 45.30067486 41.125 51.125 C42.04877441 52.60335327 42.04877441 52.60335327 42.99121094 54.11157227 C45.96402223 58.8670686 48.94139301 63.61958638 51.93075562 68.36470032 C52.98559441 70.03962608 54.03895019 71.71548552 55.09228516 73.39135742 C56.42267951 75.50774863 57.7555904 77.6225605 59.09130859 79.7355957 C59.68766113 80.68523193 60.28401367 81.63486816 60.8984375 82.61328125 C61.42614746 83.45028564 61.95385742 84.28729004 62.49755859 85.1496582 C65.45842768 90.26278476 65.31811357 95.56549609 64.75 101.3125 C62.5579714 106.33589887 59.72778164 108.19296146 54.99316406 110.4720459 C51.30161609 111.85517105 47.7827019 111.91562382 43.875 111.921875 C43.06506592 111.93841125 42.25513184 111.95494751 41.4206543 111.97198486 C38.86368971 112.02011175 36.30731817 112.04175586 33.75 112.0625 C32.00387697 112.0906894 30.25778116 112.12062095 28.51171875 112.15234375 C24.25754902 112.22910465 20.00519549 112.26994805 15.75 112.3125 C15.75 119.9025 15.75 127.4925 15.75 135.3125 C17.68875 135.786875 19.6275 136.26125 21.625 136.75 C27.5 138.1875 27.5 138.1875 29.75 139.3125 C29.811875 138.714375 29.87375 138.11625 29.9375 137.5 C30.75 135.3125 30.75 135.3125 32.9375 133.5625 C36.24906462 132.0906935 38.16301915 131.78939863 41.75 132.3125 C44.625 133.6875 44.625 133.6875 46.75 136.3125 C48.25815516 143.7252249 46.14327503 152.29025682 43.75 159.3125 C42.03382697 161.44970748 41.06140202 162.19139921 38.5 163.1875 C34.47999178 163.37022765 32.17954346 162.38316775 28.75 160.3125 C27.76 156.8475 27.76 156.8475 26.75 153.3125 C21.8 153.3125 16.85 153.3125 11.75 153.3125 C11.193125 155.41625 11.193125 155.41625 10.625 157.5625 C9.03414365 162.98376775 6.59085428 167.71876774 3.859375 172.6484375 C2.5824097 175.16363535 2.5824097 175.16363535 2.8828125 177.4609375 C4.550682 181.02206428 7.41477394 183.32062888 10.75 185.3125 C13.0829866 185.35272391 15.41706666 185.35570247 17.75 185.3125 C21.62731219 187.95237213 22.59251582 189.5119554 23.5 194.125 C23.19406934 198.72270079 20.89227472 201.51358473 17.75390625 204.734375 C14.74461097 207.10426836 12.54066201 207.52309233 8.75 207.3125 C5.17612398 205.72411066 3.93910428 204.59615642 1.75 201.3125 C1.625 198.125 1.625 198.125 1.75 195.3125 C1.0075 195.02375 0.265 194.735 -0.5 194.4375 C-3.25 193.3125 -3.25 193.3125 -5.3125 192.125 C-7.82160298 191.07279552 -8.70692046 191.39532377 -11.25 192.3125 C-13.43967637 193.92727029 -13.43967637 193.92727029 -15.5 195.875 C-16.20640625 196.51566406 -16.9128125 197.15632812 -17.640625 197.81640625 C-18.17171875 198.31011719 -18.7028125 198.80382812 -19.25 199.3125 C-18.63723755 202.31181096 -18.02346346 203.63514295 -16.1875 206.25 C-14.195972 209.39789909 -13.64671563 210.69279378 -14.25 214.3125 C-14.91 214.9725 -15.57 215.6325 -16.25 216.3125 C-19.5973665 216.18649439 -20.91105363 215.6593136 -23.26953125 213.24609375 C-24.9296875 210.93489583 -26.58984375 208.62369792 -28.25 206.3125 C-33.86 208.6225 -39.47 210.9325 -45.25 213.3125 C-45.25 218.2625 -45.25 223.2125 -45.25 228.3125 C-43.6 228.3125 -41.95 228.3125 -40.25 228.3125 C-37.36299157 230.39756164 -36.39713993 231.85146155 -35.3125 235.25 C-35.23754085 238.92299821 -36.071258 240.40751066 -38.25 243.3125 C-42.84696261 247.90946261 -52.05667829 248.47931807 -58.375 248.6875 C-62.25 248.3125 -62.25 248.3125 -63.9375 246.99609375 C-66.09675202 244.22633893 -66.13305638 241.76233677 -66.25 238.3125 C-64.73483372 234.29730937 -63.8444747 232.70881647 -60.25 230.3125 C-60.683125 229.15621094 -60.683125 229.15621094 -61.125 227.9765625 C-61.49625 226.97367188 -61.8675 225.97078125 -62.25 224.9375 C-62.62125 223.93976563 -62.9925 222.94203125 -63.375 221.9140625 C-64.25 219.3125 -64.25 219.3125 -64.25 217.3125 C-65.29800781 217.32410156 -66.34601563 217.33570313 -67.42578125 217.34765625 C-68.80468572 217.35703655 -70.18359211 217.3661365 -71.5625 217.375 C-72.25279297 217.38337891 -72.94308594 217.39175781 -73.65429688 217.40039062 C-76.7983025 217.41557906 -79.24420019 217.31443327 -82.25 216.3125 C-82.188125 217.59125 -82.12625 218.87 -82.0625 220.1875 C-81.95703125 222.3671875 -81.95703125 222.3671875 -82.25 224.3125 C-85.25 226.3125 -85.25 226.3125 -87.3125 226.125 C-89.25 225.3125 -89.25 225.3125 -91.25 222.3125 C-91.32905064 219.98050612 -91.33798769 217.64417378 -91.25 215.3125 C-97.19 214.3225 -97.19 214.3225 -103.25 213.3125 C-103.63671875 214.16714844 -104.0234375 215.02179688 -104.421875 215.90234375 C-104.94265625 217.00707031 -105.4634375 218.11179688 -106 219.25 C-106.51046875 220.35214844 -107.0209375 221.45429688 -107.546875 222.58984375 C-109.25 225.3125 -109.25 225.3125 -111.265625 226.31640625 C-113.25 226.3125 -113.25 226.3125 -116.25 224.3125 C-117.26489393 218.5131061 -114.54733504 213.50201575 -112.25 208.3125 C-113.05824219 207.85359375 -113.86648437 207.3946875 -114.69921875 206.921875 C-116.30216797 206.00148437 -116.30216797 206.00148437 -117.9375 205.0625 C-118.99324219 204.45921875 -120.04898438 203.8559375 -121.13671875 203.234375 C-124.25 201.3125 -124.25 201.3125 -126.96484375 199.078125 C-129.14787217 197.01953319 -129.14787217 197.01953319 -132.125 197.3125 C-135.91712425 198.52597976 -138.86792579 200.21561399 -142.25 202.3125 C-141.755 203.323125 -141.26 204.33375 -140.75 205.375 C-139.14716617 209.15310832 -138.79130917 212.1842825 -139.25 216.3125 C-140.90886774 219.96200902 -142.7083573 222.39809854 -146.25 224.3125 C-152.23302762 225.66350624 -154.88515343 225.62453853 -160.25 222.3125 C-162.83251832 219.97870048 -165.16554631 217.45427458 -167.5 214.875 C-168.12390625 214.20662109 -168.7478125 213.53824219 -169.390625 212.84960938 C-174.05121628 207.78222079 -176.70530167 204.49682006 -176.50390625 197.2734375 C-176.00865823 193.44859896 -174.13771296 191.16960217 -171.4375 188.5625 C-167.57260647 186.35398941 -164.49857448 186.00672666 -160.1875 187.0625 C-157.35501233 188.2678139 -154.83189392 189.64186276 -152.25 191.3125 C-152.0025 190.631875 -151.755 189.95125 -151.5 189.25 C-150.25 186.3125 -150.25 186.3125 -147.6875 183.3125 C-146.46016065 181.57527838 -146.46016065 181.57527838 -146.25 179.3125 C-148.07206597 174.6342225 -150.53868484 170.52517425 -153.25 166.3125 C-153.99894531 166.62703125 -154.74789062 166.9415625 -155.51953125 167.265625 C-158.78844967 168.51894422 -161.76248054 169.04929098 -165.25 169.3125 C-167.25 167.3125 -167.25 167.3125 -167.875 165 C-167.09572482 161.64911673 -166.20839433 161.30680218 -163.375 159.5 C-159.61923077 157.3125 -159.61923077 157.3125 -157.25 157.3125 C-158.24 152.6925 -159.23 148.0725 -160.25 143.3125 C-161.38179687 143.33570313 -162.51359375 143.35890625 -163.6796875 143.3828125 C-165.16145175 143.40156901 -166.64322312 143.41976934 -168.125 143.4375 C-168.87136719 143.45425781 -169.61773437 143.47101563 -170.38671875 143.48828125 C-172.34194461 143.5058959 -174.29742021 143.41570189 -176.25 143.3125 C-176.91 142.6525 -177.57 141.9925 -178.25 141.3125 C-178.1875 138.8125 -178.1875 138.8125 -177.25 136.3125 C-172.12265496 133.70321053 -166.90406383 133.72122751 -161.25 133.3125 C-161.25 128.0325 -161.25 122.7525 -161.25 117.3125 C-165.5340266 115.13418139 -169.74487506 113.00192185 -174.25 111.3125 C-174.518125 111.93125 -174.78625 112.55 -175.0625 113.1875 C-176.25 115.3125 -176.25 115.3125 -179.25 117.3125 C-182.8948527 117.64998636 -185.67779346 117.4829445 -189.1875 116.4375 C-191.57353608 113.9791598 -191.6490602 113.31782788 -191.8125 110 C-191.45808303 103.13443692 -190.38744576 93.43698111 -185.359375 88.4296875 C-181.9770485 86.63830717 -178.97611651 86.62389531 -175.25 87.3125 C-172.294301 89.35875315 -171.44367982 90.60234065 -170.5 94.0625 C-170.4175 94.805 -170.335 95.5475 -170.25 96.3125 C-166.96674571 97.15979143 -163.92906532 97.36819585 -160.55859375 97.34375 C-159.34707642 97.33698242 -159.34707642 97.33698242 -158.11108398 97.33007812 C-157.49692627 97.32427734 -156.88276855 97.31847656 -156.25 97.3125 C-154.79090289 94.56290459 -153.33285758 91.81275279 -151.875 89.0625 C-151.4625 88.28519531 -151.05 87.50789063 -150.625 86.70703125 C-150.22539062 85.95292969 -149.82578125 85.19882813 -149.4140625 84.421875 C-149.04748535 83.73061523 -148.6809082 83.03935547 -148.30322266 82.32714844 C-147.26155064 80.33459455 -146.25551993 78.32353985 -145.25 76.3125 C-148.22 73.0125 -151.19 69.7125 -154.25 66.3125 C-156.23 67.3025 -156.23 67.3025 -158.25 68.3125 C-161.7131425 68.1682024 -163.72465004 67.65812497 -166.625 65.75 C-168.44753726 63.01619411 -169.0545597 60.90145337 -168.90625 57.6015625 C-167.49439781 52.67688759 -163.67606926 48.98864731 -160.25 45.3125 C-159.56164062 44.57386719 -158.87328125 43.83523437 -158.1640625 43.07421875 C-155.53623927 40.65554879 -153.79716269 40.38344325 -150.25 40.3125 C-147.07235869 41.47356125 -144.97123353 42.43447657 -142.8125 45.0625 C-142.0008706 48.30901761 -142.62516009 51.06333247 -143.25 54.3125 C-141.86987977 55.51822596 -140.47017172 56.70155751 -139.0625 57.875 C-138.28519531 58.53628906 -137.50789063 59.19757812 -136.70703125 59.87890625 C-134.37765248 61.52078135 -134.37765248 61.52078135 -131.84375 61.28125 C-128.50818953 60.03543826 -125.86310434 58.27541839 -122.9375 56.25 C-121.86886719 55.51652344 -120.80023438 54.78304687 -119.69921875 54.02734375 C-118.89097656 53.46144531 -118.08273438 52.89554688 -117.25 52.3125 C-118.32446261 48.84602107 -119.37411771 45.86206244 -121.4375 42.875 C-123.55035859 38.72214 -123.33898522 36.75918964 -122.25 32.3125 C-119.625 31.6875 -119.625 31.6875 -116.25 32.3125 C-113.79511752 35.40317938 -112.06922457 38.82183101 -110.25 42.3125 C-109.26019761 43.98524296 -108.26315395 45.65379663 -107.25 47.3125 C-106.21101563 46.96316406 -105.17203125 46.61382812 -104.1015625 46.25390625 C-96.43585636 43.73330878 -89.37247178 41.69324086 -81.25 41.3125 C-80.59 36.3625 -79.93 31.4125 -79.25 26.3125 C-80.9 25.6525 -82.55 24.9925 -84.25 24.3125 C-86.63228107 21.45376272 -87.26378017 19.98772816 -87.1875 16.25 C-86.11734013 12.89683242 -84.98693103 11.48594523 -82.25 9.3125 C-78.67687005 8.12145668 -75.70446678 8.10721177 -71.9375 8.0625 C-69.99423828 8.02382812 -69.99423828 8.02382812 -68.01171875 7.984375 C-63.9947038 8.33476883 -61.6405303 9.16900374 -58.25 11.3125 C-55.90831236 14.82503146 -55.75376323 16.17719356 -56.25 20.3125 C-58.72132583 24.28427365 -59.61133621 25.15283405 -64.25 26.3125 C-63.26 33.7375 -63.26 33.7375 -62.25 41.3125 C-59.65125 41.7146875 -59.65125 41.7146875 -57 42.125 C-50.6518874 43.17546149 -44.46522162 44.65951553 -38.25 46.3125 C-37.04669509 44.41615447 -35.84440082 42.51917676 -34.64306641 40.62158203 C-33.57739103 38.93829559 -32.51063539 37.25569262 -31.44287109 35.57373047 C-28.50208625 30.9280933 -25.60330663 26.26256162 -22.76953125 21.55078125 C-22.20194092 20.61322998 -21.63435059 19.67567871 -21.04956055 18.7097168 C-19.95489596 16.89751147 -18.86873407 15.08013556 -17.79223633 13.25708008 C-13.37543323 5.97304443 -9.04783326 0.23484813 0 0 Z " fill="#F79595" transform="translate(191.25,3.6875)"/>
<path d="M0 0 C4.78766529 2.57238653 7.25589847 5.3342271 10.0625 9.9375 C10.43552246 10.54029785 10.80854492 11.1430957 11.19287109 11.76416016 C12.02185581 13.10653306 12.84514738 14.45243367 13.66357422 15.80126953 C15.07589528 18.12486535 16.50649518 20.4363843 17.94140625 22.74609375 C20.12765073 26.26631214 22.30810839 29.79001071 24.484375 33.31640625 C28.09492874 39.16076218 31.73224601 44.98817486 35.375 50.8125 C35.99084961 51.79806885 36.60669922 52.7836377 37.24121094 53.79907227 C40.21402223 58.5545686 43.19139301 63.30708638 46.18075562 68.05220032 C47.23559441 69.72712608 48.28895019 71.40298552 49.34228516 73.07885742 C50.67267951 75.19524863 52.0055904 77.3100605 53.34130859 79.4230957 C53.93766113 80.37273193 54.53401367 81.32236816 55.1484375 82.30078125 C55.67614746 83.13778564 56.20385742 83.97479004 56.74755859 84.8371582 C59.70842768 89.95028476 59.56811357 95.25299609 59 101 C56.94104213 105.71844511 54.24372191 107.97348007 49.60839844 110.17749023 C43.90097556 111.97721952 37.79735122 111.4381545 31.875 111.3125 C30.2850119 111.29038273 28.69500349 111.26969001 27.10498047 111.25024414 C24.38225208 111.21544627 21.65972378 111.17735376 18.93716431 111.13102722 C12.03111605 111.01810893 5.12826344 110.98961629 -1.7784214 111.00072575 C-8.08395952 111.01044624 -14.38913446 110.99467315 -20.69460106 110.96350765 C-24.67767093 110.94477772 -28.66004544 110.93748143 -32.64312744 110.95669556 C-36.45704297 110.97416073 -40.26941587 110.95745812 -44.08313751 110.91663742 C-45.50465363 110.90722648 -46.92630731 110.90977657 -48.34777069 110.92522049 C-60.61274674 111.04668241 -60.61274674 111.04668241 -65.85986328 106.63110352 C-69.03182822 103.41133438 -70.21249826 100.34468848 -70.6875 95.875 C-70.57484877 87.22588889 -64.52574079 80.00297297 -60 73 C-58.48421881 70.61700525 -56.97334979 68.23094282 -55.46264648 65.84472656 C-54.4399247 64.23050585 -53.41466537 62.61789024 -52.38696289 61.00683594 C-49.32633719 56.18770786 -46.43224353 51.31739159 -43.6875 46.3125 C-39.81581264 39.27066957 -35.63036713 32.4409808 -31.375 25.625 C-30.75326904 24.62637939 -30.13153809 23.62775879 -29.4909668 22.59887695 C-13.66435232 -2.61004482 -13.66435232 -2.61004482 0 0 Z " fill="#CBBFBA" transform="translate(197,4)"/>
<path d="M0 0 C1.94326172 -0.03867188 1.94326172 -0.03867188 3.92578125 -0.078125 C7.9427962 0.27226883 10.2969697 1.10650374 13.6875 3.25 C16.02918764 6.76253146 16.18373677 8.11469356 15.6875 12.25 C13.21617417 16.22177365 12.32616379 17.09033405 7.6875 18.25 C8.1825 22.705 8.1825 22.705 8.6875 27.25 C7.63691406 27.75789063 6.58632812 28.26578125 5.50390625 28.7890625 C-6.5793017 34.68664731 -16.4690957 40.98271468 -26.3125 50.25 C-26.91835937 50.77980469 -27.52421875 51.30960938 -28.1484375 51.85546875 C-32.92931007 56.22110121 -36.15141579 61.43410903 -39.61450195 66.84790039 C-41.7981314 70.19935302 -43.71085393 72.94727137 -47 75.3125 C-52.85142553 79.74286505 -56.64681978 88.22007437 -57.8203125 95.32421875 C-57.90129103 99.47147633 -57.41824956 102.87028151 -56.30078125 106.8828125 C-54.97917342 111.97694479 -55.02254655 117.01462189 -54.9375 122.25 C-54.63864899 132.14441279 -53.31495637 140.81217121 -50.3125 150.25 C-50.02503906 151.20519531 -49.73757812 152.16039062 -49.44140625 153.14453125 C-45.2278939 165.93488208 -38.37167952 177.33323895 -29.3125 187.25 C-28.61511719 188.02859375 -27.91773437 188.8071875 -27.19921875 189.609375 C-22.04123541 195.07853466 -16.37523824 199.18734286 -10.1328125 203.3046875 C-7.90321242 204.8425557 -6.11095302 206.25032147 -4.3125 208.25 C-7.3125 209.25 -7.3125 209.25 -10.3125 208.25 C-10.250625 209.52875 -10.18875 210.8075 -10.125 212.125 C-10.01953125 214.3046875 -10.01953125 214.3046875 -10.3125 216.25 C-13.3125 218.25 -13.3125 218.25 -15.375 218.0625 C-17.3125 217.25 -17.3125 217.25 -19.3125 214.25 C-19.39155064 211.91800612 -19.40048769 209.58167378 -19.3125 207.25 C-25.2525 206.26 -25.2525 206.26 -31.3125 205.25 C-31.69921875 206.10464844 -32.0859375 206.95929688 -32.484375 207.83984375 C-33.00515625 208.94457031 -33.5259375 210.04929688 -34.0625 211.1875 C-34.57296875 212.28964844 -35.0834375 213.39179688 -35.609375 214.52734375 C-37.3125 217.25 -37.3125 217.25 -39.328125 218.25390625 C-41.3125 218.25 -41.3125 218.25 -44.3125 216.25 C-45.32739393 210.4506061 -42.60983504 205.43951575 -40.3125 200.25 C-41.12074219 199.79109375 -41.92898437 199.3321875 -42.76171875 198.859375 C-44.36466797 197.93898437 -44.36466797 197.93898437 -46 197 C-47.05574219 196.39671875 -48.11148438 195.7934375 -49.19921875 195.171875 C-52.3125 193.25 -52.3125 193.25 -55.02734375 191.015625 C-57.21037217 188.95703319 -57.21037217 188.95703319 -60.1875 189.25 C-63.97962425 190.46347976 -66.93042579 192.15311399 -70.3125 194.25 C-69.8175 195.260625 -69.3225 196.27125 -68.8125 197.3125 C-67.20966617 201.09060832 -66.85380917 204.1217825 -67.3125 208.25 C-68.97136774 211.89950902 -70.7708573 214.33559854 -74.3125 216.25 C-80.29552762 217.60100624 -82.94765343 217.56203853 -88.3125 214.25 C-90.89501832 211.91620048 -93.22804631 209.39177458 -95.5625 206.8125 C-96.18640625 206.14412109 -96.8103125 205.47574219 -97.453125 204.78710938 C-102.11371628 199.71972079 -104.76780167 196.43432006 -104.56640625 189.2109375 C-104.07115823 185.38609896 -102.20021296 183.10710217 -99.5 180.5 C-95.63510647 178.29148941 -92.56107448 177.94422666 -88.25 179 C-85.41751233 180.2053139 -82.89439392 181.57936276 -80.3125 183.25 C-80.065 182.569375 -79.8175 181.88875 -79.5625 181.1875 C-78.3125 178.25 -78.3125 178.25 -75.75 175.25 C-74.52266065 173.51277838 -74.52266065 173.51277838 -74.3125 171.25 C-76.13456597 166.5717225 -78.60118484 162.46267425 -81.3125 158.25 C-82.06144531 158.56453125 -82.81039062 158.8790625 -83.58203125 159.203125 C-86.85094967 160.45644422 -89.82498054 160.98679098 -93.3125 161.25 C-95.3125 159.25 -95.3125 159.25 -95.9375 156.9375 C-95.15822482 153.58661673 -94.27089433 153.24430218 -91.4375 151.4375 C-87.68173077 149.25 -87.68173077 149.25 -85.3125 149.25 C-86.3025 144.63 -87.2925 140.01 -88.3125 135.25 C-89.44429687 135.27320313 -90.57609375 135.29640625 -91.7421875 135.3203125 C-93.22395175 135.33906901 -94.70572312 135.35726934 -96.1875 135.375 C-96.93386719 135.39175781 -97.68023437 135.40851563 -98.44921875 135.42578125 C-100.40444461 135.4433959 -102.35992021 135.35320189 -104.3125 135.25 C-104.9725 134.59 -105.6325 133.93 -106.3125 133.25 C-106.25 130.75 -106.25 130.75 -105.3125 128.25 C-100.18515496 125.64071053 -94.96656383 125.65872751 -89.3125 125.25 C-89.3125 119.97 -89.3125 114.69 -89.3125 109.25 C-93.5965266 107.07168139 -97.80737506 104.93942185 -102.3125 103.25 C-102.580625 103.86875 -102.84875 104.4875 -103.125 105.125 C-104.3125 107.25 -104.3125 107.25 -107.3125 109.25 C-110.9573527 109.58748636 -113.74029346 109.4204445 -117.25 108.375 C-119.63603608 105.9166598 -119.7115602 105.25532788 -119.875 101.9375 C-119.52058303 95.07193692 -118.44994576 85.37448111 -113.421875 80.3671875 C-110.0395485 78.57580717 -107.03861651 78.56139531 -103.3125 79.25 C-100.356801 81.29625315 -99.50617982 82.53984065 -98.5625 86 C-98.48 86.7425 -98.3975 87.485 -98.3125 88.25 C-95.02924571 89.09729143 -91.99156532 89.30569585 -88.62109375 89.28125 C-87.40957642 89.27448242 -87.40957642 89.27448242 -86.17358398 89.26757812 C-85.55942627 89.26177734 -84.94526855 89.25597656 -84.3125 89.25 C-82.85340289 86.50040459 -81.39535758 83.75025279 -79.9375 81 C-79.525 80.22269531 -79.1125 79.44539063 -78.6875 78.64453125 C-78.28789063 77.89042969 -77.88828125 77.13632813 -77.4765625 76.359375 C-77.10998535 75.66811523 -76.7434082 74.97685547 -76.36572266 74.26464844 C-75.32405064 72.27209455 -74.31801993 70.26103985 -73.3125 68.25 C-76.2825 64.95 -79.2525 61.65 -82.3125 58.25 C-83.6325 58.91 -84.9525 59.57 -86.3125 60.25 C-89.7756425 60.1057024 -91.78715004 59.59562497 -94.6875 57.6875 C-96.51003726 54.95369411 -97.1170597 52.83895337 -96.96875 49.5390625 C-95.55689781 44.61438759 -91.73856926 40.92614731 -88.3125 37.25 C-87.62414062 36.51136719 -86.93578125 35.77273437 -86.2265625 35.01171875 C-83.59873927 32.59304879 -81.85966269 32.32094325 -78.3125 32.25 C-75.13485869 33.41106125 -73.03373353 34.37197657 -70.875 37 C-70.0633706 40.24651761 -70.68766009 43.00083247 -71.3125 46.25 C-69.93237977 47.45572596 -68.53267172 48.63905751 -67.125 49.8125 C-66.34769531 50.47378906 -65.57039063 51.13507812 -64.76953125 51.81640625 C-62.44015248 53.45828135 -62.44015248 53.45828135 -59.90625 53.21875 C-56.57068953 51.97293826 -53.92560434 50.21291839 -51 48.1875 C-49.93136719 47.45402344 -48.86273438 46.72054687 -47.76171875 45.96484375 C-46.95347656 45.39894531 -46.14523438 44.83304688 -45.3125 44.25 C-46.38696261 40.78352107 -47.43661771 37.79956244 -49.5 34.8125 C-51.61285859 30.65964 -51.40148522 28.69668964 -50.3125 24.25 C-47.6875 23.625 -47.6875 23.625 -44.3125 24.25 C-41.85761752 27.34067938 -40.13172457 30.75933101 -38.3125 34.25 C-37.32269761 35.92274296 -36.32565395 37.59129663 -35.3125 39.25 C-34.27351563 38.90066406 -33.23453125 38.55132812 -32.1640625 38.19140625 C-24.49835636 35.67080878 -17.43497178 33.63074086 -9.3125 33.25 C-8.6525 28.3 -7.9925 23.35 -7.3125 18.25 C-8.9625 17.59 -10.6125 16.93 -12.3125 16.25 C-14.69478107 13.39126272 -15.32628017 11.92522816 -15.25 8.1875 C-14.17984013 4.83433242 -13.04943103 3.42344523 -10.3125 1.25 C-6.73937005 0.05895668 -3.76696678 0.04471177 0 0 Z " fill="#F37C7C" transform="translate(119.3125,11.75)"/>
<path d="M0 0 C2.4734623 0.36635398 3.681254 0.62054048 5.31762695 2.56860352 C5.70394287 3.24850342 6.09025879 3.92840332 6.48828125 4.62890625 C6.93937256 5.40419678 7.39046387 6.1794873 7.85522461 6.97827148 C8.33612549 7.83106689 8.81702637 8.6838623 9.3125 9.5625 C10.38053059 11.39976591 11.4509486 13.23564552 12.5234375 15.0703125 C13.36986816 16.5248584 13.36986816 16.5248584 14.23339844 18.00878906 C17.20714741 23.04394279 20.32323626 27.98846067 23.4375 32.9375 C24.70343182 34.95423452 25.96905685 36.97116165 27.234375 38.98828125 C27.85763672 39.98166504 28.48089844 40.97504883 29.12304688 41.99853516 C32.70413043 47.72510139 36.24821321 53.47465685 39.78881836 59.22631836 C40.28518799 60.03077393 40.78155762 60.83522949 41.29296875 61.6640625 C41.75364746 62.4159082 42.21432617 63.16775391 42.68896484 63.94238281 C43.86425359 65.78695144 45.12181577 67.51957884 46.42578125 69.2734375 C48 72 48 72 47 77 C16.64 77 -13.72 77 -45 77 C-46 73 -46 73 -45.26586914 71.21435547 C-44.85973389 70.60479004 -44.45359863 69.99522461 -44.03515625 69.3671875 C-43.57326904 68.65731689 -43.11138184 67.94744629 -42.63549805 67.21606445 C-41.85686401 66.05723755 -41.85686401 66.05723755 -41.0625 64.875 C-39.94343949 63.15877192 -38.82635692 61.441253 -37.7109375 59.72265625 C-37.10862305 58.79984863 -36.50630859 57.87704102 -35.88574219 56.92626953 C-32.56632353 51.77524 -29.38439938 46.54010478 -26.1875 41.3125 C-20.71587307 32.3988088 -15.22160231 23.50001272 -9.6875 14.625 C-9.05932373 13.61477783 -8.43114746 12.60455566 -7.78393555 11.5637207 C-7.199104 10.6274585 -6.61427246 9.69119629 -6.01171875 8.7265625 C-5.50084717 7.90752441 -4.98997559 7.08848633 -4.46362305 6.24462891 C-3.05834773 4.08948274 -1.56865523 2.03840514 0 0 Z " fill="#FAE88C" transform="translate(190,22)"/>
<path d="M0 0 C7.28711932 5.0855338 13.13019092 12.16090255 15 21 C15.70322053 31.56327002 14.71891482 40.5025489 8 49 C1.3461885 56.47190308 -5.95252217 60.07574061 -15.859375 61.375 C-25.29611455 61.8015193 -32.23825756 58.80003496 -39.375 52.75 C-43.43079024 48.86584979 -46.17330252 45.31016711 -48 40 C-48.22171875 39.37609375 -48.4434375 38.7521875 -48.671875 38.109375 C-51.51627142 28.65367878 -50.61535626 20.63639287 -46.04638672 11.93359375 C-41.75752213 4.3781246 -36.08899017 -0.42595265 -27.90234375 -3.33984375 C-18.39887923 -5.50146623 -8.45930621 -5.06661626 0 0 Z " fill="#F8C5C5" transform="translate(111,83)"/>
<path d="M0 0 C7.41176471 0.70588235 7.41176471 0.70588235 10 2 C8.75107952 5.29500123 7.35180555 8.28557168 5.53125 11.30078125 C5.04696533 12.10596191 4.56268066 12.91114258 4.0637207 13.74072266 C3.54769287 14.58940918 3.03166504 15.4380957 2.5 16.3125 C1.97043701 17.1895459 1.44087402 18.0665918 0.89526367 18.97021484 C-2.99848849 25.40063801 -6.95372212 31.79181576 -10.96484375 38.1496582 C-14.7734329 44.18865238 -15.62028576 47.86107481 -15 55 C-13.26667053 59.19648187 -10.7407862 61.48127956 -7 64 C-3.67649729 64.61291654 -3.67649729 64.61291654 -0.0065918 64.54589844 C1.01862831 64.56140495 1.01862831 64.56140495 2.06455994 64.57722473 C4.31020955 64.60658159 6.5549551 64.60815028 8.80078125 64.609375 C10.36306978 64.6243616 11.92534249 64.64108976 13.4875946 64.65948486 C17.58929179 64.70311739 21.69077527 64.72314818 25.79266357 64.73822021 C29.98234675 64.75780624 34.17179964 64.79977451 38.36132812 64.83984375 C46.57415842 64.91510137 54.78689817 64.96541952 63 65 C64.20272819 67.40545638 64.10071472 68.94996953 64.0625 71.625 C64.05347656 72.44226563 64.04445313 73.25953125 64.03515625 74.1015625 C64.02355469 74.72804688 64.01195312 75.35453125 64 76 C55.17629572 76.09305768 46.35276276 76.16394501 37.52867317 76.20724869 C33.43039629 76.22804201 29.33245741 76.25620646 25.234375 76.30175781 C21.27266028 76.3455132 17.31126879 76.36919905 13.3493309 76.37950897 C11.84477533 76.38684752 10.3402356 76.40117683 8.83581924 76.42292023 C0.15722541 76.54325886 -7.18364786 76.12317923 -15 72 C-15.66 71.67 -16.32 71.34 -17 71 C-17.20992943 68.48084679 -17.32016386 66.02302773 -17.375 63.5 C-17.69545809 55.67216158 -19.14676599 49.73504058 -23.984375 43.40234375 C-25.19309535 39.35313058 -24.76769137 38.79121429 -22.8359375 35.19921875 C-21.70741407 33.34644168 -20.55198661 31.50987496 -19.375 29.6875 C-18.77848633 28.72432861 -18.18197266 27.76115723 -17.56738281 26.76879883 C-15.7368434 23.8290108 -13.87279216 20.91301146 -12 18 C-10.90327877 16.27106612 -9.80690281 14.54191315 -8.7109375 12.8125 C-1.48055186 1.48055186 -1.48055186 1.48055186 0 0 Z " fill="#F27E7E" transform="translate(143,49)"/>
<path d="M0 0 C4.70240647 2.76978866 9.59138502 6.5768637 11.359375 11.9375 C12.39774823 17.65893651 12.67078656 23.1774409 10.125 28.46484375 C6.16662258 32.83989248 1.73003239 37.52336964 -4.36328125 38.390625 C-10.86050201 38.42524607 -15.33717152 36.85108888 -20.9375 33.46484375 C-25.02683555 29.26498562 -27.38926509 23.96810645 -27.8125 18.08984375 C-27.46954372 11.96562444 -24.03255716 6.82783698 -19.75 2.65234375 C-13.6741413 -1.14506794 -6.9093273 -2.79491885 0 0 Z " fill="#F37C7C" transform="translate(112.25,159.91015625)"/>
<path d="M0 0 C3.24875254 2.22283069 3.89631231 3.61981182 4.9375 7.4375 C5.02371571 12.35179571 3.50980398 14.38235288 0.25 17.875 C-3.20000325 19.60000162 -5.34251757 19.02666173 -9 18 C-11.86262257 15.99007352 -13.64014872 14.56251212 -14.4453125 11.06640625 C-14.66091612 7.26459577 -14.22038348 5.35717322 -12.1875 2.0625 C-8.23297568 -1.6660515 -5.07693841 -1.15789823 0 0 Z " fill="#F37C7C" transform="translate(164,144)"/>
<path d="M0 0 C0.78375 0.04125 1.5675 0.0825 2.375 0.125 C4.43431145 4.24362291 3.55989262 9.59859045 3.5625 14.125 C3.57474609 15.24390625 3.58699219 16.3628125 3.59960938 17.515625 C3.60250977 19.11664063 3.60250977 19.11664063 3.60546875 20.75 C3.60957764 21.73226562 3.61368652 22.71453125 3.61791992 23.7265625 C3.375 26.125 3.375 26.125 1.375 28.125 C-3.18055556 27.56944444 -3.18055556 27.56944444 -4.625 26.125 C-4.87756877 22.15224185 -4.81022451 18.16733825 -4.8125 14.1875 C-4.82474609 13.06408203 -4.83699219 11.94066406 -4.84960938 10.78320312 C-4.85154297 9.71134766 -4.85347656 8.63949219 -4.85546875 7.53515625 C-4.85957764 6.54652588 -4.86368652 5.55789551 -4.86791992 4.53930664 C-4.51158832 0.99783611 -3.53282684 0.16822985 0 0 Z " fill="#CDC1B8" transform="translate(191.625,41.875)"/>
<path d="M0 0 C2.625 -0.625 2.625 -0.625 6 0 C9.8337914 4.64374733 12.47062176 10.18836271 14 16 C10.04 17.98 10.04 17.98 6 20 C4.78963136 17.99278019 3.60754984 15.9684867 2.4375 13.9375 C1.77621094 12.81214844 1.11492187 11.68679687 0.43359375 10.52734375 C-1.21757667 6.46465469 -0.98267331 4.21529263 0 0 Z " fill="#EE6060" transform="translate(69,36)"/>
<path d="M0 0 C0 2.97 0 5.94 0 9 C-5.23854718 10.10285204 -10.66342068 10.56629169 -16 10 C-16.66 9.34 -17.32 8.68 -18 8 C-17.9375 5.5 -17.9375 5.5 -17 3 C-11.97962429 0.04683782 -5.71475311 -0.17317434 0 0 Z " fill="#EE6060" transform="translate(31,137)"/>
<path d="M0 0 C5.75 1.875 5.75 1.875 8 3 C6.34292168 8.64913063 4.52237988 13.26300637 1 18 C-3.875 17.125 -3.875 17.125 -5 16 C-5.95054802 9.82143788 -2.89146798 5.2252957 0 0 Z " fill="#EE5F5F" transform="translate(80,212)"/>
<path d="M0 0 C1.60546875 1.79296875 1.60546875 1.79296875 3.1875 4.1875 C3.71730469 4.96480469 4.24710938 5.74210938 4.79296875 6.54296875 C6.15133937 9.30806623 6.39350522 10.95927783 6 14 C5.34 14.66 4.68 15.32 4 16 C0.6526335 15.87399439 -0.66105363 15.3468136 -3.01953125 12.93359375 C-3.61121094 12.10988281 -4.20289063 11.28617188 -4.8125 10.4375 C-5.41707031 9.61121094 -6.02164063 8.78492188 -6.64453125 7.93359375 C-7.09183594 7.29550781 -7.53914062 6.65742188 -8 6 C-6.24081631 1.94034532 -4.71412298 0 0 0 Z " fill="#EE6060" transform="translate(171,204)"/>
<path d="M0 0 C2.6855594 2.6855594 3.06049974 5.37621328 4 9 C-3.58204769 13.75736325 -3.58204769 13.75736325 -8 13 C-10 11 -10 11 -10.4375 8.58203125 C-10 6 -10 6 -7.8125 4.19921875 C-6.884375 3.70035156 -5.95625 3.20148438 -5 2.6875 C-4.071875 2.17574219 -3.14375 1.66398438 -2.1875 1.13671875 C-1.1046875 0.57404297 -1.1046875 0.57404297 0 0 Z " fill="#EE6161" transform="translate(34,160)"/>
<path d="M0 0 C2.97 0.33 5.94 0.66 9 1 C9.29296875 7.0546875 9.29296875 7.0546875 9 9 C6 11 6 11 3.9375 10.8125 C2 10 2 10 0 7 C-0.07905064 4.66800612 -0.08798769 2.33167378 0 0 Z " fill="#ED6161" transform="translate(100,219)"/>
<path d="M0 0 C2.4375 0.1875 2.4375 0.1875 3.4375 1.1875 C3.5354057 2.68488124 3.56724864 4.18692892 3.5625 5.6875 C3.56507813 6.5021875 3.56765625 7.316875 3.5703125 8.15625 C3.4375 10.1875 3.4375 10.1875 2.4375 11.1875 C0 11.375 0 11.375 -2.5625 11.1875 C-4.5625 9.1875 -4.5625 9.1875 -4.8125 5.6875 C-4.52167932 1.61601046 -4.20623277 0.30777313 0 0 Z " fill="#CEC1B7" transform="translate(191.5625,76.8125)"/>
</svg>
